<svg width="85" height="80" viewBox="0 0 85 80" fill="none" xmlns="http://www.w3.org/2000/svg">
<path d="M37.1929 56.1658C43.845 61.3461 48.155 63.2652 59.9651 59.6891C69.1368 53.4987 69.3527 50.1334 69.074 44.1451C53.7356 60.1513 48.1224 57.4283 37.1929 56.1658Z" fill="#52474E"/>
<path d="M25.3927 62.7979C37.1929 67.9793 54.9966 66.5285 60.5862 64.8705C66.1757 63.2124 65.6295 63.3456 67.4178 65.4922C63.8452 69.3981 61.6767 71.6111 61.6212 75.0259C61.1819 79.4085 60.9526 80.4888 60.5862 78.9637C60.2197 77.4387 49.4071 76.6839 38.228 75.6477C27.0489 74.6114 23.1759 69.3398 25.3927 62.7979Z" fill="#52474E"/>
<path d="M10.2802 30.2591C5.876 35.7318 3.84533 38.7443 4.89772 43.5233C5.14644 42.3811 5.744 42.808 6.96792 43.9378C10.5255 54.1198 15.2989 57.4316 26.8419 60.7254C31.7357 61.4389 36.4286 61.2375 38.849 61.3472C40.0795 60.12 39.2353 59.3562 34.2946 57.8239C20.739 51.2209 15.7974 46.9301 12.1434 38.1347C12.3709 33.7726 11.0212 28.9533 10.2802 30.2591Z" fill="#52474E"/>
<path d="M69.074 66.5285C72.3863 60.7254 81.2882 65.9067 81.7022 70.8808C82.1162 75.8549 82.2086 75.8488 82.3233 80C78.8592 78.3655 79.218 78.9637 73.0074 78.9637C66.7968 78.9637 64.1055 72.9534 67.4178 68.8083C69.5524 68.8958 71.5453 69.9117 76.1127 72.9534C74.7842 69.5921 73.0492 68.3016 69.074 66.5285Z" fill="#52474E"/>
<path d="M14.6277 58.4456C11.1083 52.0476 0.75732 56.5803 0.136259 63.2124C-0.484801 69.8446 1.28517 73.0483 0.136259 75.2332C5.17997 74.5142 11.5224 75.8549 14.6277 74.8187C17.733 73.7824 23.1155 65.4922 15.6628 60.3109C13.7225 61.7138 12.6346 61.395 10.6943 62.7979L7.79601 66.114C9.37773 63.5519 8.21005 62.1762 14.6277 58.4456Z" fill="#52474E"/>
<path d="M69.9021 39.7928C72.5933 42.6944 79.4643 47.5332 62.6564 62.1762C67.1417 63.2135 69.6428 63.1733 74.0425 60.3109C77.48 58.209 79.3189 56.7418 81.7022 51.1917C82.1794 49.441 84.5934 48.8146 84.6713 50.57V49.1192C82.7206 41.6139 84.1864 38.1347 82.3233 29.8446C79.8394 23.9349 77.2285 21.471 70.3161 18.6529C69.301 20.791 70.3161 22.1762 70.3161 22.1762C70.3161 22.1762 73.5906 28.6522 72.3863 32.7462C70.2015 36.3527 69.4446 38.0454 69.9021 39.7928Z" fill="#52474E"/>
<path d="M57.9657 43.7306C46.513 47.1964 39.9879 48.6582 26.4986 42.6943C27.1966 47.9188 28.8245 50.5104 37.0566 53.6787C42.635 54.7708 45.7626 54.5636 51.341 53.6787C56.566 49.7748 57.3587 47.6013 57.9657 43.7306Z" fill="#52474E"/>
<path d="M48.8568 30.2591C46.1655 29.4301 43.4094 28.9284 41.197 31.0881C41.9926 28.2153 44.1921 26.4064 49.6849 26.7357C53.9629 29.0668 55.2764 34.0922 54.6533 35.2332C54.0302 36.3741 53.7583 36.5102 53.4112 35.8549C52.5237 33.117 51.548 31.0881 48.8568 30.2591Z" fill="#52474E"/>
<path d="M12.0071 21.5544C12.8751 32.9684 14.1485 38.6802 22.1511 46.0103C22.1511 46.8394 23.6066 44.2775 22.9792 40C21.2522 36.5804 20.909 35.4587 20.909 31.3136C19.8739 16.5803 33.1232 7.47946 45.9585 7.47946C38.0917 5.19967 43.4742 2.6943 24.2213 2.6943C21.7876 1.94305 21.3947 1.31036 21.5301 0C13.7664 10.7114 11.5137 15.5263 12.0071 21.5544Z" fill="#52474E"/>
<path d="M33.1232 31.3136C33.1232 31.3136 36.0274 35.1978 39.3338 37.3057C38.4867 35.3707 37.5596 31.72 38.9198 28.601C40.7736 24.3503 45.2285 25.0642 49.2708 22.7979C46.9936 20.1036 38.194 21.6209 35.1934 24.6632C31.3201 27.9423 32.0065 29.0643 31.6741 31.9171C32.0881 30.8808 33.1232 31.3136 33.1232 31.3136Z" fill="#52474E"/>
<path d="M43.0602 32.9534C42.5658 34.0335 42.9269 34.2382 43.8883 34.4041C43.8883 34.4041 43.4742 33.5751 44.5094 32.9534C45.5445 32.3316 46.3725 32.5388 47.4076 32.9534C48.4427 33.3679 49.2708 33.9896 50.0989 35.6477C50.927 37.3057 50.5129 30.8808 47.4076 31.3136C44.3023 31.7465 44.4748 31.4529 43.0602 32.9534Z" fill="#52474E"/>
<path d="M46.447 35.6477C46.1693 36.3676 45.24 35.2607 45.2049 34.4041C44.7524 34.9555 44.8437 35.2584 44.7164 35.4404C44.6269 36.3016 45.3374 36.8912 46.3725 36.8912C47.4076 36.8912 47.8217 35.8549 48.6498 35.8549C49.4778 35.8549 46.7247 34.9277 46.447 35.6477Z" fill="#52474E"/>
<path d="M45.9585 38.1347C44.0953 37.9274 41.1376 36.3268 41.404 34.4041C40.4417 35.2508 40.0004 35.7617 40.3689 37.0984C41.0826 39.8454 42.77 39.6877 45.3374 41.0363C48.5472 41.5905 50.1288 41.3795 52.7902 40.6217C54.1122 38.7978 52.3761 36.2694 52.3761 36.6839C50.061 37.8238 47.8217 38.342 45.9585 38.1347Z" fill="#52474E"/>
<path d="M56.9306 40.6217C57.1821 29.9095 53.9426 29.2785 50.0989 25.0777C49.1372 24.4393 51.548 25.285 52.3761 25.285C53.166 25.285 55.5185 25.4199 55.501 25.3036C55.4945 25.2974 55.488 25.2912 55.4814 25.285C55.4938 25.2918 55.5001 25.298 55.501 25.3036C63.0935 32.5467 59.8264 37.1015 56.9306 40.6217Z" fill="#52474E"/>
<path d="M30.0179 31.9171C28.8334 29.5812 30.846 28.601 30.0179 26.114C26.1698 29.3891 24.4769 31.366 24.6354 35.8549C27.7903 41.6652 42.754 45.3286 47.6147 42.2798C46.5585 42.6591 45.6766 42.7475 42.6462 42.2798C36.1009 39.9704 32.9142 38.1556 30.0179 31.9171Z" fill="#52474E"/>
<path d="M27.7406 24.6632C34.9863 1.45074 60.6568 11.1917 60.6568 11.1917C61.8989 11.6062 62.3131 10.3627 62.3131 10.3627C63.3827 13.3788 68.9377 20.7254 68.9377 33.9896C66.6398 41.5597 63.8507 44.6809 58.0685 49.1376C75.0515 27.1277 49.7056 8.06299 27.7406 24.6632Z" fill="#52474E"/>
<path d="M45.9585 33.9896C47.2855 34.0903 47.5498 34.2627 46.9936 34.8186C47.9723 33.9717 48.1079 33.6531 45.9585 33.9896Z" fill="#52474E"/>
<path d="M45.3374 4.35232C46.6705 6.42365 48.3493 6.09407 50.5552 6.01035C68.0426 5.55601 70.8432 16.9948 70.8432 16.9948C70.8432 16.9948 76.4594 14.1034 71.836 4.35232C60.2401 0.328074 54.4491 0.362646 45.3374 4.35232Z" fill="#52474E"/>
</svg>
