<svg width="360" height="86" viewBox="0 0 360 86" fill="none" xmlns="http://www.w3.org/2000/svg">
<rect x="0.997559" y="1" width="359.003" height="85" fill="white"/>
<line y1="0.6" x2="359.004" y2="0.6" stroke="#CDD5D8" stroke-width="0.8"/>
<line y1="43.5885" x2="359.004" y2="43.5885" stroke="#CDD5D8" stroke-width="0.8"/>
<rect x="313.13" y="14.6782" width="15.9557" height="2.06109" fill="black"/>
<rect x="313.13" y="20.4867" width="15.9557" height="2.06109" fill="black"/>
<rect x="313.13" y="26.2952" width="15.9557" height="2.06109" fill="black"/>
<path fill-rule="evenodd" clip-rule="evenodd" d="M29.917 31.2874V23.1729L38.3287 14.6782L46.8699 23.1729V31.2874H39.4934V27.1034H37.2934V31.2874H29.917ZM31.4699 24.314V29.6391H35.7405V25.3283H41.1758V29.6391H45.1875V24.314L38.3287 17.5943L31.4699 24.314Z" fill="#018091"/>
<path d="M134.843 19.2044C134.843 21.2458 133.146 22.9006 131.053 22.9006C128.96 22.9006 127.264 21.2458 127.264 19.2044C127.264 17.1631 128.96 15.5082 131.053 15.5082C133.146 15.5082 134.843 17.1631 134.843 19.2044Z" fill="white"/>
<path d="M123.639 27.0075C123.639 25.6466 124.91 24.5434 126.275 24.5434H135.996C137.361 24.5434 138.467 25.6466 138.467 27.0075V30.2931H123.639V27.0075Z" fill="white"/>
<path fill-rule="evenodd" clip-rule="evenodd" d="M134.843 19.2044C134.843 21.2458 133.146 22.9006 131.053 22.9006C128.96 22.9006 127.264 21.2458 127.264 19.2044C127.264 17.1631 128.96 15.5082 131.053 15.5082C133.146 15.5082 134.843 17.1631 134.843 19.2044Z" fill="white"/>
<path fill-rule="evenodd" clip-rule="evenodd" d="M131.053 13.7012C127.959 13.7012 125.451 16.1283 125.451 19.1223C125.451 20.5915 126.055 21.9243 127.036 22.9006C128.054 23.9139 129.478 24.5434 131.053 24.5434C132.629 24.5434 134.052 23.9139 135.07 22.9006C136.051 21.9243 136.655 20.5915 136.655 19.1223C136.655 16.1283 134.147 13.7012 131.053 13.7012ZM131.053 22.9006C133.146 22.9006 134.843 21.2458 134.843 19.2044C134.843 17.1631 133.146 15.5082 131.053 15.5082C128.96 15.5082 127.264 17.1631 127.264 19.2044C127.264 21.2458 128.96 22.9006 131.053 22.9006Z" fill="black"/>
<path d="M140.609 30.2931V27.0075C140.609 24.7394 138.271 22.9006 135.996 22.9006H135.07C134.052 23.9139 132.629 24.5434 131.053 24.5434H135.996C137.361 24.5434 138.467 25.6466 138.467 27.0075V30.2931H123.639V27.0075C123.639 25.6466 124.91 24.5434 126.275 24.5434H131.053C129.478 24.5434 128.054 23.9139 127.036 22.9006H126.275C124 22.9006 121.662 24.7394 121.662 27.0075V30.2931C121.662 31.3818 122.547 32.2644 123.639 32.2644H138.632C139.724 32.2644 140.609 31.3818 140.609 30.2931Z" fill="black"/>
<path fill-rule="evenodd" clip-rule="evenodd" d="M135.07 22.9006C135.097 22.8735 135.124 22.8462 135.151 22.8185C136.084 21.8502 136.655 20.5507 136.655 19.1223C136.655 16.1283 134.147 13.7012 131.053 13.7012C127.959 13.7012 125.451 16.1283 125.451 19.1223C125.451 20.5507 126.022 21.8502 126.955 22.8185C126.982 22.8462 127.009 22.8735 127.036 22.9006C127.748 23.609 128.658 24.1298 129.679 24.3791C130.119 24.4864 130.579 24.5434 131.053 24.5434H126.275C124.91 24.5434 123.639 25.6466 123.639 27.0075V30.2931H138.467V27.0075C138.467 25.6466 137.361 24.5434 135.996 24.5434H131.053C131.527 24.5434 131.988 24.4864 132.427 24.3791C133.449 24.1298 134.359 23.609 135.07 22.9006ZM138.301 30.1288V27.0075C138.301 25.736 137.268 24.7077 135.996 24.7077H126.275C124.989 24.7077 123.805 25.7494 123.805 27.0075V30.1288H138.301ZM131.053 24.3791C132.583 24.3791 133.965 23.768 134.952 22.7849C135.904 21.8377 136.489 20.5459 136.489 19.1223C136.489 16.2223 134.059 13.8654 131.053 13.8654C128.048 13.8654 125.618 16.2223 125.618 19.1223C125.618 20.5459 126.203 21.8377 127.154 22.7849C128.142 23.768 129.523 24.3791 131.053 24.3791ZM131.053 22.7364C133.056 22.7364 134.676 21.153 134.676 19.2044C134.676 17.2558 133.056 15.6725 131.053 15.6725C129.05 15.6725 127.43 17.2558 127.43 19.2044C127.43 21.153 129.05 22.7364 131.053 22.7364ZM135.009 19.2044C135.009 21.3386 133.236 23.0649 131.053 23.0649C128.871 23.0649 127.097 21.3386 127.097 19.2044C127.097 17.0703 128.871 15.3439 131.053 15.3439C133.236 15.3439 135.009 17.0703 135.009 19.2044Z" fill="black"/>
<path d="M215.402 16.3431V14.6782H219.752L224.794 26.0207H233.296L236.361 19.0487H238.338L234.482 27.7898H223.706L218.763 16.3431H215.402Z" fill="black"/>
<path d="M215.402 16.3431H215.277V16.4681H215.402V16.3431ZM215.402 14.6782V14.5532H215.277V14.6782H215.402ZM219.752 14.6782L219.866 14.6274L219.833 14.5532H219.752V14.6782ZM224.794 26.0207L224.679 26.0715L224.712 26.1457H224.794V26.0207ZM233.296 26.0207V26.1457H233.377L233.41 26.071L233.296 26.0207ZM236.361 19.0487V18.9237H236.279L236.246 18.9984L236.361 19.0487ZM238.338 19.0487L238.452 19.0991L238.53 18.9237H238.338V19.0487ZM234.482 27.7898V27.9148H234.564L234.597 27.8402L234.482 27.7898ZM223.706 27.7898L223.591 27.8393L223.624 27.9148H223.706V27.7898ZM218.763 16.3431L218.878 16.2936L218.845 16.2181H218.763V16.3431ZM215.527 16.3431V14.6782H215.277V16.3431H215.527ZM215.402 14.8032H219.752V14.5532H215.402V14.8032ZM219.637 14.7289L224.679 26.0715L224.908 25.97L219.866 14.6274L219.637 14.7289ZM224.794 26.1457H233.296V25.8957H224.794V26.1457ZM233.41 26.071L236.475 19.099L236.246 18.9984L233.181 25.9704L233.41 26.071ZM236.361 19.1737H238.338V18.9237H236.361V19.1737ZM238.224 18.9982L234.368 27.7393L234.597 27.8402L238.452 19.0991L238.224 18.9982ZM234.482 27.6648H223.706V27.9148H234.482V27.6648ZM223.821 27.7402L218.878 16.2936L218.648 16.3927L223.591 27.8393L223.821 27.7402ZM218.763 16.2181H215.402V16.4681H218.763V16.2181Z" fill="black"/>
<path d="M225.381 30.7035C225.381 31.2564 224.962 31.6603 224.497 31.6603C224.033 31.6603 223.613 31.2564 223.613 30.7035C223.613 30.1506 224.033 29.7466 224.497 29.7466C224.962 29.7466 225.381 30.1506 225.381 30.7035Z" fill="black" stroke="black"/>
<path d="M234.18 30.8075C234.18 31.3604 233.76 31.7644 233.296 31.7644C232.832 31.7644 232.412 31.3604 232.412 30.8075C232.412 30.2547 232.832 29.8507 233.296 29.8507C233.76 29.8507 234.18 30.2547 234.18 30.8075Z" fill="black" stroke="black"/>
<path d="M230.573 13.5216V22.7701H228.586V15.7814L226.44 16.4352V14.899L230.376 13.5216H230.573Z" fill="black"/>
</svg>
