<svg width="79" height="40" viewBox="0 0 79 40" fill="none" xmlns="http://www.w3.org/2000/svg">
<path d="M36.3804 15.0469V25H35.061V15.0469H36.3804ZM40.5503 19.5244V20.6045H36.0933V19.5244H40.5503ZM41.2271 15.0469V16.127H36.0933V15.0469H41.2271ZM43.9819 17.6035V25H42.7104V17.6035H43.9819ZM42.6147 15.6416C42.6147 15.4365 42.6763 15.2633 42.7993 15.1221C42.9269 14.9808 43.1138 14.9102 43.3599 14.9102C43.6014 14.9102 43.786 14.9808 43.9136 15.1221C44.0457 15.2633 44.1118 15.4365 44.1118 15.6416C44.1118 15.8376 44.0457 16.0062 43.9136 16.1475C43.786 16.2842 43.6014 16.3525 43.3599 16.3525C43.1138 16.3525 42.9269 16.2842 42.7993 16.1475C42.6763 16.0062 42.6147 15.8376 42.6147 15.6416ZM47.3862 14.5V25H46.1147V14.5H47.3862ZM52.5132 17.6035V18.5742H48.5142V17.6035H52.5132ZM49.8677 15.8057H51.1323V23.168C51.1323 23.4186 51.1711 23.6077 51.2485 23.7354C51.326 23.863 51.4263 23.9473 51.5493 23.9883C51.6724 24.0293 51.8045 24.0498 51.9458 24.0498C52.0506 24.0498 52.16 24.0407 52.2739 24.0225C52.3924 23.9997 52.4813 23.9814 52.5405 23.9678L52.5474 25C52.4471 25.0319 52.3149 25.0615 52.1509 25.0889C51.9914 25.1208 51.7977 25.1367 51.5698 25.1367C51.2599 25.1367 50.9751 25.0752 50.7153 24.9521C50.4556 24.8291 50.2482 24.624 50.0933 24.3369C49.9429 24.0452 49.8677 23.6533 49.8677 23.1611V15.8057ZM57.0659 25.1367C56.5509 25.1367 56.0838 25.0501 55.6646 24.877C55.2498 24.6992 54.8921 24.4508 54.5913 24.1318C54.2951 23.8128 54.0672 23.4346 53.9077 22.9971C53.7482 22.5596 53.6685 22.0811 53.6685 21.5615V21.2744C53.6685 20.6729 53.7573 20.1374 53.9351 19.668C54.1128 19.194 54.3543 18.793 54.6597 18.4648C54.965 18.1367 55.3114 17.8883 55.6987 17.7197C56.0861 17.5511 56.4871 17.4668 56.9019 17.4668C57.4305 17.4668 57.8862 17.5579 58.269 17.7402C58.6564 17.9225 58.9731 18.1777 59.2192 18.5059C59.4653 18.8294 59.6476 19.2122 59.7661 19.6543C59.8846 20.0918 59.9438 20.5703 59.9438 21.0898V21.6572H54.4204V20.625H58.6792V20.5293C58.661 20.2012 58.5926 19.8822 58.4741 19.5723C58.3602 19.2624 58.1779 19.0072 57.9272 18.8066C57.6766 18.6061 57.3348 18.5059 56.9019 18.5059C56.6147 18.5059 56.3504 18.5674 56.1089 18.6904C55.8674 18.8089 55.66 18.9867 55.4868 19.2236C55.3136 19.4606 55.1792 19.75 55.0835 20.0918C54.9878 20.4336 54.9399 20.8278 54.9399 21.2744V21.5615C54.9399 21.9124 54.9878 22.2428 55.0835 22.5527C55.1838 22.8581 55.3273 23.127 55.5142 23.3594C55.7056 23.5918 55.9357 23.7741 56.2046 23.9062C56.478 24.0384 56.7879 24.1045 57.1343 24.1045C57.5809 24.1045 57.9591 24.0133 58.269 23.8311C58.5789 23.6488 58.8501 23.4049 59.0825 23.0996L59.8481 23.708C59.6886 23.9495 59.4858 24.1797 59.2397 24.3984C58.9937 24.6172 58.6906 24.7949 58.3306 24.9316C57.9751 25.0684 57.5535 25.1367 57.0659 25.1367ZM62.6851 18.7656V25H61.4204V17.6035H62.6509L62.6851 18.7656ZM64.9956 17.5625L64.9888 18.7383C64.884 18.7155 64.7837 18.7018 64.688 18.6973C64.5968 18.6882 64.492 18.6836 64.3735 18.6836C64.0819 18.6836 63.8244 18.7292 63.6011 18.8203C63.3778 18.9115 63.1886 19.0391 63.0337 19.2031C62.8787 19.3672 62.7557 19.5632 62.6646 19.791C62.578 20.0143 62.521 20.2604 62.4937 20.5293L62.1382 20.7344C62.1382 20.2878 62.1815 19.8685 62.2681 19.4766C62.3592 19.0846 62.4982 18.7383 62.6851 18.4375C62.8719 18.1322 63.1089 17.8952 63.396 17.7266C63.6877 17.5534 64.034 17.4668 64.4351 17.4668C64.5262 17.4668 64.631 17.4782 64.7495 17.501C64.868 17.5192 64.95 17.5397 64.9956 17.5625ZM70.4712 23.0381C70.4712 22.8558 70.4302 22.6872 70.3481 22.5322C70.2707 22.3727 70.1089 22.2292 69.8628 22.1016C69.6213 21.9694 69.2567 21.8555 68.769 21.7598C68.3589 21.6732 67.9875 21.5706 67.6548 21.4521C67.3267 21.3337 67.0464 21.1901 66.814 21.0215C66.5861 20.8529 66.4106 20.6546 66.2876 20.4268C66.1646 20.1989 66.103 19.9323 66.103 19.627C66.103 19.3353 66.1668 19.0596 66.2944 18.7998C66.4266 18.54 66.6112 18.3099 66.8481 18.1094C67.0897 17.9089 67.3791 17.7516 67.7163 17.6377C68.0535 17.5238 68.4295 17.4668 68.8442 17.4668C69.4367 17.4668 69.9425 17.5716 70.3618 17.7812C70.7811 17.9909 71.1024 18.2712 71.3257 18.6221C71.549 18.9684 71.6606 19.3535 71.6606 19.7773H70.396C70.396 19.5723 70.3345 19.374 70.2114 19.1826C70.0929 18.9867 69.9175 18.8249 69.6851 18.6973C69.4572 18.5697 69.1769 18.5059 68.8442 18.5059C68.4933 18.5059 68.2085 18.5605 67.9897 18.6699C67.7756 18.7747 67.6183 18.9092 67.5181 19.0732C67.4224 19.2373 67.3745 19.4105 67.3745 19.5928C67.3745 19.7295 67.3973 19.8525 67.4429 19.9619C67.493 20.0667 67.5796 20.1647 67.7026 20.2559C67.8257 20.3424 67.9989 20.4245 68.2222 20.502C68.4455 20.5794 68.7303 20.6569 69.0767 20.7344C69.6828 20.8711 70.1818 21.0352 70.5737 21.2266C70.9657 21.418 71.2573 21.6527 71.4487 21.9307C71.6401 22.2087 71.7358 22.5459 71.7358 22.9424C71.7358 23.266 71.6675 23.5622 71.5308 23.8311C71.3986 24.0999 71.2049 24.3324 70.9497 24.5283C70.6991 24.7197 70.3983 24.8701 70.0474 24.9795C69.701 25.0843 69.3114 25.1367 68.8784 25.1367C68.2267 25.1367 67.6753 25.0205 67.2241 24.7881C66.7729 24.5557 66.4312 24.2549 66.1987 23.8857C65.9663 23.5166 65.8501 23.127 65.8501 22.7168H67.1216C67.1398 23.0632 67.2401 23.3389 67.4224 23.5439C67.6047 23.7445 67.828 23.888 68.0923 23.9746C68.3566 24.0566 68.6187 24.0977 68.8784 24.0977C69.2248 24.0977 69.5142 24.0521 69.7466 23.9609C69.9836 23.8698 70.1636 23.7445 70.2866 23.585C70.4097 23.4255 70.4712 23.2432 70.4712 23.0381Z" fill="#136882"/>
<path d="M17.9874 28.9742L18.2281 29.6845L18.2281 29.6845L17.9874 28.9742ZM22.2228 27.5384L21.982 26.8281L21.982 26.8281L22.2228 27.5384ZM26.6382 17.954L27.173 18.4799L26.6382 17.954ZM22.8492 21.8073L22.3145 21.2815L22.8492 21.8073ZM17.0399 21.8073L17.5746 21.2814L17.0399 21.8073ZM13.251 17.954L12.7162 18.4799L13.251 17.954ZM13.964 15.75H25.9252V14.25H13.964V15.75ZM13.714 17.2529V16H12.214V17.2529H13.714ZM17.5746 21.2814L13.7857 17.4282L12.7162 18.4799L16.5051 22.3331L17.5746 21.2814ZM16.5768 22.5084V28.5007H18.0768V22.5084H16.5768ZM16.5768 28.5007C16.5768 29.3566 17.4176 29.9593 18.2281 29.6845L17.7466 28.2639C17.9087 28.209 18.0768 28.3295 18.0768 28.5007H16.5768ZM18.2281 29.6845L22.4636 28.2487L21.982 26.8281L17.7466 28.2639L18.2281 29.6845ZM22.4636 28.2487C22.9709 28.0768 23.3123 27.6006 23.3123 27.0649H21.8123C21.8123 26.9578 21.8805 26.8625 21.982 26.8281L22.4636 28.2487ZM23.3123 27.0649V22.5085H21.8123V27.0649H23.3123ZM26.1034 17.4282L22.3145 21.2815L23.384 22.3332L27.173 18.4799L26.1034 17.4282ZM26.1752 16V17.2529H27.6752V16H26.1752ZM27.173 18.4799C27.4948 18.1526 27.6752 17.7119 27.6752 17.2529H26.1752C26.1752 17.3185 26.1494 17.3814 26.1034 17.4282L27.173 18.4799ZM23.3123 22.5085C23.3123 22.4429 23.338 22.3799 23.384 22.3332L22.3145 21.2815C21.9926 21.6088 21.8123 22.0494 21.8123 22.5085H23.3123ZM16.5051 22.3331C16.5511 22.3799 16.5768 22.4428 16.5768 22.5084H18.0768C18.0768 22.0494 17.8965 21.6087 17.5746 21.2814L16.5051 22.3331ZM12.214 17.2529C12.214 17.7119 12.3943 18.1526 12.7162 18.4799L13.7857 17.4282C13.7398 17.3814 13.714 17.3185 13.714 17.2529H12.214ZM25.9252 15.75C26.0632 15.75 26.1752 15.8619 26.1752 16H27.6752C27.6752 15.0335 26.8917 14.25 25.9252 14.25V15.75ZM13.964 14.25C12.9975 14.25 12.214 15.0335 12.214 16H13.714C13.714 15.8619 13.8259 15.75 13.964 15.75V14.25Z" fill="#1C656F"/>
<line x1="0.375" x2="0.375" y2="40" stroke="#E9E9E9" stroke-width="0.75"/>
</svg>
