<svg width="26" height="22" viewBox="0 0 26 22" fill="none" xmlns="http://www.w3.org/2000/svg">
<path d="M10.1549 18.1618L9.87956 17.2004L9.87956 17.2004L10.1549 18.1618ZM15.4997 16.6313L15.775 17.5926L15.775 17.5926L15.4997 16.6313ZM20.801 6.83411L20.1494 6.07557L20.801 6.83411ZM16.2104 10.7777L16.862 11.5362L16.2104 10.7777ZM9.16883 10.7777L9.82046 10.0191L9.16883 10.7777ZM4.57823 6.83411L3.92661 7.59265L4.57823 6.83411ZM5.22986 4.80957H20.1494V2.80957H5.22986V4.80957ZM5.22986 6.07557V4.80957H3.22986V6.07557H5.22986ZM9.82046 10.0191L5.22986 6.07557L3.92661 7.59265L8.51721 11.5362L9.82046 10.0191ZM8.51721 11.5362V17.6811H10.5172V11.5362H8.51721ZM8.51721 17.6811C8.51721 18.678 9.47172 19.3976 10.4301 19.1231L9.87956 17.2004C10.199 17.1089 10.5172 17.3488 10.5172 17.6811H8.51721ZM10.4301 19.1231L15.775 17.5926L15.2244 15.6699L9.87956 17.2004L10.4301 19.1231ZM15.775 17.5926C16.4185 17.4084 16.862 16.82 16.862 16.1506H14.862C14.862 15.9275 15.0099 15.7313 15.2244 15.6699L15.775 17.5926ZM16.862 16.1506V11.5362H14.862V16.1506H16.862ZM20.1494 6.07557L15.5588 10.0192L16.862 11.5362L21.4527 7.59265L20.1494 6.07557ZM20.1494 4.80957V6.07557H22.1494V4.80957H20.1494ZM21.4527 7.59265C21.8949 7.2127 22.1494 6.65865 22.1494 6.07557H20.1494L20.1494 6.07557L21.4527 7.59265ZM16.862 11.5362L16.862 11.5362L15.5588 10.0192C15.1165 10.3991 14.862 10.9532 14.862 11.5362H16.862ZM8.51721 11.5362L8.51721 11.5362H10.5172C10.5172 10.9531 10.2628 10.3991 9.82046 10.0191L8.51721 11.5362ZM3.22986 6.07557C3.22986 6.65865 3.48432 7.2127 3.92661 7.59265L5.22986 6.07557L5.22986 6.07557H3.22986ZM20.1494 4.80957L20.1494 4.80957H22.1494C22.1494 3.705 21.254 2.80957 20.1494 2.80957V4.80957ZM5.22986 2.80957C4.12529 2.80957 3.22986 3.705 3.22986 4.80957H5.22986L5.22986 4.80957V2.80957Z" fill="#017084"/>
</svg>
