<svg width="157" height="57" viewBox="0 0 157 57" fill="none" xmlns="http://www.w3.org/2000/svg">
<path d="M9.952 42C9.984 42 10 42.032 10 42.096C10 42.16 9.984 42.192 9.952 42.192C9.55733 42.192 9.11467 42.304 8.624 42.528C8.144 42.7413 7.67467 43.0613 7.216 43.488L4.656 45.776L6.208 48.688C6.752 49.6907 7.16267 50.4053 7.44 50.832C7.71733 51.248 7.94667 51.5147 8.128 51.632C8.32 51.7493 8.56 51.808 8.848 51.808C8.88 51.808 8.896 51.84 8.896 51.904C8.896 51.968 8.88 52 8.848 52H7.44C7.00267 52 6.72533 51.9733 6.608 51.92C6.50133 51.8667 6.30933 51.5467 6.032 50.96C5.75467 50.3733 5.52533 49.9093 5.344 49.568L3.744 46.592L3.104 47.152L2.48 50.704C2.42667 51.024 2.4 51.2427 2.4 51.36C2.4 51.5413 2.45867 51.664 2.576 51.728C2.704 51.7813 2.944 51.808 3.296 51.808C3.31733 51.808 3.328 51.84 3.328 51.904C3.328 51.968 3.31733 52 3.296 52C3.008 52 2.78933 51.9947 2.64 51.984L1.68 51.968L0.72 51.984C0.56 51.9947 0.336 52 0.048 52C0.016 52 0 51.968 0 51.904C0 51.84 0.016 51.808 0.048 51.808C0.378667 51.808 0.624 51.7813 0.784 51.728C0.944 51.6747 1.06667 51.5733 1.152 51.424C1.23733 51.264 1.30667 51.024 1.36 50.704L2.672 43.296C2.71467 43.0187 2.736 42.848 2.736 42.784C2.736 42.5493 2.66667 42.3947 2.528 42.32C2.38933 42.2347 2.13333 42.192 1.76 42.192C1.73867 42.192 1.728 42.16 1.728 42.096C1.728 42.032 1.73867 42 1.76 42L2.448 42.016C2.832 42.0373 3.14667 42.048 3.392 42.048C3.63733 42.048 3.97333 42.0373 4.4 42.016L5.104 42C5.12533 42 5.136 42.032 5.136 42.096C5.136 42.16 5.12533 42.192 5.104 42.192C4.784 42.192 4.53867 42.224 4.368 42.288C4.208 42.352 4.08533 42.464 4 42.624C3.92533 42.7733 3.856 43.008 3.792 43.328L3.184 46.768L6.864 43.392C7.23733 43.0507 7.424 42.768 7.424 42.544C7.424 42.3093 7.18933 42.192 6.72 42.192C6.69867 42.192 6.688 42.16 6.688 42.096C6.688 42.032 6.69867 42 6.72 42L7.376 42.016C7.80267 42.0373 8.176 42.048 8.496 42.048C8.79467 42.048 9.11467 42.0373 9.456 42.016L9.952 42Z" fill="#144970"/>
<path d="M11.2402 52.144C10.8136 52.144 10.6003 51.8827 10.6003 51.36C10.6003 51.136 10.6322 50.8747 10.6962 50.576L11.3523 47.248C11.3843 47.088 11.4003 46.9493 11.4003 46.832C11.4003 46.512 11.2989 46.352 11.0963 46.352C10.9789 46.352 10.8296 46.416 10.6482 46.544C10.4669 46.6613 10.2696 46.832 10.0562 47.056C10.0456 47.0667 10.0296 47.072 10.0083 47.072C9.97625 47.072 9.94425 47.056 9.91225 47.024C9.89092 46.9813 9.89625 46.9493 9.92825 46.928C10.6323 46.096 11.2563 45.68 11.8003 45.68C12.0136 45.68 12.1682 45.744 12.2642 45.872C12.3709 45.9893 12.4243 46.176 12.4243 46.432C12.4243 46.6773 12.3976 46.9227 12.3442 47.168L11.6883 50.576C11.6563 50.736 11.6403 50.8747 11.6403 50.992C11.6403 51.3013 11.7363 51.456 11.9283 51.456C12.1736 51.456 12.5096 51.232 12.9363 50.784C12.9469 50.7733 12.9629 50.768 12.9843 50.768C13.0269 50.768 13.0589 50.7893 13.0802 50.832C13.1016 50.864 13.0962 50.8907 13.0642 50.912C12.7122 51.328 12.3869 51.6373 12.0883 51.84C11.8003 52.0427 11.5176 52.144 11.2402 52.144ZM12.2642 43.856C12.0296 43.856 11.8429 43.792 11.7043 43.664C11.5763 43.5253 11.5122 43.3387 11.5122 43.104C11.5122 42.88 11.5763 42.704 11.7043 42.576C11.8429 42.448 12.0296 42.384 12.2642 42.384C12.4989 42.384 12.6803 42.448 12.8083 42.576C12.9469 42.704 13.0163 42.88 13.0163 43.104C13.0163 43.3387 12.9523 43.5253 12.8243 43.664C12.6963 43.792 12.5096 43.856 12.2642 43.856Z" fill="#144970"/>
<path d="M23.9134 50.768C23.9347 50.7467 23.956 50.736 23.9774 50.736C24.0094 50.736 24.036 50.7573 24.0574 50.8C24.0787 50.832 24.0734 50.864 24.0414 50.896C23.6787 51.3227 23.3534 51.6373 23.0654 51.84C22.788 52.0427 22.5107 52.144 22.2334 52.144C22.02 52.144 21.8654 52.0853 21.7694 51.968C21.6734 51.84 21.6254 51.6427 21.6254 51.376C21.6254 51.1947 21.652 50.928 21.7054 50.576L22.1694 48.032C22.2227 47.68 22.2494 47.4027 22.2494 47.2C22.2494 46.624 22.0627 46.336 21.6894 46.336C21.38 46.336 21.0547 46.5387 20.7134 46.944C20.3827 47.3387 20.0627 47.9307 19.7534 48.72C19.444 49.4987 19.188 50.4267 18.9854 51.504L18.9214 51.856C18.9107 51.9413 18.852 52.0053 18.7454 52.048C18.6387 52.1013 18.4894 52.128 18.2974 52.128C18.02 52.128 17.8814 52.0907 17.8814 52.016C17.892 51.952 17.924 51.7867 17.9774 51.52C18.0414 51.2533 18.0894 51.0187 18.1214 50.816L18.6494 48.016C18.692 47.76 18.7134 47.504 18.7134 47.248C18.7134 46.64 18.5267 46.336 18.1534 46.336C17.844 46.336 17.5134 46.5493 17.1614 46.976C16.82 47.4027 16.4947 48.0213 16.1854 48.832C15.876 49.6427 15.6254 50.592 15.4334 51.68L15.4014 51.856C15.348 52.0373 15.1347 52.128 14.7614 52.128C14.484 52.128 14.3454 52.0907 14.3454 52.016L14.4254 51.648L14.5854 50.864L15.2414 47.248C15.2734 47.088 15.2894 46.9547 15.2894 46.848C15.2894 46.5173 15.188 46.352 14.9854 46.352C14.7294 46.352 14.3774 46.5867 13.9294 47.056C13.9187 47.0667 13.9027 47.072 13.8814 47.072C13.8494 47.072 13.8227 47.056 13.8014 47.024C13.78 46.9813 13.78 46.9493 13.8014 46.928C14.164 46.5013 14.5 46.1867 14.8094 45.984C15.1187 45.7813 15.4174 45.68 15.7054 45.68C15.9187 45.68 16.0734 45.744 16.1694 45.872C16.2654 45.9893 16.3134 46.1813 16.3134 46.448C16.3134 46.608 16.2867 46.848 16.2334 47.168L15.9454 48.832C16.308 47.8187 16.7347 47.0293 17.2254 46.464C17.7267 45.8987 18.244 45.616 18.7774 45.616C19.4387 45.616 19.7694 46.0267 19.7694 46.848C19.7694 47.0827 19.7374 47.3707 19.6734 47.712L19.4654 48.848C19.8387 47.824 20.2707 47.0293 20.7614 46.464C21.2627 45.8987 21.78 45.616 22.3134 45.616C22.964 45.616 23.2894 46.0213 23.2894 46.832C23.2894 47.088 23.2574 47.3867 23.1934 47.728L22.6814 50.576C22.6494 50.736 22.6334 50.8747 22.6334 50.992C22.6334 51.3013 22.7294 51.456 22.9214 51.456C23.028 51.456 23.1614 51.3973 23.3214 51.28C23.4814 51.1627 23.6787 50.992 23.9134 50.768Z" fill="#144970"/>
<path d="M29.7808 45.616C30.1861 45.616 30.5061 45.7707 30.7408 46.08C30.9754 46.3893 31.0928 46.8 31.0928 47.312C31.0928 47.5467 31.0714 47.7707 31.0288 47.984C30.8581 48.848 30.5274 49.6 30.0368 50.24C29.5568 50.88 29.0128 51.3707 28.4048 51.712C27.7968 52.0427 27.2314 52.208 26.7087 52.208C26.2074 52.208 25.8074 52.1013 25.5088 51.888C25.2101 51.664 25.0608 51.3707 25.0608 51.008C25.0608 50.944 25.0714 50.848 25.0928 50.72L26.6768 42.24C26.6981 42.144 26.7087 42.0213 26.7087 41.872C26.7087 41.5733 26.5967 41.424 26.3727 41.424C26.2021 41.424 25.9514 41.504 25.6208 41.664H25.6047C25.5621 41.664 25.5301 41.6373 25.5088 41.584C25.4981 41.52 25.5141 41.4827 25.5567 41.472L27.7488 40.4H27.7808C27.8234 40.4 27.8607 40.416 27.8927 40.448C27.9354 40.48 27.9514 40.5067 27.9408 40.528L26.5168 48.448C26.8794 47.6053 27.3541 46.9227 27.9408 46.4C28.5381 45.8773 29.1514 45.616 29.7808 45.616ZM29.8127 48.48C29.8767 48.192 29.9088 47.9147 29.9088 47.648C29.9088 47.2747 29.8341 46.9813 29.6847 46.768C29.5461 46.5547 29.3274 46.448 29.0287 46.448C28.6021 46.448 28.1967 46.6187 27.8127 46.96C27.4287 47.2907 27.0874 47.76 26.7887 48.368C26.5007 48.976 26.2874 49.6747 26.1488 50.464C26.1381 50.5173 26.1327 50.592 26.1327 50.688C26.1327 51.0187 26.2448 51.2853 26.4688 51.488C26.6927 51.6907 26.9861 51.792 27.3488 51.792C27.6901 51.792 28.0261 51.6587 28.3568 51.392C28.6981 51.1253 28.9968 50.7413 29.2528 50.24C29.5088 49.7387 29.6954 49.152 29.8127 48.48Z" fill="#144970"/>
<path d="M35.5796 45.616C35.953 45.616 36.241 45.6853 36.4436 45.824C36.6463 45.952 36.7476 46.128 36.7476 46.352C36.7476 46.8533 36.3796 47.312 35.6436 47.728C34.9183 48.1333 34.0383 48.4267 33.0036 48.608C32.961 48.864 32.9396 49.1413 32.9396 49.44C32.9396 50.0907 33.0783 50.6133 33.3556 51.008C33.6436 51.4027 34.0596 51.6 34.6036 51.6C35.1903 51.6 35.7076 51.424 36.1556 51.072H36.1716C36.2036 51.072 36.2303 51.088 36.2516 51.12C36.2836 51.152 36.289 51.184 36.2676 51.216C35.5103 51.8667 34.7156 52.192 33.8836 52.192C33.1796 52.192 32.6516 51.9733 32.2996 51.536C31.9476 51.0987 31.7716 50.5333 31.7716 49.84C31.7716 49.6053 31.7983 49.3387 31.8516 49.04C31.9583 48.4853 32.1876 47.9467 32.5396 47.424C32.9023 46.8907 33.3503 46.4587 33.8836 46.128C34.417 45.7867 34.9823 45.616 35.5796 45.616ZM35.4836 46.816C35.505 46.7093 35.5156 46.64 35.5156 46.608C35.5156 46.4267 35.4463 46.288 35.3076 46.192C35.1796 46.096 35.0196 46.048 34.8276 46.048C34.3903 46.048 34.017 46.2667 33.7076 46.704C33.3983 47.1307 33.1743 47.6907 33.0356 48.384C34.5076 48.1067 35.3236 47.584 35.4836 46.816Z" fill="#144970"/>
<path d="M41.5905 45.68C41.8145 45.68 42.0278 45.76 42.2305 45.92C42.4332 46.08 42.5345 46.2667 42.5345 46.48C42.5345 46.64 42.4758 46.784 42.3585 46.912C42.2518 47.0293 42.1132 47.088 41.9425 47.088C41.8252 47.088 41.7292 47.0667 41.6545 47.024C41.5798 46.9707 41.4998 46.896 41.4145 46.8C41.3612 46.7467 41.3025 46.6987 41.2385 46.656C41.1852 46.6027 41.1212 46.576 41.0465 46.576C40.8332 46.576 40.5718 46.88 40.2625 47.488C39.9638 48.0853 39.6758 48.8053 39.3985 49.648C39.1318 50.48 38.9345 51.216 38.8065 51.856C38.7852 51.9413 38.7212 52.0053 38.6145 52.048C38.5078 52.1013 38.3638 52.128 38.1825 52.128C37.9052 52.128 37.7665 52.0907 37.7665 52.016C37.7772 51.952 37.8092 51.7867 37.8625 51.52C37.9265 51.2533 37.9745 51.0187 38.0065 50.816L38.5825 47.664C38.6252 47.4187 38.6465 47.1947 38.6465 46.992C38.6465 46.5653 38.5292 46.352 38.2945 46.352C38.0705 46.352 37.7558 46.5547 37.3505 46.96C37.3398 46.9707 37.3238 46.976 37.3025 46.976C37.2705 46.976 37.2438 46.96 37.2225 46.928C37.2012 46.8853 37.2012 46.8533 37.2225 46.832C37.5638 46.4373 37.8785 46.1493 38.1665 45.968C38.4545 45.776 38.7372 45.68 39.0145 45.68C39.2385 45.68 39.4038 45.7493 39.5105 45.888C39.6172 46.0267 39.6705 46.2613 39.6705 46.592C39.6705 46.848 39.6385 47.1787 39.5745 47.584L39.2385 49.456C39.5798 48.3573 39.9532 47.456 40.3585 46.752C40.7745 46.0373 41.1852 45.68 41.5905 45.68Z" fill="#144970"/>
<path d="M43.9061 52.144C43.6928 52.144 43.5328 52.08 43.4261 51.952C43.3195 51.824 43.2661 51.6267 43.2661 51.36C43.2661 51.1573 43.2981 50.896 43.3621 50.576L44.8981 42.24C44.9301 42.08 44.9461 41.9467 44.9461 41.84C44.9461 41.5627 44.8395 41.424 44.6261 41.424C44.4555 41.424 44.2101 41.504 43.8901 41.664H43.8741C43.8208 41.664 43.7835 41.6373 43.7621 41.584C43.7515 41.52 43.7675 41.4827 43.8101 41.472L46.0181 40.4H46.0501C46.0928 40.4 46.1301 40.416 46.1621 40.448C46.1941 40.48 46.2048 40.5067 46.1941 40.528L44.3541 50.576C44.3221 50.736 44.3061 50.8747 44.3061 50.992C44.3061 51.3013 44.4021 51.456 44.5941 51.456C44.7008 51.456 44.8341 51.3973 44.9941 51.28C45.1541 51.1627 45.3515 50.992 45.5861 50.768C45.6075 50.7467 45.6288 50.736 45.6501 50.736C45.6821 50.736 45.7088 50.7573 45.7301 50.8C45.7515 50.832 45.7461 50.864 45.7141 50.896C45.3515 51.3227 45.0261 51.6373 44.7381 51.84C44.4608 52.0427 44.1835 52.144 43.9061 52.144Z" fill="#144970"/>
<path d="M52.1659 45.664C52.3899 45.664 52.5605 45.7493 52.6779 45.92C52.7952 46.0907 52.8539 46.3253 52.8539 46.624C52.8539 47.4667 52.4325 48.6933 51.5899 50.304C50.7579 51.9147 49.7979 53.3493 48.7099 54.608C47.6219 55.8667 46.7205 56.496 46.0059 56.496C45.7819 56.496 45.6005 56.4427 45.4619 56.336C45.3232 56.24 45.2539 56.0853 45.2539 55.872L45.2699 55.728C45.3552 55.376 45.6005 55.2 46.0059 55.2C46.1125 55.2 46.2832 55.2107 46.5179 55.232C46.7312 55.2533 46.8912 55.264 46.9979 55.264C47.3499 55.264 47.6432 55.1733 47.8779 54.992C48.1872 54.7893 48.5925 54.3467 49.0939 53.664L49.1099 52.832C49.1099 50.8053 48.9499 49.2373 48.6299 48.128C48.3205 47.008 47.8939 46.448 47.3499 46.448C47.2112 46.448 47.0725 46.496 46.9339 46.592C46.7952 46.688 46.6779 46.8267 46.5819 47.008C46.5712 47.04 46.5392 47.056 46.4859 47.056C46.4112 47.056 46.3792 47.024 46.3899 46.96C46.5819 46.5547 46.8219 46.24 47.1099 46.016C47.3979 45.792 47.6912 45.68 47.9899 45.68C48.4272 45.68 48.8005 45.9307 49.1099 46.432C49.4299 46.9333 49.6699 47.6213 49.8299 48.496C50.0005 49.36 50.0859 50.3307 50.0859 51.408C50.0859 51.7813 50.0805 52.064 50.0699 52.256C50.5072 51.5733 50.8912 50.9013 51.2219 50.24C51.5632 49.5787 51.7819 49.072 51.8779 48.72C51.9312 48.4533 51.9579 48.24 51.9579 48.08C51.9579 47.856 51.9312 47.6533 51.8779 47.472C51.8245 47.2907 51.7499 47.0933 51.6539 46.88C51.6112 46.7733 51.5685 46.672 51.5259 46.576C51.4939 46.4693 51.4779 46.3733 51.4779 46.288C51.4779 46.1067 51.5419 45.9573 51.6699 45.84C51.7979 45.7227 51.9632 45.664 52.1659 45.664Z" fill="#144970"/>
<path d="M53.9465 49.344C53.8932 49.3547 53.8665 49.2 53.8665 48.88C53.8665 48.6987 53.8772 48.6027 53.8985 48.592L57.8825 47.856C57.9038 47.8453 57.9198 47.888 57.9305 47.984C57.9518 48.08 57.9625 48.1813 57.9625 48.288C57.9625 48.4907 57.9465 48.592 57.9145 48.592L53.9465 49.344Z" fill="#144970"/>
<path d="M67.8135 51.808C67.8562 51.808 67.8775 51.84 67.8775 51.904C67.8775 51.968 67.8562 52 67.8135 52H65.8775C65.6215 52 65.2535 51.552 64.7735 50.656C64.2935 49.7493 63.7602 48.464 63.1735 46.8C62.8322 46.8853 62.5068 46.928 62.1975 46.928C62.0802 46.928 61.9468 46.9173 61.7975 46.896L61.1095 50.704C61.0668 50.9067 61.0455 51.0827 61.0455 51.232C61.0455 51.456 61.1148 51.6107 61.2535 51.696C61.4028 51.7707 61.6695 51.808 62.0535 51.808C62.0962 51.808 62.1175 51.84 62.1175 51.904C62.1175 51.968 62.1015 52 62.0695 52C61.7602 52 61.5148 51.9947 61.3335 51.984L60.3255 51.968L59.3015 51.984C59.1202 51.9947 58.8695 52 58.5495 52C58.5068 52 58.4855 51.968 58.4855 51.904C58.4855 51.84 58.5068 51.808 58.5495 51.808C58.9015 51.808 59.1682 51.7813 59.3495 51.728C59.5308 51.664 59.6642 51.5573 59.7495 51.408C59.8455 51.2587 59.9255 51.024 59.9895 50.704L61.2855 43.296C61.3282 43.1147 61.3495 42.9387 61.3495 42.768C61.3495 42.544 61.2748 42.3947 61.1255 42.32C60.9868 42.2347 60.7202 42.192 60.3255 42.192C60.2828 42.192 60.2615 42.16 60.2615 42.096C60.2615 42.032 60.2828 42 60.3255 42L61.0615 42.016C61.4668 42.0373 61.7975 42.048 62.0535 42.048C62.2348 42.048 62.4002 42.0427 62.5495 42.032C62.7095 42.0213 62.8482 42.0107 62.9655 42C63.2642 41.968 63.5308 41.952 63.7655 41.952C64.5122 41.952 65.0828 42.0907 65.4775 42.368C65.8722 42.6347 66.0695 43.0133 66.0695 43.504C66.0695 44.08 65.8828 44.6293 65.5095 45.152C65.1468 45.6747 64.6722 46.096 64.0855 46.416C64.6508 47.792 65.1362 48.864 65.5415 49.632C65.9575 50.4 66.3415 50.9547 66.6935 51.296C67.0562 51.6373 67.4295 51.808 67.8135 51.808ZM61.8615 46.48C62.1388 46.5227 62.3575 46.544 62.5175 46.544C63.1895 46.544 63.6962 46.384 64.0375 46.064C64.3895 45.744 64.6242 45.2213 64.7415 44.496C64.7842 44.2507 64.8055 44 64.8055 43.744C64.8055 43.2213 64.6882 42.8373 64.4535 42.592C64.2188 42.3467 63.8988 42.224 63.4935 42.224C63.2268 42.224 63.0348 42.2453 62.9175 42.288C62.8002 42.32 62.7042 42.4107 62.6295 42.56C62.5548 42.7093 62.4855 42.9653 62.4215 43.328L61.8615 46.48Z" fill="#144970"/>
<path d="M70.4141 52.224C69.7528 52.224 69.2408 52 68.8781 51.552C68.5261 51.0933 68.3501 50.5013 68.3501 49.776C68.3501 49.5413 68.3768 49.2533 68.4301 48.912C68.5475 48.2827 68.7715 47.7173 69.1021 47.216C69.4435 46.7147 69.8541 46.3253 70.3341 46.048C70.8141 45.76 71.3208 45.616 71.8541 45.616C72.5368 45.616 73.0595 45.84 73.4221 46.288C73.7955 46.7253 73.9821 47.3067 73.9821 48.032C73.9821 48.3093 73.9501 48.6027 73.8861 48.912C73.7475 49.584 73.4968 50.1707 73.1341 50.672C72.7821 51.1733 72.3661 51.5573 71.8861 51.824C71.4061 52.0907 70.9155 52.224 70.4141 52.224ZM70.9741 51.824C71.3901 51.824 71.7581 51.6267 72.0781 51.232C72.4088 50.8373 72.6381 50.2987 72.7661 49.616C72.8301 49.2747 72.8621 48.9387 72.8621 48.608C72.8621 47.8827 72.7288 47.2693 72.4621 46.768C72.2061 46.256 71.8381 46 71.3581 46C70.9528 46 70.5848 46.1973 70.2541 46.592C69.9235 46.9867 69.6941 47.5307 69.5661 48.224C69.4915 48.6293 69.4541 48.9867 69.4541 49.296C69.4541 50.0107 69.5875 50.6133 69.8541 51.104C70.1315 51.584 70.5048 51.824 70.9741 51.824Z" fill="#144970"/>
<path d="M76.004 52.176C75.5987 52.176 75.2413 52.0853 74.932 51.904C74.6333 51.712 74.484 51.488 74.484 51.232C74.484 51.04 74.5373 50.8907 74.644 50.784C74.7613 50.6773 74.9 50.624 75.06 50.624C75.1773 50.624 75.2733 50.6613 75.348 50.736C75.4227 50.8 75.5133 50.9173 75.62 51.088C75.7373 51.3013 75.8653 51.4667 76.004 51.584C76.1427 51.7013 76.3347 51.76 76.58 51.76C77.092 51.76 77.3853 51.472 77.46 50.896C77.4707 50.8533 77.476 50.784 77.476 50.688C77.476 50.3787 77.3853 50.112 77.204 49.888C77.0333 49.664 76.7667 49.4027 76.404 49.104C76.052 48.816 75.7853 48.56 75.604 48.336C75.4227 48.112 75.332 47.8453 75.332 47.536C75.332 47.1947 75.4333 46.88 75.636 46.592C75.8493 46.304 76.1267 46.08 76.468 45.92C76.82 45.7493 77.188 45.664 77.572 45.664C77.988 45.664 78.3293 45.744 78.596 45.904C78.8627 46.064 78.98 46.2667 78.948 46.512C78.916 46.672 78.8467 46.8 78.74 46.896C78.6333 46.9813 78.516 47.024 78.388 47.024C78.228 47.024 78.1053 46.9867 78.02 46.912C77.9347 46.8373 77.844 46.7253 77.748 46.576C77.6413 46.4053 77.5293 46.2773 77.412 46.192C77.3053 46.096 77.1507 46.048 76.948 46.048C76.7453 46.048 76.5747 46.1013 76.436 46.208C76.308 46.3147 76.2333 46.4587 76.212 46.64C76.2013 46.6827 76.196 46.752 76.196 46.848C76.196 47.136 76.2813 47.392 76.452 47.616C76.6333 47.84 76.8947 48.096 77.236 48.384C77.6093 48.704 77.8867 48.9867 78.068 49.232C78.26 49.4667 78.356 49.744 78.356 50.064C78.356 50.384 78.2493 50.7093 78.036 51.04C77.8333 51.3707 77.5507 51.6427 77.188 51.856C76.836 52.0693 76.4413 52.176 76.004 52.176Z" fill="#144970"/>
<path d="M83.4546 45.616C83.828 45.616 84.116 45.6853 84.3186 45.824C84.5213 45.952 84.6226 46.128 84.6226 46.352C84.6226 46.8533 84.2546 47.312 83.5186 47.728C82.7933 48.1333 81.9133 48.4267 80.8786 48.608C80.836 48.864 80.8146 49.1413 80.8146 49.44C80.8146 50.0907 80.9533 50.6133 81.2306 51.008C81.5186 51.4027 81.9346 51.6 82.4786 51.6C83.0653 51.6 83.5826 51.424 84.0306 51.072H84.0466C84.0786 51.072 84.1053 51.088 84.1266 51.12C84.1586 51.152 84.164 51.184 84.1426 51.216C83.3853 51.8667 82.5906 52.192 81.7586 52.192C81.0546 52.192 80.5266 51.9733 80.1746 51.536C79.8226 51.0987 79.6466 50.5333 79.6466 49.84C79.6466 49.6053 79.6733 49.3387 79.7266 49.04C79.8333 48.4853 80.0626 47.9467 80.4146 47.424C80.7773 46.8907 81.2253 46.4587 81.7586 46.128C82.292 45.7867 82.8573 45.616 83.4546 45.616ZM83.3586 46.816C83.38 46.7093 83.3906 46.64 83.3906 46.608C83.3906 46.4267 83.3213 46.288 83.1826 46.192C83.0546 46.096 82.8946 46.048 82.7026 46.048C82.2653 46.048 81.892 46.2667 81.5826 46.704C81.2733 47.1307 81.0493 47.6907 80.9106 48.384C82.3826 48.1067 83.1986 47.584 83.3586 46.816Z" fill="#144970"/>
<path d="M96.7035 42C96.7888 42 96.8208 42.048 96.7995 42.144L96.6715 43.008L96.4795 44.176C96.4795 44.208 96.4528 44.224 96.3995 44.224C96.3782 44.224 96.3515 44.2187 96.3195 44.208C96.2982 44.1867 96.2875 44.1707 96.2875 44.16C96.3302 43.5947 96.2182 43.1413 95.9515 42.8C95.6848 42.448 95.3062 42.272 94.8155 42.272H93.8235C93.4928 42.272 93.2475 42.2987 93.0875 42.352C92.9382 42.4053 92.8262 42.5013 92.7515 42.64C92.6768 42.7787 92.6128 43.0027 92.5595 43.312L91.9835 46.608H94.0955C94.5328 46.608 94.8635 46.5227 95.0875 46.352C95.3115 46.1813 95.4608 45.8827 95.5355 45.456C95.5355 45.424 95.5675 45.408 95.6315 45.408C95.6528 45.408 95.6742 45.4187 95.6955 45.44C95.7275 45.4507 95.7382 45.4667 95.7275 45.488C95.6955 45.7227 95.6475 45.968 95.5835 46.224C95.5408 46.384 95.5035 46.576 95.4715 46.8L95.3915 47.296C95.3595 47.6267 95.3062 47.9733 95.2315 48.336C95.2208 48.3787 95.1835 48.4 95.1195 48.4C95.0555 48.3893 95.0288 48.3627 95.0395 48.32C95.0715 48.16 95.0875 48.016 95.0875 47.888C95.0875 47.568 94.9968 47.3387 94.8155 47.2C94.6342 47.0507 94.3568 46.976 93.9835 46.976H91.9195L91.2635 50.64C91.2315 50.832 91.2155 50.992 91.2155 51.12C91.2155 51.344 91.2795 51.4987 91.4075 51.584C91.5462 51.6587 91.7968 51.696 92.1595 51.696H93.4875C93.9568 51.696 94.4155 51.504 94.8635 51.12C95.3115 50.7253 95.6742 50.208 95.9515 49.568C95.9728 49.536 96.0102 49.5253 96.0635 49.536C96.1275 49.5467 96.1488 49.568 96.1275 49.6C95.9355 50.2187 95.7648 50.9387 95.6155 51.76C95.5942 51.856 95.5675 51.92 95.5355 51.952C95.5035 51.984 95.4448 52 95.3595 52H88.8155C88.7942 52 88.7835 51.968 88.7835 51.904C88.7835 51.84 88.7942 51.808 88.8155 51.808C89.1462 51.808 89.3915 51.7813 89.5515 51.728C89.7115 51.6747 89.8288 51.5733 89.9035 51.424C89.9888 51.2747 90.0635 51.0347 90.1275 50.704L91.4235 43.296C91.4662 43.1147 91.4875 42.9387 91.4875 42.768C91.4875 42.544 91.4182 42.3947 91.2795 42.32C91.1408 42.2347 90.8902 42.192 90.5275 42.192C90.4955 42.192 90.4795 42.16 90.4795 42.096C90.4795 42.032 90.4955 42 90.5275 42H96.7035Z" fill="#144970"/>
<path d="M103.944 50.768C103.965 50.7467 103.981 50.736 103.992 50.736C104.024 50.736 104.051 50.7573 104.072 50.8C104.093 50.832 104.093 50.864 104.072 50.896C103.709 51.3227 103.384 51.6373 103.096 51.84C102.808 52.0427 102.525 52.144 102.248 52.144C102.035 52.144 101.88 52.0853 101.784 51.968C101.688 51.84 101.64 51.6373 101.64 51.36C101.64 51.1787 101.667 50.9173 101.72 50.576L102.184 48.032C102.248 47.712 102.28 47.4347 102.28 47.2C102.28 46.624 102.072 46.336 101.656 46.336C101.315 46.336 100.963 46.5547 100.6 46.992C100.237 47.4293 99.896 48.064 99.576 48.896C99.256 49.728 98.9947 50.7147 98.792 51.856C98.7707 51.9413 98.7067 52.0053 98.6 52.048C98.4933 52.1013 98.3493 52.128 98.168 52.128C97.88 52.128 97.736 52.0907 97.736 52.016L97.8 51.696C97.896 51.2373 97.9547 50.944 97.976 50.816L98.632 47.248C98.664 47.088 98.68 46.9547 98.68 46.848C98.68 46.5173 98.5787 46.352 98.376 46.352C98.12 46.352 97.768 46.5867 97.32 47.056C97.3093 47.0667 97.2933 47.072 97.272 47.072C97.24 47.072 97.2133 47.056 97.192 47.024C97.1707 46.9813 97.1707 46.9493 97.192 46.928C97.5547 46.5013 97.8907 46.1867 98.2 45.984C98.5093 45.7813 98.808 45.68 99.096 45.68C99.3093 45.68 99.464 45.744 99.56 45.872C99.656 45.9893 99.704 46.1813 99.704 46.448C99.704 46.608 99.6773 46.848 99.624 47.168L99.304 48.928C99.688 47.8827 100.136 47.072 100.648 46.496C101.16 45.9093 101.699 45.616 102.264 45.616C102.616 45.616 102.877 45.7173 103.048 45.92C103.229 46.1227 103.32 46.432 103.32 46.848C103.32 47.0933 103.288 47.3867 103.224 47.728L102.696 50.576C102.664 50.736 102.648 50.8693 102.648 50.976C102.648 51.296 102.749 51.456 102.952 51.456C103.059 51.456 103.192 51.3973 103.352 51.28C103.512 51.1627 103.709 50.992 103.944 50.768Z" fill="#144970"/>
<path d="M110.439 45.696C110.492 45.696 110.519 45.7653 110.519 45.904C110.519 46.0533 110.492 46.208 110.439 46.368C110.396 46.5173 110.353 46.5813 110.311 46.56C110.001 46.368 109.601 46.2827 109.111 46.304C109.335 46.624 109.447 47.008 109.447 47.456C109.447 47.68 109.425 47.8827 109.383 48.064C109.287 48.5333 109.1 48.9493 108.823 49.312C108.545 49.664 108.215 49.9413 107.831 50.144C107.457 50.336 107.073 50.432 106.679 50.432C106.583 50.432 106.46 50.4213 106.311 50.4C106.193 50.5707 106.135 50.752 106.135 50.944C106.135 51.1893 106.247 51.4027 106.471 51.584C106.695 51.7547 107.047 51.9627 107.527 52.208C108.124 52.496 108.583 52.7787 108.903 53.056C109.233 53.3333 109.399 53.6907 109.399 54.128C109.399 54.5547 109.239 54.9493 108.919 55.312C108.609 55.6747 108.193 55.9627 107.671 56.176C107.148 56.3893 106.583 56.496 105.975 56.496C105.217 56.496 104.62 56.3413 104.183 56.032C103.745 55.7227 103.527 55.344 103.527 54.896C103.527 54.4373 103.724 54.0213 104.119 53.648C104.503 53.2747 105.057 52.8907 105.783 52.496C105.399 52.2293 105.207 51.936 105.207 51.616C105.207 51.5413 105.212 51.488 105.223 51.456C105.265 51.2747 105.356 51.0987 105.495 50.928C105.633 50.7467 105.825 50.5493 106.071 50.336C105.729 50.2187 105.468 50.0107 105.287 49.712C105.105 49.4133 105.015 49.056 105.015 48.64C105.015 48.512 105.036 48.32 105.079 48.064C105.207 47.392 105.527 46.8373 106.039 46.4C106.561 45.952 107.148 45.728 107.799 45.728C108.236 45.728 108.599 45.8453 108.887 46.08C109.452 45.824 109.969 45.696 110.439 45.696ZM108.359 48.4C108.38 48.2827 108.391 48.1013 108.391 47.856C108.391 47.3547 108.311 46.928 108.151 46.576C107.991 46.2133 107.745 46.032 107.415 46.032C107.116 46.032 106.844 46.1973 106.599 46.528C106.353 46.8587 106.193 47.2693 106.119 47.76C106.087 47.9627 106.071 48.1653 106.071 48.368C106.071 48.8587 106.161 49.2747 106.343 49.616C106.524 49.9467 106.769 50.112 107.079 50.112C107.377 50.112 107.644 49.9573 107.879 49.648C108.124 49.3387 108.284 48.9227 108.359 48.4ZM108.455 54.752C108.455 54.368 108.305 54.0533 108.007 53.808C107.719 53.5733 107.287 53.3067 106.711 53.008C106.391 52.8587 106.14 52.7253 105.959 52.608C105.532 52.8747 105.196 53.1413 104.951 53.408C104.716 53.6853 104.599 54.0213 104.599 54.416C104.599 54.8853 104.796 55.2693 105.191 55.568C105.596 55.8773 106.119 56.032 106.759 56.032C107.303 56.032 107.719 55.9093 108.007 55.664C108.305 55.4187 108.455 55.1147 108.455 54.752Z" fill="#144970"/>
<path d="M112.084 52.144C111.657 52.144 111.444 51.8827 111.444 51.36C111.444 51.136 111.476 50.8747 111.54 50.576L112.196 47.248C112.228 47.088 112.244 46.9493 112.244 46.832C112.244 46.512 112.143 46.352 111.94 46.352C111.823 46.352 111.673 46.416 111.492 46.544C111.311 46.6613 111.113 46.832 110.9 47.056C110.889 47.0667 110.873 47.072 110.852 47.072C110.82 47.072 110.788 47.056 110.756 47.024C110.735 46.9813 110.74 46.9493 110.772 46.928C111.476 46.096 112.1 45.68 112.644 45.68C112.857 45.68 113.012 45.744 113.108 45.872C113.215 45.9893 113.268 46.176 113.268 46.432C113.268 46.6773 113.241 46.9227 113.188 47.168L112.532 50.576C112.5 50.736 112.484 50.8747 112.484 50.992C112.484 51.3013 112.58 51.456 112.772 51.456C113.017 51.456 113.353 51.232 113.78 50.784C113.791 50.7733 113.807 50.768 113.828 50.768C113.871 50.768 113.903 50.7893 113.924 50.832C113.945 50.864 113.94 50.8907 113.908 50.912C113.556 51.328 113.231 51.6373 112.932 51.84C112.644 52.0427 112.361 52.144 112.084 52.144ZM113.108 43.856C112.873 43.856 112.687 43.792 112.548 43.664C112.42 43.5253 112.356 43.3387 112.356 43.104C112.356 42.88 112.42 42.704 112.548 42.576C112.687 42.448 112.873 42.384 113.108 42.384C113.343 42.384 113.524 42.448 113.652 42.576C113.791 42.704 113.86 42.88 113.86 43.104C113.86 43.3387 113.796 43.5253 113.668 43.664C113.54 43.792 113.353 43.856 113.108 43.856Z" fill="#144970"/>
<path d="M121.397 50.768C121.418 50.7467 121.434 50.736 121.445 50.736C121.477 50.736 121.504 50.7573 121.525 50.8C121.546 50.832 121.546 50.864 121.525 50.896C121.162 51.3227 120.837 51.6373 120.549 51.84C120.261 52.0427 119.978 52.144 119.701 52.144C119.488 52.144 119.333 52.0853 119.237 51.968C119.141 51.84 119.093 51.6373 119.093 51.36C119.093 51.1787 119.12 50.9173 119.173 50.576L119.637 48.032C119.701 47.712 119.733 47.4347 119.733 47.2C119.733 46.624 119.525 46.336 119.109 46.336C118.768 46.336 118.416 46.5547 118.053 46.992C117.69 47.4293 117.349 48.064 117.029 48.896C116.709 49.728 116.448 50.7147 116.245 51.856C116.224 51.9413 116.16 52.0053 116.053 52.048C115.946 52.1013 115.802 52.128 115.621 52.128C115.333 52.128 115.189 52.0907 115.189 52.016L115.253 51.696C115.349 51.2373 115.408 50.944 115.429 50.816L116.085 47.248C116.117 47.088 116.133 46.9547 116.133 46.848C116.133 46.5173 116.032 46.352 115.829 46.352C115.573 46.352 115.221 46.5867 114.773 47.056C114.762 47.0667 114.746 47.072 114.725 47.072C114.693 47.072 114.666 47.056 114.645 47.024C114.624 46.9813 114.624 46.9493 114.645 46.928C115.008 46.5013 115.344 46.1867 115.653 45.984C115.962 45.7813 116.261 45.68 116.549 45.68C116.762 45.68 116.917 45.744 117.013 45.872C117.109 45.9893 117.157 46.1813 117.157 46.448C117.157 46.608 117.13 46.848 117.077 47.168L116.757 48.928C117.141 47.8827 117.589 47.072 118.101 46.496C118.613 45.9093 119.152 45.616 119.717 45.616C120.069 45.616 120.33 45.7173 120.501 45.92C120.682 46.1227 120.773 46.432 120.773 46.848C120.773 47.0933 120.741 47.3867 120.677 47.728L120.149 50.576C120.117 50.736 120.101 50.8693 120.101 50.976C120.101 51.296 120.202 51.456 120.405 51.456C120.512 51.456 120.645 51.3973 120.805 51.28C120.965 51.1627 121.162 50.992 121.397 50.768Z" fill="#144970"/>
<path d="M126.095 45.616C126.469 45.616 126.757 45.6853 126.959 45.824C127.162 45.952 127.263 46.128 127.263 46.352C127.263 46.8533 126.895 47.312 126.159 47.728C125.434 48.1333 124.554 48.4267 123.519 48.608C123.477 48.864 123.455 49.1413 123.455 49.44C123.455 50.0907 123.594 50.6133 123.871 51.008C124.159 51.4027 124.575 51.6 125.119 51.6C125.706 51.6 126.223 51.424 126.671 51.072H126.687C126.719 51.072 126.746 51.088 126.767 51.12C126.799 51.152 126.805 51.184 126.783 51.216C126.026 51.8667 125.231 52.192 124.399 52.192C123.695 52.192 123.167 51.9733 122.815 51.536C122.463 51.0987 122.287 50.5333 122.287 49.84C122.287 49.6053 122.314 49.3387 122.367 49.04C122.474 48.4853 122.703 47.9467 123.055 47.424C123.418 46.8907 123.866 46.4587 124.399 46.128C124.933 45.7867 125.498 45.616 126.095 45.616ZM125.999 46.816C126.021 46.7093 126.031 46.64 126.031 46.608C126.031 46.4267 125.962 46.288 125.823 46.192C125.695 46.096 125.535 46.048 125.343 46.048C124.906 46.048 124.533 46.2667 124.223 46.704C123.914 47.1307 123.69 47.6907 123.551 48.384C125.023 48.1067 125.839 47.584 125.999 46.816Z" fill="#144970"/>
<path d="M131.642 45.616C132.015 45.616 132.303 45.6853 132.506 45.824C132.709 45.952 132.81 46.128 132.81 46.352C132.81 46.8533 132.442 47.312 131.706 47.728C130.981 48.1333 130.101 48.4267 129.066 48.608C129.023 48.864 129.002 49.1413 129.002 49.44C129.002 50.0907 129.141 50.6133 129.418 51.008C129.706 51.4027 130.122 51.6 130.666 51.6C131.253 51.6 131.77 51.424 132.218 51.072H132.234C132.266 51.072 132.293 51.088 132.314 51.12C132.346 51.152 132.351 51.184 132.33 51.216C131.573 51.8667 130.778 52.192 129.946 52.192C129.242 52.192 128.714 51.9733 128.362 51.536C128.01 51.0987 127.834 50.5333 127.834 49.84C127.834 49.6053 127.861 49.3387 127.914 49.04C128.021 48.4853 128.25 47.9467 128.602 47.424C128.965 46.8907 129.413 46.4587 129.946 46.128C130.479 45.7867 131.045 45.616 131.642 45.616ZM131.546 46.816C131.567 46.7093 131.578 46.64 131.578 46.608C131.578 46.4267 131.509 46.288 131.37 46.192C131.242 46.096 131.082 46.048 130.89 46.048C130.453 46.048 130.079 46.2667 129.77 46.704C129.461 47.1307 129.237 47.6907 129.098 48.384C130.57 48.1067 131.386 47.584 131.546 46.816Z" fill="#144970"/>
<path d="M137.653 45.68C137.877 45.68 138.09 45.76 138.293 45.92C138.496 46.08 138.597 46.2667 138.597 46.48C138.597 46.64 138.538 46.784 138.421 46.912C138.314 47.0293 138.176 47.088 138.005 47.088C137.888 47.088 137.792 47.0667 137.717 47.024C137.642 46.9707 137.562 46.896 137.477 46.8C137.424 46.7467 137.365 46.6987 137.301 46.656C137.248 46.6027 137.184 46.576 137.109 46.576C136.896 46.576 136.634 46.88 136.325 47.488C136.026 48.0853 135.738 48.8053 135.461 49.648C135.194 50.48 134.997 51.216 134.869 51.856C134.848 51.9413 134.784 52.0053 134.677 52.048C134.57 52.1013 134.426 52.128 134.245 52.128C133.968 52.128 133.829 52.0907 133.829 52.016C133.84 51.952 133.872 51.7867 133.925 51.52C133.989 51.2533 134.037 51.0187 134.069 50.816L134.645 47.664C134.688 47.4187 134.709 47.1947 134.709 46.992C134.709 46.5653 134.592 46.352 134.357 46.352C134.133 46.352 133.818 46.5547 133.413 46.96C133.402 46.9707 133.386 46.976 133.365 46.976C133.333 46.976 133.306 46.96 133.285 46.928C133.264 46.8853 133.264 46.8533 133.285 46.832C133.626 46.4373 133.941 46.1493 134.229 45.968C134.517 45.776 134.8 45.68 135.077 45.68C135.301 45.68 135.466 45.7493 135.573 45.888C135.68 46.0267 135.733 46.2613 135.733 46.592C135.733 46.848 135.701 47.1787 135.637 47.584L135.301 49.456C135.642 48.3573 136.016 47.456 136.421 46.752C136.837 46.0373 137.248 45.68 137.653 45.68Z" fill="#144970"/>
<path d="M140.225 52.144C139.798 52.144 139.585 51.8827 139.585 51.36C139.585 51.136 139.617 50.8747 139.681 50.576L140.337 47.248C140.369 47.088 140.385 46.9493 140.385 46.832C140.385 46.512 140.283 46.352 140.081 46.352C139.963 46.352 139.814 46.416 139.633 46.544C139.451 46.6613 139.254 46.832 139.041 47.056C139.03 47.0667 139.014 47.072 138.993 47.072C138.961 47.072 138.929 47.056 138.897 47.024C138.875 46.9813 138.881 46.9493 138.913 46.928C139.617 46.096 140.241 45.68 140.785 45.68C140.998 45.68 141.153 45.744 141.249 45.872C141.355 45.9893 141.409 46.176 141.409 46.432C141.409 46.6773 141.382 46.9227 141.329 47.168L140.673 50.576C140.641 50.736 140.625 50.8747 140.625 50.992C140.625 51.3013 140.721 51.456 140.913 51.456C141.158 51.456 141.494 51.232 141.921 50.784C141.931 50.7733 141.947 50.768 141.969 50.768C142.011 50.768 142.043 50.7893 142.065 50.832C142.086 50.864 142.081 50.8907 142.049 50.912C141.697 51.328 141.371 51.6373 141.073 51.84C140.785 52.0427 140.502 52.144 140.225 52.144ZM141.249 43.856C141.014 43.856 140.827 43.792 140.689 43.664C140.561 43.5253 140.497 43.3387 140.497 43.104C140.497 42.88 140.561 42.704 140.689 42.576C140.827 42.448 141.014 42.384 141.249 42.384C141.483 42.384 141.665 42.448 141.793 42.576C141.931 42.704 142.001 42.88 142.001 43.104C142.001 43.3387 141.937 43.5253 141.809 43.664C141.681 43.792 141.494 43.856 141.249 43.856Z" fill="#144970"/>
<path d="M149.538 50.768C149.559 50.7467 149.575 50.736 149.586 50.736C149.618 50.736 149.644 50.7573 149.666 50.8C149.687 50.832 149.687 50.864 149.666 50.896C149.303 51.3227 148.978 51.6373 148.69 51.84C148.402 52.0427 148.119 52.144 147.842 52.144C147.628 52.144 147.474 52.0853 147.378 51.968C147.282 51.84 147.234 51.6373 147.234 51.36C147.234 51.1787 147.26 50.9173 147.314 50.576L147.778 48.032C147.842 47.712 147.874 47.4347 147.874 47.2C147.874 46.624 147.666 46.336 147.25 46.336C146.908 46.336 146.556 46.5547 146.194 46.992C145.831 47.4293 145.49 48.064 145.17 48.896C144.85 49.728 144.588 50.7147 144.386 51.856C144.364 51.9413 144.3 52.0053 144.194 52.048C144.087 52.1013 143.943 52.128 143.762 52.128C143.474 52.128 143.33 52.0907 143.33 52.016L143.394 51.696C143.49 51.2373 143.548 50.944 143.57 50.816L144.226 47.248C144.258 47.088 144.274 46.9547 144.274 46.848C144.274 46.5173 144.172 46.352 143.97 46.352C143.714 46.352 143.362 46.5867 142.914 47.056C142.903 47.0667 142.887 47.072 142.866 47.072C142.834 47.072 142.807 47.056 142.786 47.024C142.764 46.9813 142.764 46.9493 142.786 46.928C143.148 46.5013 143.484 46.1867 143.794 45.984C144.103 45.7813 144.402 45.68 144.69 45.68C144.903 45.68 145.058 45.744 145.154 45.872C145.25 45.9893 145.298 46.1813 145.298 46.448C145.298 46.608 145.271 46.848 145.218 47.168L144.898 48.928C145.282 47.8827 145.73 47.072 146.242 46.496C146.754 45.9093 147.292 45.616 147.858 45.616C148.21 45.616 148.471 45.7173 148.642 45.92C148.823 46.1227 148.914 46.432 148.914 46.848C148.914 47.0933 148.882 47.3867 148.818 47.728L148.29 50.576C148.258 50.736 148.242 50.8693 148.242 50.976C148.242 51.296 148.343 51.456 148.546 51.456C148.652 51.456 148.786 51.3973 148.946 51.28C149.106 51.1627 149.303 50.992 149.538 50.768Z" fill="#144970"/>
<path d="M156.032 45.696C156.086 45.696 156.112 45.7653 156.112 45.904C156.112 46.0533 156.086 46.208 156.032 46.368C155.99 46.5173 155.947 46.5813 155.904 46.56C155.595 46.368 155.195 46.2827 154.704 46.304C154.928 46.624 155.04 47.008 155.04 47.456C155.04 47.68 155.019 47.8827 154.976 48.064C154.88 48.5333 154.694 48.9493 154.416 49.312C154.139 49.664 153.808 49.9413 153.424 50.144C153.051 50.336 152.667 50.432 152.272 50.432C152.176 50.432 152.054 50.4213 151.904 50.4C151.787 50.5707 151.728 50.752 151.728 50.944C151.728 51.1893 151.84 51.4027 152.064 51.584C152.288 51.7547 152.64 51.9627 153.12 52.208C153.718 52.496 154.176 52.7787 154.496 53.056C154.827 53.3333 154.992 53.6907 154.992 54.128C154.992 54.5547 154.832 54.9493 154.512 55.312C154.203 55.6747 153.787 55.9627 153.264 56.176C152.742 56.3893 152.176 56.496 151.568 56.496C150.811 56.496 150.214 56.3413 149.776 56.032C149.339 55.7227 149.12 55.344 149.12 54.896C149.12 54.4373 149.318 54.0213 149.712 53.648C150.096 53.2747 150.651 52.8907 151.376 52.496C150.992 52.2293 150.8 51.936 150.8 51.616C150.8 51.5413 150.806 51.488 150.816 51.456C150.859 51.2747 150.95 51.0987 151.088 50.928C151.227 50.7467 151.419 50.5493 151.664 50.336C151.323 50.2187 151.062 50.0107 150.88 49.712C150.699 49.4133 150.608 49.056 150.608 48.64C150.608 48.512 150.63 48.32 150.672 48.064C150.8 47.392 151.12 46.8373 151.632 46.4C152.155 45.952 152.742 45.728 153.392 45.728C153.83 45.728 154.192 45.8453 154.48 46.08C155.046 45.824 155.563 45.696 156.032 45.696ZM153.952 48.4C153.974 48.2827 153.984 48.1013 153.984 47.856C153.984 47.3547 153.904 46.928 153.744 46.576C153.584 46.2133 153.339 46.032 153.008 46.032C152.71 46.032 152.438 46.1973 152.192 46.528C151.947 46.8587 151.787 47.2693 151.712 47.76C151.68 47.9627 151.664 48.1653 151.664 48.368C151.664 48.8587 151.755 49.2747 151.936 49.616C152.118 49.9467 152.363 50.112 152.672 50.112C152.971 50.112 153.238 49.9573 153.472 49.648C153.718 49.3387 153.878 48.9227 153.952 48.4ZM154.048 54.752C154.048 54.368 153.899 54.0533 153.6 53.808C153.312 53.5733 152.88 53.3067 152.304 53.008C151.984 52.8587 151.734 52.7253 151.552 52.608C151.126 52.8747 150.79 53.1413 150.544 53.408C150.31 53.6853 150.192 54.0213 150.192 54.416C150.192 54.8853 150.39 55.2693 150.784 55.568C151.19 55.8773 151.712 56.032 152.352 56.032C152.896 56.032 153.312 55.9093 153.6 55.664C153.899 55.4187 154.048 55.1147 154.048 54.752Z" fill="#144970"/>
<path d="M61.4524 28.0829C64.7785 30.6731 66.9335 31.6326 72.8385 29.8446C77.4244 26.7494 77.5324 25.0667 77.393 22.0726C69.7238 30.0756 66.9172 28.7142 61.4524 28.0829Z" fill="#144970"/>
<path d="M55.5524 31.399C61.4524 33.9896 70.3543 33.2642 73.1491 32.4352C75.9439 31.6062 75.6707 31.6728 76.5649 32.7461C74.7786 34.6991 73.6943 35.8056 73.6666 37.513C73.447 39.7042 73.3323 40.2444 73.1491 39.4819C72.9658 38.7193 67.5595 38.342 61.97 37.8238C56.3805 37.3057 54.4439 34.6699 55.5524 31.399Z" fill="#144970"/>
<path d="M47.9961 15.1295C45.794 17.8659 44.7787 19.3722 45.3049 21.7617C45.4292 21.1905 45.728 21.404 46.34 21.9689C48.1187 27.0599 50.5054 28.7158 56.2769 30.3627C58.7239 30.7195 61.0703 30.6188 62.2805 30.6736C62.8957 30.06 62.4736 29.6781 60.0033 28.9119C53.2255 25.6105 50.7547 23.465 48.9277 19.0674C49.0414 16.8863 48.3666 14.4766 47.9961 15.1295Z" fill="#144970"/>
<path d="M77.393 33.2642C79.0492 30.3627 83.5001 32.9534 83.7071 35.4404C83.9141 37.9275 83.9603 37.9244 84.0176 40C82.2856 39.1827 82.465 39.4819 79.3597 39.4819C76.2544 39.4819 74.9087 36.4767 76.5649 34.4041C77.6322 34.4479 78.6287 34.9559 80.9123 36.4767C80.2481 34.796 79.3806 34.1508 77.393 33.2642Z" fill="#144970"/>
<path d="M50.1698 29.2228C48.4102 26.0238 43.2347 28.2902 42.9241 31.6062C42.6136 34.9223 43.4986 36.5242 42.9241 37.6166C45.446 37.2571 48.6172 37.9275 50.1698 37.4093C51.7225 36.8912 54.4138 32.7461 50.6874 30.1554C49.7172 30.8569 49.1733 30.6975 48.2031 31.399L46.754 33.057C47.5449 31.7759 46.961 31.0881 50.1698 29.2228Z" fill="#144970"/>
<path d="M77.807 19.8964C79.1527 21.3472 82.5882 23.7666 74.1842 31.0881C76.4269 31.6068 77.6774 31.5867 79.8772 30.1554C81.596 29.1045 82.5155 28.3709 83.7071 25.5959C83.9457 24.7205 85.1527 24.4073 85.1916 25.285V24.5596C84.2163 20.807 84.9492 19.0674 84.0176 14.9223C82.7757 11.9675 81.4702 10.7355 78.0141 9.32644C77.5065 10.3955 78.0141 11.0881 78.0141 11.0881C78.0141 11.0881 79.6513 14.3261 79.0492 16.3731C77.9568 18.1763 77.5783 19.0227 77.807 19.8964Z" fill="#144970"/>
<path d="M71.8388 21.8653C66.1125 23.5982 62.85 24.3291 56.1053 21.3471C56.4543 23.9594 57.2683 25.2552 61.3843 26.8394C64.1735 27.3854 65.7373 27.2818 68.5265 26.8394C71.139 24.8874 71.5354 23.8007 71.8388 21.8653Z" fill="#144970"/>
<path d="M67.2844 15.1295C65.9388 14.715 64.5607 14.4642 63.4545 15.544C63.8523 14.1077 64.952 13.2032 67.6984 13.3679C69.8374 14.5334 70.4942 17.0461 70.1827 17.6166C69.8711 18.187 69.7351 18.2551 69.5616 17.9275C69.1179 16.5585 68.63 15.544 67.2844 15.1295Z" fill="#144970"/>
<path d="M48.8596 10.7772C49.2935 16.4842 49.9303 19.3401 53.9316 23.0052C53.9316 23.4197 54.6593 22.1388 54.3456 20C53.4821 18.2902 53.3105 17.7294 53.3105 15.6568C52.793 8.29015 59.4176 3.73973 65.8352 3.73973C61.9019 2.59983 64.5931 1.34715 54.9667 1.34715C53.7498 0.971526 53.5534 0.655178 53.621 0C49.7392 5.35569 48.6129 7.76313 48.8596 10.7772Z" fill="#144970"/>
<path d="M59.4176 15.6568C59.4176 15.6568 60.8697 17.5989 62.5229 18.6528C62.0993 17.6854 61.6358 15.86 62.3159 14.3005C63.2428 12.1751 65.4702 12.5321 67.4914 11.399C66.3528 10.0518 61.953 10.8105 60.4527 12.3316C58.5161 13.9711 58.8593 14.5321 58.693 15.9585C58.9001 15.4404 59.4176 15.6568 59.4176 15.6568Z" fill="#144970"/>
<path d="M64.3861 16.4767C64.1389 17.0167 64.3195 17.1191 64.8001 17.2021C64.8001 17.2021 64.5931 16.7876 65.1107 16.4767C65.6282 16.1658 66.0423 16.2694 66.5598 16.4767C67.0774 16.6839 67.4914 16.9948 67.9054 17.8238C68.3195 18.6528 68.1125 15.4404 66.5598 15.6568C65.0072 15.8732 65.0934 15.7265 64.3861 16.4767Z" fill="#144970"/>
<path d="M66.0795 17.8238C65.9406 18.1838 65.476 17.6304 65.4584 17.2021C65.2322 17.4778 65.2779 17.6292 65.2142 17.7202C65.1695 18.1508 65.5247 18.4456 66.0423 18.4456C66.5598 18.4456 66.7668 17.9275 67.1809 17.9275C67.5949 17.9275 66.2184 17.4639 66.0795 17.8238Z" fill="#144970"/>
<path d="M65.8352 19.0674C64.9037 18.9637 63.4248 18.1634 63.558 17.2021C63.0769 17.6254 62.8562 17.8808 63.0405 18.5492C63.3973 19.9227 64.241 19.8438 65.5247 20.5181C67.1296 20.7952 67.9204 20.6897 69.2511 20.3109C69.9121 19.3989 69.0441 18.1347 69.0441 18.342C67.8865 18.9119 66.7668 19.171 65.8352 19.0674Z" fill="#144970"/>
<path d="M71.3213 20.3109C71.4471 14.9547 69.8273 14.6393 67.9054 12.5389C67.4246 12.2197 68.63 12.6425 69.0441 12.6425C69.439 12.6425 70.6153 12.71 70.6065 12.6518C70.6032 12.6487 70.6 12.6456 70.5967 12.6425C70.6029 12.6459 70.6061 12.649 70.6065 12.6518C74.4028 16.2733 72.7692 18.5507 71.3213 20.3109Z" fill="#144970"/>
<path d="M57.865 15.9585C57.2727 14.7906 58.279 14.3005 57.865 13.057C55.9409 14.6945 55.0944 15.683 55.1737 17.9275C56.7511 20.8326 64.233 22.6643 66.6633 21.1399C66.1352 21.3296 65.6943 21.3737 64.1791 21.1399C60.9065 19.9852 59.3131 19.0778 57.865 15.9585Z" fill="#144970"/>
<path d="M56.7263 12.3316C60.3492 0.725371 73.1844 5.59583 73.1844 5.59583C73.8055 5.80309 74.0125 5.18135 74.0125 5.18135C74.5474 6.68942 77.3249 10.3627 77.3249 16.9948C76.1759 20.7798 74.7814 22.3404 71.8903 24.5688C80.3817 13.5639 67.7088 4.0315 56.7263 12.3316Z" fill="#144970"/>
<path d="M65.8352 16.9948C66.4987 17.0451 66.6309 17.1313 66.3528 17.4093C66.8422 16.9858 66.91 16.8266 65.8352 16.9948Z" fill="#144970"/>
<path d="M65.5247 2.17616C66.1913 3.21182 67.0307 3.04704 68.1336 3.00517C76.8773 2.77801 78.2776 8.49741 78.2776 8.49741C78.2776 8.49741 81.0857 7.05168 78.774 2.17616C72.9761 0.164037 70.0806 0.181323 65.5247 2.17616Z" fill="#144970"/>
<path d="M12.1607 19.0483V23.4868C12.1607 24.7466 12.1607 25.8525 12.1607 26.8047C12.1753 27.7422 12.1827 28.5405 12.1827 29.1997C12.1973 29.8589 12.2046 30.4302 12.2046 30.9136C12.2193 31.3823 12.2339 31.7925 12.2486 32.144C12.2632 32.4956 12.2779 32.8252 12.2925 33.1328C12.3072 33.543 12.3511 33.8726 12.4244 34.1216C12.5122 34.356 12.7173 34.5537 13.0396 34.7148C13.3765 34.8613 13.8819 34.9785 14.5557 35.0664C15.2442 35.1543 16.2037 35.2422 17.4341 35.3301L16.5552 37.3076C16.3941 37.293 16.0718 37.2637 15.5884 37.2197C15.1197 37.1904 14.5484 37.1611 13.8746 37.1318C13.2007 37.1025 12.461 37.0732 11.6553 37.0439C10.8497 37.0146 10.044 37 9.23832 37C8.24223 37 7.29008 37.0146 6.38188 37.0439C5.48832 37.0879 4.68266 37.1318 3.96489 37.1758C3.26176 37.2197 2.69047 37.2637 2.25102 37.3076C1.79692 37.3369 1.52592 37.3516 1.43803 37.3516C1.43803 37.2197 1.46 37.0366 1.50395 36.8022C1.56254 36.5532 1.73832 36.2969 2.03129 36.0332C2.32426 35.7695 2.79301 35.5278 3.43754 35.3081C4.08207 35.0884 4.9976 34.9346 6.18412 34.8467C6.24272 34.2314 6.28666 33.4624 6.31596 32.5396C6.35991 31.6021 6.3892 30.5986 6.40385 29.5293C6.43315 28.4453 6.4478 27.332 6.4478 26.1895V16.8071C6.4478 15.1665 6.44047 13.7969 6.42582 12.6982C6.42582 11.5996 6.4185 10.7207 6.40385 10.0615C6.3892 9.3877 6.37455 8.83105 6.35991 8.3916C6.34526 7.9375 6.33061 7.53467 6.31596 7.18311C6.30131 6.84619 6.28666 6.44336 6.27202 5.97461C6.24272 5.56445 6.19145 5.24219 6.11821 5.00781C6.05961 4.77344 5.86918 4.59033 5.54692 4.4585C5.2393 4.32666 4.7559 4.22412 4.09672 4.15088C3.45219 4.06299 2.53666 3.96777 1.35014 3.86523L2.09721 1.93164C2.22905 1.96094 2.54399 1.99023 3.04204 2.01953C3.55473 2.04883 4.15532 2.07812 4.84379 2.10742C5.54692 2.13672 6.30131 2.15869 7.10698 2.17334C7.91264 2.18799 8.67436 2.19531 9.39213 2.19531C10.5494 2.19531 11.604 2.17334 12.5562 2.12939C13.5083 2.08545 14.3213 2.0415 14.9952 1.99756C15.669 1.95361 16.1963 1.90967 16.5772 1.86572C16.9581 1.82178 17.1705 1.7998 17.2144 1.7998C17.2144 1.99023 17.1778 2.21729 17.1045 2.48096C17.0459 2.72998 16.8628 2.98633 16.5552 3.25C16.2476 3.49902 15.7715 3.7334 15.127 3.95312C14.4825 4.17285 13.5816 4.33398 12.4244 4.43652C12.3658 5.27148 12.3145 6.13574 12.2706 7.0293C12.2413 7.92285 12.2193 8.94092 12.2046 10.0835C12.19 11.2114 12.1753 12.5078 12.1607 13.9727C12.1607 15.4229 12.1607 17.1147 12.1607 19.0483ZM12.7759 19.8174C14.1968 18.6748 15.5957 17.4883 16.9727 16.2578C18.3497 15.0127 19.6753 13.7969 20.9498 12.6104C22.3414 11.2773 23.4766 10.1641 24.3555 9.27051C25.2491 8.3623 25.9522 7.61523 26.4649 7.0293C26.9776 6.42871 27.3291 5.95996 27.5196 5.62305C27.71 5.28613 27.8052 5.01514 27.8052 4.81006C27.8052 4.66357 27.7613 4.54639 27.6734 4.4585C27.5855 4.37061 27.4244 4.30469 27.19 4.26074C26.9703 4.20215 26.6626 4.1582 26.2671 4.12891C25.8716 4.09961 25.3736 4.07031 24.773 4.04102L25.3443 2.01953C25.5494 2.03418 25.835 2.05615 26.2012 2.08545C26.5821 2.1001 27.0069 2.11475 27.4756 2.12939C27.959 2.14404 28.479 2.15869 29.0357 2.17334C29.5923 2.18799 30.1563 2.19531 30.7276 2.19531C32.1631 2.19531 33.5181 2.15869 34.7925 2.08545C36.0669 2.01221 37.1509 1.91699 38.0445 1.7998C38.0445 2.15137 37.9639 2.47363 37.8028 2.7666C37.6416 3.04492 37.3706 3.29395 36.9898 3.51367C36.6089 3.7334 36.1036 3.9165 35.4737 4.06299C34.8584 4.20947 34.0894 4.31934 33.1665 4.39258C32.6099 4.86133 31.9434 5.44727 31.167 6.15039C30.3907 6.83887 29.5557 7.60059 28.6622 8.43555C27.7832 9.25586 26.875 10.1128 25.9375 11.0063C25 11.8853 24.0918 12.7495 23.2129 13.5991C22.3487 14.4341 21.5357 15.2324 20.774 15.9941C20.0123 16.7412 19.3677 17.3857 18.8404 17.9277C21.8287 21.4727 24.3848 24.5342 26.5088 27.1123C28.6182 29.6904 30.3248 31.624 31.6285 32.9131C32.0826 33.3672 32.5 33.7334 32.8809 34.0117C33.2764 34.29 33.7232 34.5171 34.2212 34.6929C34.7193 34.854 35.3052 34.9785 35.979 35.0664C36.6675 35.1543 37.5318 35.2275 38.5718 35.2861L37.6929 37.2637C37.5171 37.249 37.1949 37.2271 36.7261 37.1978C36.2574 37.1685 35.6861 37.1392 35.0122 37.1099C34.3384 37.0806 33.5914 37.0513 32.771 37.022C31.9507 37.0073 31.1158 37 30.2662 37C29.6949 37 29.1163 37.0073 28.5303 37.022C27.9444 37.0366 27.4683 37.0586 27.1021 37.0879C24.729 33.9678 22.3706 30.9795 20.0269 28.123C17.6978 25.2666 15.2808 22.498 12.7759 19.8174Z" fill="#144970"/>
</svg>
