<svg width="157" height="57" viewBox="0 0 157 57" fill="none" xmlns="http://www.w3.org/2000/svg">
<path d="M10.096 42C10.128 42 10.144 42.032 10.144 42.096C10.144 42.16 10.128 42.192 10.096 42.192C9.70132 42.192 9.25865 42.304 8.76798 42.528C8.28798 42.7413 7.81865 43.0613 7.35998 43.488L4.79998 45.776L6.35198 48.688C6.89598 49.6907 7.30665 50.4053 7.58398 50.832C7.86132 51.248 8.09065 51.5147 8.27198 51.632C8.46398 51.7493 8.70398 51.808 8.99198 51.808C9.02398 51.808 9.03998 51.84 9.03998 51.904C9.03998 51.968 9.02398 52 8.99198 52H7.58398C7.14665 52 6.86932 51.9733 6.75198 51.92C6.64532 51.8667 6.45332 51.5467 6.17598 50.96C5.89865 50.3733 5.66932 49.9093 5.48798 49.568L3.88798 46.592L3.24798 47.152L2.62398 50.704C2.57065 51.024 2.54398 51.2427 2.54398 51.36C2.54398 51.5413 2.60265 51.664 2.71998 51.728C2.84798 51.7813 3.08798 51.808 3.43998 51.808C3.46132 51.808 3.47198 51.84 3.47198 51.904C3.47198 51.968 3.46132 52 3.43998 52C3.15198 52 2.93332 51.9947 2.78398 51.984L1.82398 51.968L0.863982 51.984C0.703982 51.9947 0.479982 52 0.191982 52C0.159982 52 0.143982 51.968 0.143982 51.904C0.143982 51.84 0.159982 51.808 0.191982 51.808C0.522649 51.808 0.767982 51.7813 0.927982 51.728C1.08798 51.6747 1.21065 51.5733 1.29598 51.424C1.38132 51.264 1.45065 51.024 1.50398 50.704L2.81598 43.296C2.85865 43.0187 2.87998 42.848 2.87998 42.784C2.87998 42.5493 2.81065 42.3947 2.67198 42.32C2.53332 42.2347 2.27732 42.192 1.90398 42.192C1.88265 42.192 1.87198 42.16 1.87198 42.096C1.87198 42.032 1.88265 42 1.90398 42L2.59198 42.016C2.97598 42.0373 3.29065 42.048 3.53598 42.048C3.78132 42.048 4.11732 42.0373 4.54398 42.016L5.24798 42C5.26932 42 5.27998 42.032 5.27998 42.096C5.27998 42.16 5.26932 42.192 5.24798 42.192C4.92798 42.192 4.68265 42.224 4.51198 42.288C4.35198 42.352 4.22932 42.464 4.14398 42.624C4.06932 42.7733 3.99998 43.008 3.93598 43.328L3.32798 46.768L7.00798 43.392C7.38132 43.0507 7.56798 42.768 7.56798 42.544C7.56798 42.3093 7.33332 42.192 6.86398 42.192C6.84265 42.192 6.83198 42.16 6.83198 42.096C6.83198 42.032 6.84265 42 6.86398 42L7.51998 42.016C7.94665 42.0373 8.31998 42.048 8.63998 42.048C8.93865 42.048 9.25865 42.0373 9.59998 42.016L10.096 42Z" fill="#0A0809"/>
<path d="M11.3842 52.144C10.9576 52.144 10.7442 51.8827 10.7442 51.36C10.7442 51.136 10.7762 50.8747 10.8402 50.576L11.4962 47.248C11.5282 47.088 11.5442 46.9493 11.5442 46.832C11.5442 46.512 11.4429 46.352 11.2402 46.352C11.1229 46.352 10.9736 46.416 10.7922 46.544C10.6109 46.6613 10.4136 46.832 10.2002 47.056C10.1896 47.0667 10.1736 47.072 10.1522 47.072C10.1202 47.072 10.0882 47.056 10.0562 47.024C10.0349 46.9813 10.0402 46.9493 10.0722 46.928C10.7762 46.096 11.4002 45.68 11.9442 45.68C12.1576 45.68 12.3122 45.744 12.4082 45.872C12.5149 45.9893 12.5682 46.176 12.5682 46.432C12.5682 46.6773 12.5416 46.9227 12.4882 47.168L11.8322 50.576C11.8002 50.736 11.7842 50.8747 11.7842 50.992C11.7842 51.3013 11.8802 51.456 12.0722 51.456C12.3176 51.456 12.6536 51.232 13.0802 50.784C13.0909 50.7733 13.1069 50.768 13.1282 50.768C13.1709 50.768 13.2029 50.7893 13.2242 50.832C13.2456 50.864 13.2402 50.8907 13.2082 50.912C12.8562 51.328 12.5309 51.6373 12.2322 51.84C11.9442 52.0427 11.6616 52.144 11.3842 52.144ZM12.4082 43.856C12.1736 43.856 11.9869 43.792 11.8482 43.664C11.7202 43.5253 11.6562 43.3387 11.6562 43.104C11.6562 42.88 11.7202 42.704 11.8482 42.576C11.9869 42.448 12.1736 42.384 12.4082 42.384C12.6429 42.384 12.8242 42.448 12.9522 42.576C13.0909 42.704 13.1602 42.88 13.1602 43.104C13.1602 43.3387 13.0962 43.5253 12.9682 43.664C12.8402 43.792 12.6536 43.856 12.4082 43.856Z" fill="#0A0809"/>
<path d="M24.0574 50.768C24.0787 50.7467 24.1 50.736 24.1214 50.736C24.1534 50.736 24.18 50.7573 24.2014 50.8C24.2227 50.832 24.2174 50.864 24.1854 50.896C23.8227 51.3227 23.4974 51.6373 23.2094 51.84C22.932 52.0427 22.6547 52.144 22.3774 52.144C22.164 52.144 22.0094 52.0853 21.9134 51.968C21.8174 51.84 21.7694 51.6427 21.7694 51.376C21.7694 51.1947 21.796 50.928 21.8494 50.576L22.3134 48.032C22.3667 47.68 22.3934 47.4027 22.3934 47.2C22.3934 46.624 22.2067 46.336 21.8334 46.336C21.524 46.336 21.1987 46.5387 20.8574 46.944C20.5267 47.3387 20.2067 47.9307 19.8974 48.72C19.588 49.4987 19.332 50.4267 19.1294 51.504L19.0654 51.856C19.0547 51.9413 18.996 52.0053 18.8894 52.048C18.7827 52.1013 18.6334 52.128 18.4414 52.128C18.164 52.128 18.0254 52.0907 18.0254 52.016C18.036 51.952 18.068 51.7867 18.1214 51.52C18.1854 51.2533 18.2334 51.0187 18.2654 50.816L18.7934 48.016C18.836 47.76 18.8574 47.504 18.8574 47.248C18.8574 46.64 18.6707 46.336 18.2974 46.336C17.988 46.336 17.6574 46.5493 17.3054 46.976C16.964 47.4027 16.6387 48.0213 16.3294 48.832C16.02 49.6427 15.7694 50.592 15.5774 51.68L15.5454 51.856C15.492 52.0373 15.2787 52.128 14.9054 52.128C14.628 52.128 14.4894 52.0907 14.4894 52.016L14.5694 51.648L14.7294 50.864L15.3854 47.248C15.4174 47.088 15.4334 46.9547 15.4334 46.848C15.4334 46.5173 15.332 46.352 15.1294 46.352C14.8734 46.352 14.5214 46.5867 14.0734 47.056C14.0627 47.0667 14.0467 47.072 14.0254 47.072C13.9934 47.072 13.9667 47.056 13.9454 47.024C13.924 46.9813 13.924 46.9493 13.9454 46.928C14.308 46.5013 14.644 46.1867 14.9534 45.984C15.2627 45.7813 15.5614 45.68 15.8494 45.68C16.0627 45.68 16.2174 45.744 16.3134 45.872C16.4094 45.9893 16.4574 46.1813 16.4574 46.448C16.4574 46.608 16.4307 46.848 16.3774 47.168L16.0894 48.832C16.452 47.8187 16.8787 47.0293 17.3694 46.464C17.8707 45.8987 18.388 45.616 18.9214 45.616C19.5827 45.616 19.9134 46.0267 19.9134 46.848C19.9134 47.0827 19.8814 47.3707 19.8174 47.712L19.6094 48.848C19.9827 47.824 20.4147 47.0293 20.9054 46.464C21.4067 45.8987 21.924 45.616 22.4574 45.616C23.108 45.616 23.4334 46.0213 23.4334 46.832C23.4334 47.088 23.4014 47.3867 23.3374 47.728L22.8254 50.576C22.7934 50.736 22.7774 50.8747 22.7774 50.992C22.7774 51.3013 22.8734 51.456 23.0654 51.456C23.172 51.456 23.3054 51.3973 23.4654 51.28C23.6254 51.1627 23.8227 50.992 24.0574 50.768Z" fill="#0A0809"/>
<path d="M29.9247 45.616C30.3301 45.616 30.6501 45.7707 30.8847 46.08C31.1194 46.3893 31.2367 46.8 31.2367 47.312C31.2367 47.5467 31.2154 47.7707 31.1727 47.984C31.0021 48.848 30.6714 49.6 30.1807 50.24C29.7007 50.88 29.1567 51.3707 28.5487 51.712C27.9407 52.0427 27.3754 52.208 26.8527 52.208C26.3514 52.208 25.9514 52.1013 25.6527 51.888C25.3541 51.664 25.2047 51.3707 25.2047 51.008C25.2047 50.944 25.2154 50.848 25.2367 50.72L26.8207 42.24C26.8421 42.144 26.8527 42.0213 26.8527 41.872C26.8527 41.5733 26.7407 41.424 26.5167 41.424C26.3461 41.424 26.0954 41.504 25.7647 41.664H25.7487C25.7061 41.664 25.6741 41.6373 25.6527 41.584C25.6421 41.52 25.6581 41.4827 25.7007 41.472L27.8927 40.4H27.9247C27.9674 40.4 28.0047 40.416 28.0367 40.448C28.0794 40.48 28.0954 40.5067 28.0847 40.528L26.6607 48.448C27.0234 47.6053 27.4981 46.9227 28.0847 46.4C28.6821 45.8773 29.2954 45.616 29.9247 45.616ZM29.9567 48.48C30.0207 48.192 30.0527 47.9147 30.0527 47.648C30.0527 47.2747 29.9781 46.9813 29.8287 46.768C29.6901 46.5547 29.4714 46.448 29.1727 46.448C28.7461 46.448 28.3407 46.6187 27.9567 46.96C27.5727 47.2907 27.2314 47.76 26.9327 48.368C26.6447 48.976 26.4314 49.6747 26.2927 50.464C26.2821 50.5173 26.2767 50.592 26.2767 50.688C26.2767 51.0187 26.3887 51.2853 26.6127 51.488C26.8367 51.6907 27.1301 51.792 27.4927 51.792C27.8341 51.792 28.1701 51.6587 28.5007 51.392C28.8421 51.1253 29.1407 50.7413 29.3967 50.24C29.6527 49.7387 29.8394 49.152 29.9567 48.48Z" fill="#0A0809"/>
<path d="M35.7236 45.616C36.0969 45.616 36.3849 45.6853 36.5876 45.824C36.7903 45.952 36.8916 46.128 36.8916 46.352C36.8916 46.8533 36.5236 47.312 35.7876 47.728C35.0623 48.1333 34.1823 48.4267 33.1476 48.608C33.1049 48.864 33.0836 49.1413 33.0836 49.44C33.0836 50.0907 33.2223 50.6133 33.4996 51.008C33.7876 51.4027 34.2036 51.6 34.7476 51.6C35.3343 51.6 35.8516 51.424 36.2996 51.072H36.3156C36.3476 51.072 36.3743 51.088 36.3956 51.12C36.4276 51.152 36.4329 51.184 36.4116 51.216C35.6543 51.8667 34.8596 52.192 34.0276 52.192C33.3236 52.192 32.7956 51.9733 32.4436 51.536C32.0916 51.0987 31.9156 50.5333 31.9156 49.84C31.9156 49.6053 31.9423 49.3387 31.9956 49.04C32.1023 48.4853 32.3316 47.9467 32.6836 47.424C33.0463 46.8907 33.4943 46.4587 34.0276 46.128C34.5609 45.7867 35.1263 45.616 35.7236 45.616ZM35.6276 46.816C35.6489 46.7093 35.6596 46.64 35.6596 46.608C35.6596 46.4267 35.5903 46.288 35.4516 46.192C35.3236 46.096 35.1636 46.048 34.9716 46.048C34.5343 46.048 34.1609 46.2667 33.8516 46.704C33.5423 47.1307 33.3183 47.6907 33.1796 48.384C34.6516 48.1067 35.4676 47.584 35.6276 46.816Z" fill="#0A0809"/>
<path d="M41.7345 45.68C41.9585 45.68 42.1718 45.76 42.3745 45.92C42.5771 46.08 42.6785 46.2667 42.6785 46.48C42.6785 46.64 42.6198 46.784 42.5025 46.912C42.3958 47.0293 42.2571 47.088 42.0865 47.088C41.9691 47.088 41.8731 47.0667 41.7985 47.024C41.7238 46.9707 41.6438 46.896 41.5585 46.8C41.5051 46.7467 41.4465 46.6987 41.3825 46.656C41.3291 46.6027 41.2651 46.576 41.1905 46.576C40.9771 46.576 40.7158 46.88 40.4065 47.488C40.1078 48.0853 39.8198 48.8053 39.5425 49.648C39.2758 50.48 39.0785 51.216 38.9505 51.856C38.9291 51.9413 38.8652 52.0053 38.7585 52.048C38.6518 52.1013 38.5078 52.128 38.3265 52.128C38.0491 52.128 37.9105 52.0907 37.9105 52.016C37.9211 51.952 37.9531 51.7867 38.0065 51.52C38.0705 51.2533 38.1185 51.0187 38.1505 50.816L38.7265 47.664C38.7691 47.4187 38.7905 47.1947 38.7905 46.992C38.7905 46.5653 38.6731 46.352 38.4385 46.352C38.2145 46.352 37.8998 46.5547 37.4945 46.96C37.4838 46.9707 37.4678 46.976 37.4465 46.976C37.4145 46.976 37.3878 46.96 37.3665 46.928C37.3451 46.8853 37.3451 46.8533 37.3665 46.832C37.7078 46.4373 38.0225 46.1493 38.3105 45.968C38.5985 45.776 38.8811 45.68 39.1585 45.68C39.3825 45.68 39.5478 45.7493 39.6545 45.888C39.7612 46.0267 39.8145 46.2613 39.8145 46.592C39.8145 46.848 39.7825 47.1787 39.7185 47.584L39.3825 49.456C39.7238 48.3573 40.0971 47.456 40.5025 46.752C40.9185 46.0373 41.3291 45.68 41.7345 45.68Z" fill="#0A0809"/>
<path d="M44.0501 52.144C43.8368 52.144 43.6768 52.08 43.5701 51.952C43.4634 51.824 43.4101 51.6267 43.4101 51.36C43.4101 51.1573 43.4421 50.896 43.5061 50.576L45.0421 42.24C45.0741 42.08 45.0901 41.9467 45.0901 41.84C45.0901 41.5627 44.9834 41.424 44.7701 41.424C44.5994 41.424 44.3541 41.504 44.0341 41.664H44.0181C43.9648 41.664 43.9274 41.6373 43.9061 41.584C43.8954 41.52 43.9114 41.4827 43.9541 41.472L46.1621 40.4H46.1941C46.2368 40.4 46.2741 40.416 46.3061 40.448C46.3381 40.48 46.3488 40.5067 46.3381 40.528L44.4981 50.576C44.4661 50.736 44.4501 50.8747 44.4501 50.992C44.4501 51.3013 44.5461 51.456 44.7381 51.456C44.8448 51.456 44.9781 51.3973 45.1381 51.28C45.2981 51.1627 45.4954 50.992 45.7301 50.768C45.7514 50.7467 45.7728 50.736 45.7941 50.736C45.8261 50.736 45.8528 50.7573 45.8741 50.8C45.8954 50.832 45.8901 50.864 45.8581 50.896C45.4954 51.3227 45.1701 51.6373 44.8821 51.84C44.6048 52.0427 44.3274 52.144 44.0501 52.144Z" fill="#0A0809"/>
<path d="M52.3099 45.664C52.5339 45.664 52.7045 45.7493 52.8219 45.92C52.9392 46.0907 52.9979 46.3253 52.9979 46.624C52.9979 47.4667 52.5765 48.6933 51.7339 50.304C50.9019 51.9147 49.9419 53.3493 48.8539 54.608C47.7659 55.8667 46.8645 56.496 46.1499 56.496C45.9259 56.496 45.7445 56.4427 45.6059 56.336C45.4672 56.24 45.3979 56.0853 45.3979 55.872L45.4139 55.728C45.4992 55.376 45.7445 55.2 46.1499 55.2C46.2565 55.2 46.4272 55.2107 46.6619 55.232C46.8752 55.2533 47.0352 55.264 47.1419 55.264C47.4939 55.264 47.7872 55.1733 48.0219 54.992C48.3312 54.7893 48.7365 54.3467 49.2379 53.664L49.2539 52.832C49.2539 50.8053 49.0939 49.2373 48.7739 48.128C48.4645 47.008 48.0379 46.448 47.4939 46.448C47.3552 46.448 47.2165 46.496 47.0779 46.592C46.9392 46.688 46.8219 46.8267 46.7259 47.008C46.7152 47.04 46.6832 47.056 46.6299 47.056C46.5552 47.056 46.5232 47.024 46.5339 46.96C46.7259 46.5547 46.9659 46.24 47.2539 46.016C47.5419 45.792 47.8352 45.68 48.1339 45.68C48.5712 45.68 48.9445 45.9307 49.2539 46.432C49.5739 46.9333 49.8139 47.6213 49.9739 48.496C50.1445 49.36 50.2299 50.3307 50.2299 51.408C50.2299 51.7813 50.2245 52.064 50.2139 52.256C50.6512 51.5733 51.0352 50.9013 51.3659 50.24C51.7072 49.5787 51.9259 49.072 52.0219 48.72C52.0752 48.4533 52.1019 48.24 52.1019 48.08C52.1019 47.856 52.0752 47.6533 52.0219 47.472C51.9685 47.2907 51.8939 47.0933 51.7979 46.88C51.7552 46.7733 51.7125 46.672 51.6699 46.576C51.6379 46.4693 51.6219 46.3733 51.6219 46.288C51.6219 46.1067 51.6859 45.9573 51.8139 45.84C51.9419 45.7227 52.1072 45.664 52.3099 45.664Z" fill="#0A0809"/>
<path d="M54.0905 49.344C54.0371 49.3547 54.0105 49.2 54.0105 48.88C54.0105 48.6987 54.0211 48.6027 54.0425 48.592L58.0265 47.856C58.0478 47.8453 58.0638 47.888 58.0745 47.984C58.0958 48.08 58.1065 48.1813 58.1065 48.288C58.1065 48.4907 58.0905 48.592 58.0585 48.592L54.0905 49.344Z" fill="#0A0809"/>
<path d="M67.9575 51.808C68.0001 51.808 68.0215 51.84 68.0215 51.904C68.0215 51.968 68.0001 52 67.9575 52H66.0215C65.7655 52 65.3975 51.552 64.9175 50.656C64.4375 49.7493 63.9041 48.464 63.3175 46.8C62.9761 46.8853 62.6508 46.928 62.3415 46.928C62.2242 46.928 62.0908 46.9173 61.9415 46.896L61.2535 50.704C61.2108 50.9067 61.1895 51.0827 61.1895 51.232C61.1895 51.456 61.2588 51.6107 61.3975 51.696C61.5468 51.7707 61.8135 51.808 62.1975 51.808C62.2401 51.808 62.2615 51.84 62.2615 51.904C62.2615 51.968 62.2455 52 62.2135 52C61.9041 52 61.6588 51.9947 61.4775 51.984L60.4695 51.968L59.4455 51.984C59.2641 51.9947 59.0135 52 58.6935 52C58.6508 52 58.6295 51.968 58.6295 51.904C58.6295 51.84 58.6508 51.808 58.6935 51.808C59.0455 51.808 59.3121 51.7813 59.4935 51.728C59.6748 51.664 59.8081 51.5573 59.8935 51.408C59.9895 51.2587 60.0695 51.024 60.1335 50.704L61.4295 43.296C61.4721 43.1147 61.4935 42.9387 61.4935 42.768C61.4935 42.544 61.4188 42.3947 61.2695 42.32C61.1308 42.2347 60.8641 42.192 60.4695 42.192C60.4268 42.192 60.4055 42.16 60.4055 42.096C60.4055 42.032 60.4268 42 60.4695 42L61.2055 42.016C61.6108 42.0373 61.9415 42.048 62.1975 42.048C62.3788 42.048 62.5441 42.0427 62.6935 42.032C62.8535 42.0213 62.9921 42.0107 63.1095 42C63.4081 41.968 63.6748 41.952 63.9095 41.952C64.6561 41.952 65.2268 42.0907 65.6215 42.368C66.0161 42.6347 66.2135 43.0133 66.2135 43.504C66.2135 44.08 66.0268 44.6293 65.6535 45.152C65.2908 45.6747 64.8162 46.096 64.2295 46.416C64.7948 47.792 65.2802 48.864 65.6855 49.632C66.1015 50.4 66.4855 50.9547 66.8375 51.296C67.2002 51.6373 67.5735 51.808 67.9575 51.808ZM62.0055 46.48C62.2828 46.5227 62.5015 46.544 62.6615 46.544C63.3335 46.544 63.8401 46.384 64.1815 46.064C64.5335 45.744 64.7681 45.2213 64.8855 44.496C64.9281 44.2507 64.9495 44 64.9495 43.744C64.9495 43.2213 64.8321 42.8373 64.5975 42.592C64.3628 42.3467 64.0428 42.224 63.6375 42.224C63.3708 42.224 63.1788 42.2453 63.0615 42.288C62.9441 42.32 62.8481 42.4107 62.7735 42.56C62.6988 42.7093 62.6295 42.9653 62.5655 43.328L62.0055 46.48Z" fill="#0A0809"/>
<path d="M70.5581 52.224C69.8968 52.224 69.3848 52 69.0221 51.552C68.6701 51.0933 68.4941 50.5013 68.4941 49.776C68.4941 49.5413 68.5208 49.2533 68.5741 48.912C68.6914 48.2827 68.9154 47.7173 69.2461 47.216C69.5874 46.7147 69.9981 46.3253 70.4781 46.048C70.9581 45.76 71.4648 45.616 71.9981 45.616C72.6808 45.616 73.2034 45.84 73.5661 46.288C73.9394 46.7253 74.1261 47.3067 74.1261 48.032C74.1261 48.3093 74.0941 48.6027 74.0301 48.912C73.8914 49.584 73.6408 50.1707 73.2781 50.672C72.9261 51.1733 72.5101 51.5573 72.0301 51.824C71.5501 52.0907 71.0594 52.224 70.5581 52.224ZM71.1181 51.824C71.5341 51.824 71.9021 51.6267 72.2221 51.232C72.5528 50.8373 72.7821 50.2987 72.9101 49.616C72.9741 49.2747 73.0061 48.9387 73.0061 48.608C73.0061 47.8827 72.8728 47.2693 72.6061 46.768C72.3501 46.256 71.9821 46 71.5021 46C71.0968 46 70.7288 46.1973 70.3981 46.592C70.0674 46.9867 69.8381 47.5307 69.7101 48.224C69.6354 48.6293 69.5981 48.9867 69.5981 49.296C69.5981 50.0107 69.7314 50.6133 69.9981 51.104C70.2754 51.584 70.6488 51.824 71.1181 51.824Z" fill="#0A0809"/>
<path d="M76.148 52.176C75.7426 52.176 75.3853 52.0853 75.076 51.904C74.7773 51.712 74.628 51.488 74.628 51.232C74.628 51.04 74.6813 50.8907 74.788 50.784C74.9053 50.6773 75.044 50.624 75.204 50.624C75.3213 50.624 75.4173 50.6613 75.492 50.736C75.5666 50.8 75.6573 50.9173 75.764 51.088C75.8813 51.3013 76.0093 51.4667 76.148 51.584C76.2866 51.7013 76.4787 51.76 76.724 51.76C77.236 51.76 77.5293 51.472 77.604 50.896C77.6146 50.8533 77.62 50.784 77.62 50.688C77.62 50.3787 77.5293 50.112 77.348 49.888C77.1773 49.664 76.9106 49.4027 76.548 49.104C76.196 48.816 75.9293 48.56 75.748 48.336C75.5666 48.112 75.476 47.8453 75.476 47.536C75.476 47.1947 75.5773 46.88 75.78 46.592C75.9933 46.304 76.2707 46.08 76.612 45.92C76.964 45.7493 77.332 45.664 77.716 45.664C78.132 45.664 78.4733 45.744 78.74 45.904C79.0066 46.064 79.124 46.2667 79.092 46.512C79.06 46.672 78.9906 46.8 78.884 46.896C78.7773 46.9813 78.66 47.024 78.532 47.024C78.372 47.024 78.2493 46.9867 78.164 46.912C78.0786 46.8373 77.988 46.7253 77.892 46.576C77.7853 46.4053 77.6733 46.2773 77.556 46.192C77.4493 46.096 77.2946 46.048 77.092 46.048C76.8893 46.048 76.7186 46.1013 76.58 46.208C76.452 46.3147 76.3773 46.4587 76.356 46.64C76.3453 46.6827 76.34 46.752 76.34 46.848C76.34 47.136 76.4253 47.392 76.596 47.616C76.7773 47.84 77.0386 48.096 77.38 48.384C77.7533 48.704 78.0306 48.9867 78.212 49.232C78.404 49.4667 78.5 49.744 78.5 50.064C78.5 50.384 78.3933 50.7093 78.18 51.04C77.9773 51.3707 77.6947 51.6427 77.332 51.856C76.98 52.0693 76.5853 52.176 76.148 52.176Z" fill="#0A0809"/>
<path d="M83.5986 45.616C83.9719 45.616 84.2599 45.6853 84.4626 45.824C84.6653 45.952 84.7666 46.128 84.7666 46.352C84.7666 46.8533 84.3986 47.312 83.6626 47.728C82.9373 48.1333 82.0573 48.4267 81.0226 48.608C80.9799 48.864 80.9586 49.1413 80.9586 49.44C80.9586 50.0907 81.0973 50.6133 81.3746 51.008C81.6626 51.4027 82.0786 51.6 82.6226 51.6C83.2093 51.6 83.7266 51.424 84.1746 51.072H84.1906C84.2226 51.072 84.2493 51.088 84.2706 51.12C84.3026 51.152 84.3079 51.184 84.2866 51.216C83.5293 51.8667 82.7346 52.192 81.9026 52.192C81.1986 52.192 80.6706 51.9733 80.3186 51.536C79.9666 51.0987 79.7906 50.5333 79.7906 49.84C79.7906 49.6053 79.8173 49.3387 79.8706 49.04C79.9773 48.4853 80.2066 47.9467 80.5586 47.424C80.9213 46.8907 81.3693 46.4587 81.9026 46.128C82.4359 45.7867 83.0013 45.616 83.5986 45.616ZM83.5026 46.816C83.5239 46.7093 83.5346 46.64 83.5346 46.608C83.5346 46.4267 83.4653 46.288 83.3266 46.192C83.1986 46.096 83.0386 46.048 82.8466 46.048C82.4093 46.048 82.0359 46.2667 81.7266 46.704C81.4173 47.1307 81.1933 47.6907 81.0546 48.384C82.5266 48.1067 83.3426 47.584 83.5026 46.816Z" fill="#0A0809"/>
<path d="M96.8475 42C96.9328 42 96.9648 42.048 96.9435 42.144L96.8155 43.008L96.6235 44.176C96.6235 44.208 96.5968 44.224 96.5435 44.224C96.5221 44.224 96.4955 44.2187 96.4635 44.208C96.4422 44.1867 96.4315 44.1707 96.4315 44.16C96.4741 43.5947 96.3621 43.1413 96.0955 42.8C95.8288 42.448 95.4501 42.272 94.9595 42.272H93.9675C93.6368 42.272 93.3915 42.2987 93.2315 42.352C93.0822 42.4053 92.9702 42.5013 92.8955 42.64C92.8208 42.7787 92.7568 43.0027 92.7035 43.312L92.1275 46.608H94.2395C94.6768 46.608 95.0075 46.5227 95.2315 46.352C95.4555 46.1813 95.6048 45.8827 95.6795 45.456C95.6795 45.424 95.7115 45.408 95.7755 45.408C95.7968 45.408 95.8182 45.4187 95.8395 45.44C95.8715 45.4507 95.8821 45.4667 95.8715 45.488C95.8395 45.7227 95.7915 45.968 95.7275 46.224C95.6848 46.384 95.6475 46.576 95.6155 46.8L95.5355 47.296C95.5035 47.6267 95.4501 47.9733 95.3755 48.336C95.3648 48.3787 95.3275 48.4 95.2635 48.4C95.1995 48.3893 95.1728 48.3627 95.1835 48.32C95.2155 48.16 95.2315 48.016 95.2315 47.888C95.2315 47.568 95.1408 47.3387 94.9595 47.2C94.7781 47.0507 94.5008 46.976 94.1275 46.976H92.0635L91.4075 50.64C91.3755 50.832 91.3595 50.992 91.3595 51.12C91.3595 51.344 91.4235 51.4987 91.5515 51.584C91.6901 51.6587 91.9408 51.696 92.3035 51.696H93.6315C94.1008 51.696 94.5595 51.504 95.0075 51.12C95.4555 50.7253 95.8181 50.208 96.0955 49.568C96.1168 49.536 96.1541 49.5253 96.2075 49.536C96.2715 49.5467 96.2928 49.568 96.2715 49.6C96.0795 50.2187 95.9088 50.9387 95.7595 51.76C95.7381 51.856 95.7115 51.92 95.6795 51.952C95.6475 51.984 95.5888 52 95.5035 52H88.9595C88.9381 52 88.9275 51.968 88.9275 51.904C88.9275 51.84 88.9381 51.808 88.9595 51.808C89.2901 51.808 89.5355 51.7813 89.6955 51.728C89.8555 51.6747 89.9728 51.5733 90.0475 51.424C90.1328 51.2747 90.2075 51.0347 90.2715 50.704L91.5675 43.296C91.6101 43.1147 91.6315 42.9387 91.6315 42.768C91.6315 42.544 91.5622 42.3947 91.4235 42.32C91.2848 42.2347 91.0341 42.192 90.6715 42.192C90.6395 42.192 90.6235 42.16 90.6235 42.096C90.6235 42.032 90.6395 42 90.6715 42H96.8475Z" fill="#0A0809"/>
<path d="M104.088 50.768C104.109 50.7467 104.125 50.736 104.136 50.736C104.168 50.736 104.195 50.7573 104.216 50.8C104.237 50.832 104.237 50.864 104.216 50.896C103.853 51.3227 103.528 51.6373 103.24 51.84C102.952 52.0427 102.669 52.144 102.392 52.144C102.179 52.144 102.024 52.0853 101.928 51.968C101.832 51.84 101.784 51.6373 101.784 51.36C101.784 51.1787 101.811 50.9173 101.864 50.576L102.328 48.032C102.392 47.712 102.424 47.4347 102.424 47.2C102.424 46.624 102.216 46.336 101.8 46.336C101.459 46.336 101.107 46.5547 100.744 46.992C100.381 47.4293 100.04 48.064 99.72 48.896C99.4 49.728 99.1386 50.7147 98.936 51.856C98.9146 51.9413 98.8506 52.0053 98.744 52.048C98.6373 52.1013 98.4933 52.128 98.312 52.128C98.024 52.128 97.88 52.0907 97.88 52.016L97.944 51.696C98.04 51.2373 98.0986 50.944 98.12 50.816L98.776 47.248C98.808 47.088 98.824 46.9547 98.824 46.848C98.824 46.5173 98.7226 46.352 98.52 46.352C98.264 46.352 97.912 46.5867 97.464 47.056C97.4533 47.0667 97.4373 47.072 97.416 47.072C97.384 47.072 97.3573 47.056 97.336 47.024C97.3146 46.9813 97.3146 46.9493 97.336 46.928C97.6986 46.5013 98.0346 46.1867 98.344 45.984C98.6533 45.7813 98.952 45.68 99.24 45.68C99.4533 45.68 99.608 45.744 99.704 45.872C99.8 45.9893 99.848 46.1813 99.848 46.448C99.848 46.608 99.8213 46.848 99.768 47.168L99.448 48.928C99.832 47.8827 100.28 47.072 100.792 46.496C101.304 45.9093 101.843 45.616 102.408 45.616C102.76 45.616 103.021 45.7173 103.192 45.92C103.373 46.1227 103.464 46.432 103.464 46.848C103.464 47.0933 103.432 47.3867 103.368 47.728L102.84 50.576C102.808 50.736 102.792 50.8693 102.792 50.976C102.792 51.296 102.893 51.456 103.096 51.456C103.203 51.456 103.336 51.3973 103.496 51.28C103.656 51.1627 103.853 50.992 104.088 50.768Z" fill="#0A0809"/>
<path d="M110.583 45.696C110.636 45.696 110.663 45.7653 110.663 45.904C110.663 46.0533 110.636 46.208 110.583 46.368C110.54 46.5173 110.497 46.5813 110.455 46.56C110.145 46.368 109.745 46.2827 109.255 46.304C109.479 46.624 109.591 47.008 109.591 47.456C109.591 47.68 109.569 47.8827 109.527 48.064C109.431 48.5333 109.244 48.9493 108.967 49.312C108.689 49.664 108.359 49.9413 107.975 50.144C107.601 50.336 107.217 50.432 106.823 50.432C106.727 50.432 106.604 50.4213 106.455 50.4C106.337 50.5707 106.279 50.752 106.279 50.944C106.279 51.1893 106.391 51.4027 106.615 51.584C106.839 51.7547 107.191 51.9627 107.671 52.208C108.268 52.496 108.727 52.7787 109.047 53.056C109.377 53.3333 109.543 53.6907 109.543 54.128C109.543 54.5547 109.383 54.9493 109.063 55.312C108.753 55.6747 108.337 55.9627 107.815 56.176C107.292 56.3893 106.727 56.496 106.119 56.496C105.361 56.496 104.764 56.3413 104.327 56.032C103.889 55.7227 103.671 55.344 103.671 54.896C103.671 54.4373 103.868 54.0213 104.263 53.648C104.647 53.2747 105.201 52.8907 105.927 52.496C105.543 52.2293 105.351 51.936 105.351 51.616C105.351 51.5413 105.356 51.488 105.367 51.456C105.409 51.2747 105.5 51.0987 105.639 50.928C105.777 50.7467 105.969 50.5493 106.215 50.336C105.873 50.2187 105.612 50.0107 105.431 49.712C105.249 49.4133 105.159 49.056 105.159 48.64C105.159 48.512 105.18 48.32 105.223 48.064C105.351 47.392 105.671 46.8373 106.183 46.4C106.705 45.952 107.292 45.728 107.943 45.728C108.38 45.728 108.743 45.8453 109.031 46.08C109.596 45.824 110.113 45.696 110.583 45.696ZM108.503 48.4C108.524 48.2827 108.535 48.1013 108.535 47.856C108.535 47.3547 108.455 46.928 108.295 46.576C108.135 46.2133 107.889 46.032 107.559 46.032C107.26 46.032 106.988 46.1973 106.743 46.528C106.497 46.8587 106.337 47.2693 106.263 47.76C106.231 47.9627 106.215 48.1653 106.215 48.368C106.215 48.8587 106.305 49.2747 106.487 49.616C106.668 49.9467 106.913 50.112 107.223 50.112C107.521 50.112 107.788 49.9573 108.023 49.648C108.268 49.3387 108.428 48.9227 108.503 48.4ZM108.599 54.752C108.599 54.368 108.449 54.0533 108.151 53.808C107.863 53.5733 107.431 53.3067 106.855 53.008C106.535 52.8587 106.284 52.7253 106.103 52.608C105.676 52.8747 105.34 53.1413 105.095 53.408C104.86 53.6853 104.743 54.0213 104.743 54.416C104.743 54.8853 104.94 55.2693 105.335 55.568C105.74 55.8773 106.263 56.032 106.903 56.032C107.447 56.032 107.863 55.9093 108.151 55.664C108.449 55.4187 108.599 55.1147 108.599 54.752Z" fill="#0A0809"/>
<path d="M112.228 52.144C111.801 52.144 111.588 51.8827 111.588 51.36C111.588 51.136 111.62 50.8747 111.684 50.576L112.34 47.248C112.372 47.088 112.388 46.9493 112.388 46.832C112.388 46.512 112.287 46.352 112.084 46.352C111.967 46.352 111.817 46.416 111.636 46.544C111.455 46.6613 111.257 46.832 111.044 47.056C111.033 47.0667 111.017 47.072 110.996 47.072C110.964 47.072 110.932 47.056 110.9 47.024C110.879 46.9813 110.884 46.9493 110.916 46.928C111.62 46.096 112.244 45.68 112.788 45.68C113.001 45.68 113.156 45.744 113.252 45.872C113.359 45.9893 113.412 46.176 113.412 46.432C113.412 46.6773 113.385 46.9227 113.332 47.168L112.676 50.576C112.644 50.736 112.628 50.8747 112.628 50.992C112.628 51.3013 112.724 51.456 112.916 51.456C113.161 51.456 113.497 51.232 113.924 50.784C113.935 50.7733 113.951 50.768 113.972 50.768C114.015 50.768 114.047 50.7893 114.068 50.832C114.089 50.864 114.084 50.8907 114.052 50.912C113.7 51.328 113.375 51.6373 113.076 51.84C112.788 52.0427 112.505 52.144 112.228 52.144ZM113.252 43.856C113.017 43.856 112.831 43.792 112.692 43.664C112.564 43.5253 112.5 43.3387 112.5 43.104C112.5 42.88 112.564 42.704 112.692 42.576C112.831 42.448 113.017 42.384 113.252 42.384C113.487 42.384 113.668 42.448 113.796 42.576C113.935 42.704 114.004 42.88 114.004 43.104C114.004 43.3387 113.94 43.5253 113.812 43.664C113.684 43.792 113.497 43.856 113.252 43.856Z" fill="#0A0809"/>
<path d="M121.541 50.768C121.562 50.7467 121.578 50.736 121.589 50.736C121.621 50.736 121.648 50.7573 121.669 50.8C121.69 50.832 121.69 50.864 121.669 50.896C121.306 51.3227 120.981 51.6373 120.693 51.84C120.405 52.0427 120.122 52.144 119.845 52.144C119.632 52.144 119.477 52.0853 119.381 51.968C119.285 51.84 119.237 51.6373 119.237 51.36C119.237 51.1787 119.264 50.9173 119.317 50.576L119.781 48.032C119.845 47.712 119.877 47.4347 119.877 47.2C119.877 46.624 119.669 46.336 119.253 46.336C118.912 46.336 118.56 46.5547 118.197 46.992C117.834 47.4293 117.493 48.064 117.173 48.896C116.853 49.728 116.592 50.7147 116.389 51.856C116.368 51.9413 116.304 52.0053 116.197 52.048C116.09 52.1013 115.946 52.128 115.765 52.128C115.477 52.128 115.333 52.0907 115.333 52.016L115.397 51.696C115.493 51.2373 115.552 50.944 115.573 50.816L116.229 47.248C116.261 47.088 116.277 46.9547 116.277 46.848C116.277 46.5173 116.176 46.352 115.973 46.352C115.717 46.352 115.365 46.5867 114.917 47.056C114.906 47.0667 114.89 47.072 114.869 47.072C114.837 47.072 114.81 47.056 114.789 47.024C114.768 46.9813 114.768 46.9493 114.789 46.928C115.152 46.5013 115.488 46.1867 115.797 45.984C116.106 45.7813 116.405 45.68 116.693 45.68C116.906 45.68 117.061 45.744 117.157 45.872C117.253 45.9893 117.301 46.1813 117.301 46.448C117.301 46.608 117.274 46.848 117.221 47.168L116.901 48.928C117.285 47.8827 117.733 47.072 118.245 46.496C118.757 45.9093 119.296 45.616 119.861 45.616C120.213 45.616 120.474 45.7173 120.645 45.92C120.826 46.1227 120.917 46.432 120.917 46.848C120.917 47.0933 120.885 47.3867 120.821 47.728L120.293 50.576C120.261 50.736 120.245 50.8693 120.245 50.976C120.245 51.296 120.346 51.456 120.549 51.456C120.656 51.456 120.789 51.3973 120.949 51.28C121.109 51.1627 121.306 50.992 121.541 50.768Z" fill="#0A0809"/>
<path d="M126.239 45.616C126.613 45.616 126.901 45.6853 127.103 45.824C127.306 45.952 127.407 46.128 127.407 46.352C127.407 46.8533 127.039 47.312 126.303 47.728C125.578 48.1333 124.698 48.4267 123.663 48.608C123.621 48.864 123.599 49.1413 123.599 49.44C123.599 50.0907 123.738 50.6133 124.015 51.008C124.303 51.4027 124.719 51.6 125.263 51.6C125.85 51.6 126.367 51.424 126.815 51.072H126.831C126.863 51.072 126.89 51.088 126.911 51.12C126.943 51.152 126.949 51.184 126.927 51.216C126.17 51.8667 125.375 52.192 124.543 52.192C123.839 52.192 123.311 51.9733 122.959 51.536C122.607 51.0987 122.431 50.5333 122.431 49.84C122.431 49.6053 122.458 49.3387 122.511 49.04C122.618 48.4853 122.847 47.9467 123.199 47.424C123.562 46.8907 124.01 46.4587 124.543 46.128C125.077 45.7867 125.642 45.616 126.239 45.616ZM126.143 46.816C126.165 46.7093 126.175 46.64 126.175 46.608C126.175 46.4267 126.106 46.288 125.967 46.192C125.839 46.096 125.679 46.048 125.487 46.048C125.05 46.048 124.677 46.2667 124.367 46.704C124.058 47.1307 123.834 47.6907 123.695 48.384C125.167 48.1067 125.983 47.584 126.143 46.816Z" fill="#0A0809"/>
<path d="M131.786 45.616C132.159 45.616 132.447 45.6853 132.65 45.824C132.853 45.952 132.954 46.128 132.954 46.352C132.954 46.8533 132.586 47.312 131.85 47.728C131.125 48.1333 130.245 48.4267 129.21 48.608C129.167 48.864 129.146 49.1413 129.146 49.44C129.146 50.0907 129.285 50.6133 129.562 51.008C129.85 51.4027 130.266 51.6 130.81 51.6C131.397 51.6 131.914 51.424 132.362 51.072H132.378C132.41 51.072 132.437 51.088 132.458 51.12C132.49 51.152 132.495 51.184 132.474 51.216C131.717 51.8667 130.922 52.192 130.09 52.192C129.386 52.192 128.858 51.9733 128.506 51.536C128.154 51.0987 127.978 50.5333 127.978 49.84C127.978 49.6053 128.005 49.3387 128.058 49.04C128.165 48.4853 128.394 47.9467 128.746 47.424C129.109 46.8907 129.557 46.4587 130.09 46.128C130.623 45.7867 131.189 45.616 131.786 45.616ZM131.69 46.816C131.711 46.7093 131.722 46.64 131.722 46.608C131.722 46.4267 131.653 46.288 131.514 46.192C131.386 46.096 131.226 46.048 131.034 46.048C130.597 46.048 130.223 46.2667 129.914 46.704C129.605 47.1307 129.381 47.6907 129.242 48.384C130.714 48.1067 131.53 47.584 131.69 46.816Z" fill="#0A0809"/>
<path d="M137.797 45.68C138.021 45.68 138.234 45.76 138.437 45.92C138.64 46.08 138.741 46.2667 138.741 46.48C138.741 46.64 138.682 46.784 138.565 46.912C138.458 47.0293 138.32 47.088 138.149 47.088C138.032 47.088 137.936 47.0667 137.861 47.024C137.786 46.9707 137.706 46.896 137.621 46.8C137.568 46.7467 137.509 46.6987 137.445 46.656C137.392 46.6027 137.328 46.576 137.253 46.576C137.04 46.576 136.778 46.88 136.469 47.488C136.17 48.0853 135.882 48.8053 135.605 49.648C135.338 50.48 135.141 51.216 135.013 51.856C134.992 51.9413 134.928 52.0053 134.821 52.048C134.714 52.1013 134.57 52.128 134.389 52.128C134.112 52.128 133.973 52.0907 133.973 52.016C133.984 51.952 134.016 51.7867 134.069 51.52C134.133 51.2533 134.181 51.0187 134.213 50.816L134.789 47.664C134.832 47.4187 134.853 47.1947 134.853 46.992C134.853 46.5653 134.736 46.352 134.501 46.352C134.277 46.352 133.962 46.5547 133.557 46.96C133.546 46.9707 133.53 46.976 133.509 46.976C133.477 46.976 133.45 46.96 133.429 46.928C133.408 46.8853 133.408 46.8533 133.429 46.832C133.77 46.4373 134.085 46.1493 134.373 45.968C134.661 45.776 134.944 45.68 135.221 45.68C135.445 45.68 135.61 45.7493 135.717 45.888C135.824 46.0267 135.877 46.2613 135.877 46.592C135.877 46.848 135.845 47.1787 135.781 47.584L135.445 49.456C135.786 48.3573 136.16 47.456 136.565 46.752C136.981 46.0373 137.392 45.68 137.797 45.68Z" fill="#0A0809"/>
<path d="M140.369 52.144C139.942 52.144 139.729 51.8827 139.729 51.36C139.729 51.136 139.761 50.8747 139.825 50.576L140.481 47.248C140.513 47.088 140.529 46.9493 140.529 46.832C140.529 46.512 140.427 46.352 140.225 46.352C140.107 46.352 139.958 46.416 139.777 46.544C139.595 46.6613 139.398 46.832 139.185 47.056C139.174 47.0667 139.158 47.072 139.137 47.072C139.105 47.072 139.073 47.056 139.041 47.024C139.019 46.9813 139.025 46.9493 139.057 46.928C139.761 46.096 140.385 45.68 140.929 45.68C141.142 45.68 141.297 45.744 141.393 45.872C141.499 45.9893 141.553 46.176 141.553 46.432C141.553 46.6773 141.526 46.9227 141.473 47.168L140.817 50.576C140.785 50.736 140.769 50.8747 140.769 50.992C140.769 51.3013 140.865 51.456 141.057 51.456C141.302 51.456 141.638 51.232 142.065 50.784C142.075 50.7733 142.091 50.768 142.113 50.768C142.155 50.768 142.187 50.7893 142.209 50.832C142.23 50.864 142.225 50.8907 142.193 50.912C141.841 51.328 141.515 51.6373 141.217 51.84C140.929 52.0427 140.646 52.144 140.369 52.144ZM141.393 43.856C141.158 43.856 140.971 43.792 140.833 43.664C140.705 43.5253 140.641 43.3387 140.641 43.104C140.641 42.88 140.705 42.704 140.833 42.576C140.971 42.448 141.158 42.384 141.393 42.384C141.627 42.384 141.809 42.448 141.937 42.576C142.075 42.704 142.145 42.88 142.145 43.104C142.145 43.3387 142.081 43.5253 141.953 43.664C141.825 43.792 141.638 43.856 141.393 43.856Z" fill="#0A0809"/>
<path d="M149.682 50.768C149.703 50.7467 149.719 50.736 149.73 50.736C149.762 50.736 149.788 50.7573 149.81 50.8C149.831 50.832 149.831 50.864 149.81 50.896C149.447 51.3227 149.122 51.6373 148.834 51.84C148.546 52.0427 148.263 52.144 147.986 52.144C147.772 52.144 147.618 52.0853 147.522 51.968C147.426 51.84 147.378 51.6373 147.378 51.36C147.378 51.1787 147.404 50.9173 147.458 50.576L147.922 48.032C147.986 47.712 148.018 47.4347 148.018 47.2C148.018 46.624 147.81 46.336 147.394 46.336C147.052 46.336 146.7 46.5547 146.338 46.992C145.975 47.4293 145.634 48.064 145.314 48.896C144.994 49.728 144.732 50.7147 144.53 51.856C144.508 51.9413 144.444 52.0053 144.338 52.048C144.231 52.1013 144.087 52.128 143.906 52.128C143.618 52.128 143.474 52.0907 143.474 52.016L143.538 51.696C143.634 51.2373 143.692 50.944 143.714 50.816L144.37 47.248C144.402 47.088 144.418 46.9547 144.418 46.848C144.418 46.5173 144.316 46.352 144.114 46.352C143.858 46.352 143.506 46.5867 143.058 47.056C143.047 47.0667 143.031 47.072 143.01 47.072C142.978 47.072 142.951 47.056 142.93 47.024C142.908 46.9813 142.908 46.9493 142.93 46.928C143.292 46.5013 143.628 46.1867 143.938 45.984C144.247 45.7813 144.546 45.68 144.834 45.68C145.047 45.68 145.202 45.744 145.298 45.872C145.394 45.9893 145.442 46.1813 145.442 46.448C145.442 46.608 145.415 46.848 145.362 47.168L145.042 48.928C145.426 47.8827 145.874 47.072 146.386 46.496C146.898 45.9093 147.436 45.616 148.002 45.616C148.354 45.616 148.615 45.7173 148.786 45.92C148.967 46.1227 149.058 46.432 149.058 46.848C149.058 47.0933 149.026 47.3867 148.962 47.728L148.434 50.576C148.402 50.736 148.386 50.8693 148.386 50.976C148.386 51.296 148.487 51.456 148.69 51.456C148.796 51.456 148.93 51.3973 149.09 51.28C149.25 51.1627 149.447 50.992 149.682 50.768Z" fill="#0A0809"/>
<path d="M156.176 45.696C156.23 45.696 156.256 45.7653 156.256 45.904C156.256 46.0533 156.23 46.208 156.176 46.368C156.134 46.5173 156.091 46.5813 156.048 46.56C155.739 46.368 155.339 46.2827 154.848 46.304C155.072 46.624 155.184 47.008 155.184 47.456C155.184 47.68 155.163 47.8827 155.12 48.064C155.024 48.5333 154.838 48.9493 154.56 49.312C154.283 49.664 153.952 49.9413 153.568 50.144C153.195 50.336 152.811 50.432 152.416 50.432C152.32 50.432 152.198 50.4213 152.048 50.4C151.931 50.5707 151.872 50.752 151.872 50.944C151.872 51.1893 151.984 51.4027 152.208 51.584C152.432 51.7547 152.784 51.9627 153.264 52.208C153.862 52.496 154.32 52.7787 154.64 53.056C154.971 53.3333 155.136 53.6907 155.136 54.128C155.136 54.5547 154.976 54.9493 154.656 55.312C154.347 55.6747 153.931 55.9627 153.408 56.176C152.886 56.3893 152.32 56.496 151.712 56.496C150.955 56.496 150.358 56.3413 149.92 56.032C149.483 55.7227 149.264 55.344 149.264 54.896C149.264 54.4373 149.462 54.0213 149.856 53.648C150.24 53.2747 150.795 52.8907 151.52 52.496C151.136 52.2293 150.944 51.936 150.944 51.616C150.944 51.5413 150.95 51.488 150.96 51.456C151.003 51.2747 151.094 51.0987 151.232 50.928C151.371 50.7467 151.563 50.5493 151.808 50.336C151.467 50.2187 151.206 50.0107 151.024 49.712C150.843 49.4133 150.752 49.056 150.752 48.64C150.752 48.512 150.774 48.32 150.816 48.064C150.944 47.392 151.264 46.8373 151.776 46.4C152.299 45.952 152.886 45.728 153.536 45.728C153.974 45.728 154.336 45.8453 154.624 46.08C155.19 45.824 155.707 45.696 156.176 45.696ZM154.096 48.4C154.118 48.2827 154.128 48.1013 154.128 47.856C154.128 47.3547 154.048 46.928 153.888 46.576C153.728 46.2133 153.483 46.032 153.152 46.032C152.854 46.032 152.582 46.1973 152.336 46.528C152.091 46.8587 151.931 47.2693 151.856 47.76C151.824 47.9627 151.808 48.1653 151.808 48.368C151.808 48.8587 151.899 49.2747 152.08 49.616C152.262 49.9467 152.507 50.112 152.816 50.112C153.115 50.112 153.382 49.9573 153.616 49.648C153.862 49.3387 154.022 48.9227 154.096 48.4ZM154.192 54.752C154.192 54.368 154.043 54.0533 153.744 53.808C153.456 53.5733 153.024 53.3067 152.448 53.008C152.128 52.8587 151.878 52.7253 151.696 52.608C151.27 52.8747 150.934 53.1413 150.688 53.408C150.454 53.6853 150.336 54.0213 150.336 54.416C150.336 54.8853 150.534 55.2693 150.928 55.568C151.334 55.8773 151.856 56.032 152.496 56.032C153.04 56.032 153.456 55.9093 153.744 55.664C154.043 55.4187 154.192 55.1147 154.192 54.752Z" fill="#0A0809"/>
<path d="M61.5964 28.0829C64.9225 30.6731 67.0775 31.6326 72.9825 29.8446C77.5684 26.7494 77.6763 25.0667 77.537 22.0726C69.8678 30.0756 67.0612 28.7142 61.5964 28.0829Z" fill="#52474E"/>
<path d="M55.6963 31.399C61.5964 33.9896 70.4983 33.2642 73.2931 32.4352C76.0878 31.6062 75.8147 31.6728 76.7089 32.7461C74.9226 34.6991 73.8383 35.8056 73.8106 37.513C73.5909 39.7042 73.4763 40.2444 73.2931 39.4819C73.1098 38.7193 67.7035 38.342 62.114 37.8238C56.5244 37.3057 54.5879 34.6699 55.6963 31.399Z" fill="#52474E"/>
<path d="M48.1401 15.1295C45.938 17.8659 44.9226 19.3722 45.4488 21.7617C45.5732 21.1905 45.872 21.404 46.4839 21.9689C48.2627 27.0599 50.6494 28.7158 56.4209 30.3627C58.8678 30.7195 61.2143 30.6188 62.4245 30.6736C63.0397 30.06 62.6176 29.6781 60.1473 28.9119C53.3695 25.6105 50.8987 23.465 49.0717 19.0674C49.1854 16.8863 48.5106 14.4766 48.1401 15.1295Z" fill="#52474E"/>
<path d="M77.537 33.2642C79.1931 30.3627 83.6441 32.9534 83.8511 35.4404C84.0581 37.9275 84.1043 37.9244 84.1616 40C82.4296 39.1827 82.609 39.4819 79.5037 39.4819C76.3984 39.4819 75.0527 36.4767 76.7089 34.4041C77.7762 34.4479 78.7726 34.9559 81.0563 36.4767C80.3921 34.796 79.5246 34.1508 77.537 33.2642Z" fill="#52474E"/>
<path d="M50.3138 29.2228C48.5541 26.0238 43.3786 28.2902 43.0681 31.6062C42.7576 34.9223 43.6426 36.5242 43.0681 37.6166C45.59 37.2571 48.7612 37.9275 50.3138 37.4093C51.8665 36.8912 54.5577 32.7461 50.8314 30.1554C49.8612 30.8569 49.3173 30.6975 48.3471 31.399L46.898 33.057C47.6888 31.7759 47.105 31.0881 50.3138 29.2228Z" fill="#52474E"/>
<path d="M77.951 19.8964C79.2966 21.3472 82.7321 23.7666 74.3282 31.0881C76.5708 31.6068 77.8214 31.5867 80.0212 30.1554C81.74 29.1045 82.6595 28.3709 83.8511 25.5959C84.0897 24.7205 85.2967 24.4073 85.3356 25.285V24.5596C84.3603 20.807 85.0932 19.0674 84.1616 14.9223C82.9197 11.9675 81.6142 10.7355 78.158 9.32644C77.6505 10.3955 78.158 11.0881 78.158 11.0881C78.158 11.0881 79.7953 14.3261 79.1931 16.3731C78.1007 18.1763 77.7223 19.0227 77.951 19.8964Z" fill="#52474E"/>
<path d="M71.9828 21.8653C66.2565 23.5982 62.9939 24.3291 56.2493 21.3471C56.5983 23.9594 57.4123 25.2552 61.5283 26.8394C64.3175 27.3854 65.8813 27.2818 68.6705 26.8394C71.283 24.8874 71.6793 23.8007 71.9828 21.8653Z" fill="#52474E"/>
<path d="M67.4284 15.1295C66.0827 14.715 64.7047 14.4642 63.5985 15.544C63.9963 14.1077 65.096 13.2032 67.8424 13.3679C69.9814 14.5334 70.6382 17.0461 70.3267 17.6166C70.0151 18.187 69.8791 18.2551 69.7056 17.9275C69.2618 16.5585 68.774 15.544 67.4284 15.1295Z" fill="#52474E"/>
<path d="M49.0036 10.7772C49.4375 16.4842 50.0742 19.3401 54.0756 23.0052C54.0756 23.4197 54.8033 22.1388 54.4896 20C53.6261 18.2902 53.4545 17.7294 53.4545 15.6568C52.937 8.29015 59.5616 3.73973 65.9792 3.73973C62.0458 2.59983 64.7371 1.34715 55.1107 1.34715C53.8938 0.971526 53.6973 0.655178 53.765 0C49.8832 5.35569 48.7568 7.76313 49.0036 10.7772Z" fill="#52474E"/>
<path d="M59.5616 15.6568C59.5616 15.6568 61.0137 17.5989 62.6669 18.6528C62.2433 17.6854 61.7798 15.86 62.4599 14.3005C63.3868 12.1751 65.6142 12.5321 67.6354 11.399C66.4968 10.0518 62.097 10.8105 60.5967 12.3316C58.66 13.9711 59.0033 14.5321 58.837 15.9585C59.044 15.4404 59.5616 15.6568 59.5616 15.6568Z" fill="#52474E"/>
<path d="M64.5301 16.4767C64.2829 17.0167 64.4634 17.1191 64.9441 17.2021C64.9441 17.2021 64.7371 16.7876 65.2547 16.4767C65.7722 16.1658 66.1862 16.2694 66.7038 16.4767C67.2213 16.6839 67.6354 16.9948 68.0494 17.8238C68.4635 18.6528 68.2564 15.4404 66.7038 15.6568C65.1511 15.8732 65.2374 15.7265 64.5301 16.4767Z" fill="#52474E"/>
<path d="M66.2235 17.8238C66.0846 18.1838 65.62 17.6304 65.6024 17.2021C65.3762 17.4778 65.4219 17.6292 65.3582 17.7202C65.3134 18.1508 65.6687 18.4456 66.1862 18.4456C66.7038 18.4456 66.9108 17.9275 67.3249 17.9275C67.7389 17.9275 66.3623 17.4639 66.2235 17.8238Z" fill="#52474E"/>
<path d="M65.9792 19.0674C65.0476 18.9637 63.5688 18.1634 63.702 17.2021C63.2208 17.6254 63.0002 17.8808 63.1845 18.5492C63.5413 19.9227 64.385 19.8438 65.6687 20.5181C67.2736 20.7952 68.0644 20.6897 69.3951 20.3109C70.0561 19.3989 69.188 18.1347 69.188 18.342C68.0305 18.9119 66.9108 19.171 65.9792 19.0674Z" fill="#52474E"/>
<path d="M71.4653 20.3109C71.591 14.9547 69.9713 14.6393 68.0494 12.5389C67.5686 12.2197 68.774 12.6425 69.188 12.6425C69.583 12.6425 70.7592 12.71 70.7505 12.6518C70.7472 12.6487 70.744 12.6456 70.7407 12.6425C70.7469 12.6459 70.7501 12.649 70.7505 12.6518C74.5467 16.2733 72.9132 18.5507 71.4653 20.3109Z" fill="#52474E"/>
<path d="M58.0089 15.9585C57.4167 14.7906 58.423 14.3005 58.0089 13.057C56.0849 14.6945 55.2384 15.683 55.3177 17.9275C56.8951 20.8326 64.377 22.6643 66.8073 21.1399C66.2792 21.3296 65.8383 21.3737 64.3231 21.1399C61.0504 19.9852 59.4571 19.0778 58.0089 15.9585Z" fill="#52474E"/>
<path d="M56.8703 12.3316C60.4931 0.725371 73.3284 5.59583 73.3284 5.59583C73.9494 5.80309 74.1565 5.18135 74.1565 5.18135C74.6913 6.68942 77.4688 10.3627 77.4688 16.9948C76.3199 20.7798 74.9253 22.3404 72.0343 24.5688C80.5257 13.5639 67.8528 4.0315 56.8703 12.3316Z" fill="#52474E"/>
<path d="M65.9792 16.9948C66.6427 17.0451 66.7749 17.1313 66.4968 17.4093C66.9861 16.9858 67.0539 16.8266 65.9792 16.9948Z" fill="#52474E"/>
<path d="M65.6687 2.17616C66.3352 3.21182 67.1746 3.04704 68.2776 3.00517C77.0213 2.77801 78.4216 8.49741 78.4216 8.49741C78.4216 8.49741 81.2297 7.05168 78.918 2.17616C73.12 0.164037 70.2245 0.181323 65.6687 2.17616Z" fill="#52474E"/>
<path d="M12.3047 19.0483V23.4868C12.3047 24.7466 12.3047 25.8525 12.3047 26.8047C12.3193 27.7422 12.3266 28.5405 12.3266 29.1997C12.3413 29.8589 12.3486 30.4302 12.3486 30.9136C12.3633 31.3823 12.3779 31.7925 12.3926 32.144C12.4072 32.4956 12.4219 32.8252 12.4365 33.1328C12.4512 33.543 12.4951 33.8726 12.5683 34.1216C12.6562 34.356 12.8613 34.5537 13.1836 34.7148C13.5205 34.8613 14.0259 34.9785 14.6997 35.0664C15.3882 35.1543 16.3476 35.2422 17.5781 35.3301L16.6992 37.3076C16.5381 37.293 16.2158 37.2637 15.7324 37.2197C15.2637 37.1904 14.6924 37.1611 14.0185 37.1318C13.3447 37.1025 12.605 37.0732 11.7993 37.0439C10.9936 37.0146 10.188 37 9.38231 37C8.38621 37 7.43406 37.0146 6.52586 37.0439C5.63231 37.0879 4.82664 37.1318 4.10887 37.1758C3.40574 37.2197 2.83445 37.2637 2.395 37.3076C1.9409 37.3369 1.6699 37.3516 1.58201 37.3516C1.58201 37.2197 1.60399 37.0366 1.64793 36.8022C1.70652 36.5532 1.88231 36.2969 2.17527 36.0332C2.46824 35.7695 2.93699 35.5278 3.58152 35.3081C4.22606 35.0884 5.14158 34.9346 6.32811 34.8467C6.3867 34.2314 6.43065 33.4624 6.45994 32.5396C6.50389 31.6021 6.53319 30.5986 6.54783 29.5293C6.57713 28.4453 6.59178 27.332 6.59178 26.1895V16.8071C6.59178 15.1665 6.58445 13.7969 6.56981 12.6982C6.56981 11.5996 6.56248 10.7207 6.54783 10.0615C6.53319 9.3877 6.51854 8.83105 6.50389 8.3916C6.48924 7.9375 6.47459 7.53467 6.45994 7.18311C6.44529 6.84619 6.43065 6.44336 6.416 5.97461C6.3867 5.56445 6.33543 5.24219 6.26219 5.00781C6.2036 4.77344 6.01317 4.59033 5.6909 4.4585C5.38328 4.32666 4.89988 4.22412 4.2407 4.15088C3.59617 4.06299 2.68065 3.96777 1.49412 3.86523L2.24119 1.93164C2.37303 1.96094 2.68797 1.99023 3.18602 2.01953C3.69871 2.04883 4.2993 2.07812 4.98777 2.10742C5.6909 2.13672 6.44529 2.15869 7.25096 2.17334C8.05662 2.18799 8.81834 2.19531 9.53611 2.19531C10.6933 2.19531 11.748 2.17334 12.7002 2.12939C13.6523 2.08545 14.4653 2.0415 15.1391 1.99756C15.813 1.95361 16.3403 1.90967 16.7212 1.86572C17.102 1.82178 17.3144 1.7998 17.3584 1.7998C17.3584 1.99023 17.3218 2.21729 17.2485 2.48096C17.1899 2.72998 17.0068 2.98633 16.6992 3.25C16.3916 3.49902 15.9155 3.7334 15.271 3.95312C14.6264 4.17285 13.7256 4.33398 12.5683 4.43652C12.5097 5.27148 12.4585 6.13574 12.4145 7.0293C12.3852 7.92285 12.3633 8.94092 12.3486 10.0835C12.334 11.2114 12.3193 12.5078 12.3047 13.9727C12.3047 15.4229 12.3047 17.1147 12.3047 19.0483ZM12.9199 19.8174C14.3408 18.6748 15.7397 17.4883 17.1167 16.2578C18.4936 15.0127 19.8193 13.7969 21.0937 12.6104C22.4853 11.2773 23.6206 10.1641 24.4995 9.27051C25.393 8.3623 26.0962 7.61523 26.6089 7.0293C27.1216 6.42871 27.4731 5.95996 27.6636 5.62305C27.854 5.28613 27.9492 5.01514 27.9492 4.81006C27.9492 4.66357 27.9053 4.54639 27.8174 4.4585C27.7295 4.37061 27.5683 4.30469 27.334 4.26074C27.1142 4.20215 26.8066 4.1582 26.4111 4.12891C26.0156 4.09961 25.5176 4.07031 24.917 4.04102L25.4883 2.01953C25.6933 2.03418 25.979 2.05615 26.3452 2.08545C26.7261 2.1001 27.1509 2.11475 27.6196 2.12939C28.103 2.14404 28.623 2.15869 29.1797 2.17334C29.7363 2.18799 30.3003 2.19531 30.8716 2.19531C32.3071 2.19531 33.6621 2.15869 34.9365 2.08545C36.2109 2.01221 37.2949 1.91699 38.1885 1.7998C38.1885 2.15137 38.1079 2.47363 37.9468 2.7666C37.7856 3.04492 37.5146 3.29395 37.1338 3.51367C36.7529 3.7334 36.2475 3.9165 35.6177 4.06299C35.0024 4.20947 34.2334 4.31934 33.3105 4.39258C32.7539 4.86133 32.0874 5.44727 31.311 6.15039C30.5347 6.83887 29.6997 7.60059 28.8061 8.43555C27.9272 9.25586 27.019 10.1128 26.0815 11.0063C25.144 11.8853 24.2358 12.7495 23.3569 13.5991C22.4927 14.4341 21.6797 15.2324 20.918 15.9941C20.1562 16.7412 19.5117 17.3857 18.9844 17.9277C21.9726 21.4727 24.5288 24.5342 26.6528 27.1123C28.7622 29.6904 30.4687 31.624 31.7724 32.9131C32.2265 33.3672 32.644 33.7334 33.0249 34.0117C33.4204 34.29 33.8672 34.5171 34.3652 34.6929C34.8633 34.854 35.4492 34.9785 36.123 35.0664C36.8115 35.1543 37.6758 35.2275 38.7158 35.2861L37.8369 37.2637C37.6611 37.249 37.3388 37.2271 36.8701 37.1978C36.4013 37.1685 35.8301 37.1392 35.1562 37.1099C34.4824 37.0806 33.7353 37.0513 32.915 37.022C32.0947 37.0073 31.2597 37 30.4101 37C29.8389 37 29.2602 37.0073 28.6743 37.022C28.0884 37.0366 27.6123 37.0586 27.2461 37.0879C24.873 33.9678 22.5146 30.9795 20.1709 28.123C17.8418 25.2666 15.4248 22.498 12.9199 19.8174Z" fill="#52474E"/>
</svg>
