<svg width="118" height="55" viewBox="0 0 118 55" fill="none" xmlns="http://www.w3.org/2000/svg">
<path d="M85.2026 38.614C89.7325 42.1755 92.6675 43.4948 100.71 41.0363C106.956 36.7804 107.103 34.4667 106.913 30.3498C96.4678 41.354 92.6453 39.482 85.2026 38.614Z" fill="url(#paint0_linear_311_1589)"/>
<path d="M77.1669 43.1736C85.2026 46.7358 97.3265 45.7383 101.133 44.5984C104.939 43.4586 104.567 43.5501 105.785 45.0259C103.352 47.7112 101.876 49.2326 101.838 51.5803C101.539 54.5933 101.382 55.3361 101.133 54.2876C100.883 53.2391 93.5202 52.7202 85.9075 52.0078C78.2947 51.2953 75.6573 47.6711 77.1669 43.1736Z" fill="url(#paint1_linear_311_1589)"/>
<path d="M66.8756 20.8031C63.8764 24.5656 62.4936 26.6367 63.2102 29.9223C63.3796 29.137 63.7865 29.4305 64.62 30.2073C67.0426 37.2074 70.2932 39.4842 78.1537 41.7487C81.4864 42.2393 84.6821 42.1008 86.3304 42.1762C87.1683 41.3325 86.5934 40.8074 83.2289 39.7539C73.9979 35.2144 70.6327 32.2644 68.1444 26.2176C68.2993 23.2187 67.3802 19.9054 66.8756 20.8031Z" fill="url(#paint2_linear_311_1589)"/>
<path d="M106.913 45.7383C109.169 41.7487 115.231 45.3109 115.512 48.7306C115.794 52.1503 115.857 52.1461 115.935 55C113.576 53.8763 113.821 54.2876 109.591 54.2876C105.362 54.2876 103.529 50.1554 105.785 47.3057C107.239 47.3659 108.596 48.0643 111.706 50.1554C110.801 47.8446 109.62 46.9574 106.913 45.7383Z" fill="url(#paint3_linear_311_1589)"/>
<path d="M69.8361 40.1814C67.4395 35.7827 60.3907 38.899 59.9678 43.4586C59.5449 48.0181 60.7502 50.2207 59.9678 51.7228C63.4025 51.2285 67.7215 52.1503 69.8361 51.4378C71.9508 50.7254 75.6162 45.0259 70.541 41.4637C69.2197 42.4282 68.4789 42.2091 67.1576 43.1736L65.1839 45.4534C66.261 43.6919 65.4659 42.7461 69.8361 40.1814Z" fill="url(#paint4_linear_311_1589)"/>
<path d="M107.477 27.3576C109.31 29.3524 113.989 32.6791 102.543 42.7461C105.597 43.4593 107.3 43.4317 110.296 41.4637C112.637 40.0187 113.89 39.01 115.512 35.1943C115.837 33.9907 117.481 33.56 117.534 34.7668V33.7695C116.206 28.6096 117.204 26.2176 115.935 20.5182C114.244 16.4553 112.466 14.7613 107.759 12.8239C107.068 14.2938 107.759 15.2461 107.759 15.2461C107.759 15.2461 109.989 19.6984 109.169 22.513C107.681 24.9925 107.165 26.1562 107.477 27.3576Z" fill="url(#paint5_linear_311_1589)"/>
<path d="M99.3484 30.0648C91.5494 32.4476 87.1059 33.4525 77.92 29.3523C78.3953 32.9442 79.5039 34.7259 85.1098 36.9041C88.9085 37.6549 91.0384 37.5124 94.8372 36.9041C98.3952 34.2202 98.9351 32.7259 99.3484 30.0648Z" fill="url(#paint6_linear_311_1589)"/>
<path d="M93.1454 20.8031C91.3127 20.2332 89.4359 19.8883 87.9293 21.3731C88.4711 19.398 89.9689 18.1544 93.7093 18.3808C96.6226 19.9835 97.5171 23.4384 97.0928 24.2228C96.6685 25.0072 96.4833 25.1008 96.2469 24.6503C95.6425 22.768 94.9781 21.3731 93.1454 20.8031Z" fill="url(#paint7_linear_311_1589)"/>
<path d="M68.0516 14.8186C68.6426 22.6658 69.5098 26.5927 74.9595 31.6321C74.9595 32.2021 75.9506 30.4408 75.5234 27.5C74.3473 25.149 74.1136 24.3779 74.1136 21.5281C73.4087 11.399 82.4312 5.14213 91.1718 5.14213C85.8147 3.57477 89.4801 1.85233 76.3692 1.85233C74.7119 1.33585 74.4443 0.90087 74.5365 0C69.2496 7.36408 67.7156 10.6743 68.0516 14.8186Z" fill="url(#paint8_linear_311_1589)"/>
<path d="M82.4312 21.5281C82.4312 21.5281 84.4089 24.1985 86.6605 25.6477C86.0836 24.3174 85.4523 21.8075 86.3786 19.6632C87.641 16.7408 90.6747 17.2316 93.4274 15.6736C91.8767 13.8212 85.8843 14.8644 83.841 16.9559C81.2033 19.2103 81.6708 19.9817 81.4444 21.943C81.7263 21.2306 82.4312 21.5281 82.4312 21.5281Z" fill="url(#paint9_linear_311_1589)"/>
<path d="M89.1981 22.6554C88.8614 23.398 89.1073 23.5388 89.762 23.6528C89.762 23.6528 89.48 23.0829 90.1849 22.6554C90.8898 22.228 91.4537 22.3705 92.1586 22.6554C92.8635 22.9404 93.4274 23.3679 93.9913 24.5078C94.5552 25.6477 94.2732 21.2306 92.1586 21.5281C90.044 21.8257 90.1614 21.6239 89.1981 22.6554Z" fill="url(#paint10_linear_311_1589)"/>
<path d="M91.5044 24.5078C91.3153 25.0027 90.6825 24.2418 90.6586 23.6528C90.3504 24.0319 90.4127 24.2402 90.3259 24.3653C90.265 24.9574 90.7488 25.3627 91.4537 25.3627C92.1586 25.3627 92.4406 24.6503 93.0045 24.6503C93.5684 24.6503 91.6935 24.0128 91.5044 24.5078Z" fill="url(#paint11_linear_311_1589)"/>
<path d="M91.1718 26.2176C89.903 26.0751 87.8888 24.9747 88.0703 23.6528C87.415 24.2349 87.1144 24.5862 87.3654 25.5052C87.8514 27.3937 89.0005 27.2853 90.7488 28.2124C92.9346 28.5935 94.0116 28.4484 95.824 27.9275C96.7243 26.6735 95.542 24.9352 95.542 25.2202C93.9655 26.0039 92.4406 26.3601 91.1718 26.2176Z" fill="url(#paint12_linear_311_1589)"/>
<path d="M98.6435 27.9275C98.8148 20.5628 96.6088 20.129 93.9913 17.2409C93.3364 16.802 94.9781 17.3834 95.542 17.3834C96.08 17.3834 97.6819 17.4762 97.67 17.3962C97.6656 17.392 97.6611 17.3877 97.6567 17.3834C97.6651 17.3881 97.6694 17.3924 97.67 17.3962C102.84 22.3758 100.615 25.5072 98.6435 27.9275Z" fill="url(#paint13_linear_311_1589)"/>
<path d="M80.3166 21.943C79.5099 20.3371 80.8805 19.6632 80.3166 17.9534C77.6961 20.205 76.5432 21.5641 76.6512 24.6503C78.7996 28.6449 88.9896 31.1634 92.2996 29.0673C91.5803 29.3281 90.9798 29.3889 88.9161 29.0673C84.459 27.4796 82.2889 26.232 80.3166 21.943Z" fill="url(#paint14_linear_311_1589)"/>
<path d="M78.7658 16.9559C83.6999 0.997384 101.181 7.69427 101.181 7.69427C102.027 7.97924 102.309 7.12435 102.309 7.12435C103.037 9.19795 106.82 14.2487 106.82 23.3679C105.255 28.5723 103.356 30.7181 99.4185 33.7821C110.983 18.6503 93.7235 5.5433 78.7658 16.9559Z" fill="url(#paint15_linear_311_1589)"/>
<path d="M91.1718 23.3679C92.0754 23.4371 92.2554 23.5556 91.8766 23.9378C92.5431 23.3555 92.6355 23.1365 91.1718 23.3679Z" fill="url(#paint16_linear_311_1589)"/>
<path d="M90.7488 2.99222C91.6566 4.41626 92.7999 4.18967 94.302 4.13211C106.211 3.81976 108.118 11.6839 108.118 11.6839C108.118 11.6839 111.942 9.69606 108.794 2.99222C100.897 0.225551 96.9537 0.249319 90.7488 2.99222Z" fill="url(#paint17_linear_311_1589)"/>
<path d="M15.375 26.4688V32.7812C15.375 34.5729 15.375 36.1458 15.375 37.5C15.3958 38.8333 15.4062 39.9688 15.4062 40.9062C15.4271 41.8438 15.4375 42.6562 15.4375 43.3438C15.4583 44.0104 15.4792 44.5938 15.5 45.0938C15.5208 45.5938 15.5417 46.0625 15.5625 46.5C15.5833 47.0833 15.6458 47.5521 15.75 47.9062C15.875 48.2396 16.1667 48.5208 16.625 48.75C17.1042 48.9583 17.8229 49.125 18.7812 49.25C19.7604 49.375 21.125 49.5 22.875 49.625L21.625 52.4375C21.3958 52.4167 20.9375 52.375 20.25 52.3125C19.5833 52.2708 18.7708 52.2292 17.8125 52.1875C16.8542 52.1458 15.8021 52.1042 14.6562 52.0625C13.5104 52.0208 12.3646 52 11.2188 52C9.80208 52 8.44792 52.0208 7.15625 52.0625C5.88542 52.125 4.73958 52.1875 3.71875 52.25C2.71875 52.3125 1.90625 52.375 1.28125 52.4375C0.635417 52.4792 0.25 52.5 0.125 52.5C0.125 52.3125 0.15625 52.0521 0.21875 51.7188C0.302083 51.3646 0.552083 51 0.96875 50.625C1.38542 50.25 2.05208 49.9062 2.96875 49.5938C3.88542 49.2812 5.1875 49.0625 6.875 48.9375C6.95833 48.0625 7.02083 46.9688 7.0625 45.6562C7.125 44.3229 7.16667 42.8958 7.1875 41.375C7.22917 39.8333 7.25 38.25 7.25 36.625V23.2812C7.25 20.9479 7.23958 19 7.21875 17.4375C7.21875 15.875 7.20833 14.625 7.1875 13.6875C7.16667 12.7292 7.14583 11.9375 7.125 11.3125C7.10417 10.6667 7.08333 10.0938 7.0625 9.59375C7.04167 9.11458 7.02083 8.54167 7 7.875C6.95833 7.29167 6.88542 6.83333 6.78125 6.5C6.69792 6.16667 6.42708 5.90625 5.96875 5.71875C5.53125 5.53125 4.84375 5.38542 3.90625 5.28125C2.98958 5.15625 1.6875 5.02083 0 4.875L1.0625 2.125C1.25 2.16667 1.69792 2.20833 2.40625 2.25C3.13542 2.29167 3.98958 2.33333 4.96875 2.375C5.96875 2.41667 7.04167 2.44792 8.1875 2.46875C9.33333 2.48958 10.4167 2.5 11.4375 2.5C13.0833 2.5 14.5833 2.46875 15.9375 2.40625C17.2917 2.34375 18.4479 2.28125 19.4062 2.21875C20.3646 2.15625 21.1146 2.09375 21.6562 2.03125C22.1979 1.96875 22.5 1.9375 22.5625 1.9375C22.5625 2.20833 22.5104 2.53125 22.4062 2.90625C22.3229 3.26042 22.0625 3.625 21.625 4C21.1875 4.35417 20.5104 4.6875 19.5938 5C18.6771 5.3125 17.3958 5.54167 15.75 5.6875C15.6667 6.875 15.5938 8.10417 15.5312 9.375C15.4896 10.6458 15.4583 12.0938 15.4375 13.7188C15.4167 15.3229 15.3958 17.1667 15.375 19.25C15.375 21.3125 15.375 23.7188 15.375 26.4688ZM16.25 27.5625C18.2708 25.9375 20.2604 24.25 22.2188 22.5C24.1771 20.7292 26.0625 19 27.875 17.3125C29.8542 15.4167 31.4688 13.8333 32.7188 12.5625C33.9896 11.2708 34.9896 10.2083 35.7188 9.375C36.4479 8.52083 36.9479 7.85417 37.2188 7.375C37.4896 6.89583 37.625 6.51042 37.625 6.21875C37.625 6.01042 37.5625 5.84375 37.4375 5.71875C37.3125 5.59375 37.0833 5.5 36.75 5.4375C36.4375 5.35417 36 5.29167 35.4375 5.25C34.875 5.20833 34.1667 5.16667 33.3125 5.125L34.125 2.25C34.4167 2.27083 34.8229 2.30208 35.3438 2.34375C35.8854 2.36458 36.4896 2.38542 37.1562 2.40625C37.8438 2.42708 38.5833 2.44792 39.375 2.46875C40.1667 2.48958 40.9688 2.5 41.7812 2.5C43.8229 2.5 45.75 2.44792 47.5625 2.34375C49.375 2.23958 50.9167 2.10417 52.1875 1.9375C52.1875 2.4375 52.0729 2.89583 51.8438 3.3125C51.6146 3.70833 51.2292 4.0625 50.6875 4.375C50.1458 4.6875 49.4271 4.94792 48.5312 5.15625C47.6562 5.36458 46.5625 5.52083 45.25 5.625C44.4583 6.29167 43.5104 7.125 42.4062 8.125C41.3021 9.10417 40.1146 10.1875 38.8438 11.375C37.5938 12.5417 36.3021 13.7604 34.9688 15.0312C33.6354 16.2812 32.3438 17.5104 31.0938 18.7188C29.8646 19.9062 28.7083 21.0417 27.625 22.125C26.5417 23.1875 25.625 24.1042 24.875 24.875C29.125 29.9167 32.7604 34.2708 35.7812 37.9375C38.7812 41.6042 41.2083 44.3542 43.0625 46.1875C43.7083 46.8333 44.3021 47.3542 44.8438 47.75C45.4062 48.1458 46.0417 48.4688 46.75 48.7188C47.4583 48.9479 48.2917 49.125 49.25 49.25C50.2292 49.375 51.4583 49.4792 52.9375 49.5625L51.6875 52.375C51.4375 52.3542 50.9792 52.3229 50.3125 52.2812C49.6458 52.2396 48.8333 52.1979 47.875 52.1562C46.9167 52.1146 45.8542 52.0729 44.6875 52.0312C43.5208 52.0104 42.3333 52 41.125 52C40.3125 52 39.4896 52.0104 38.6562 52.0312C37.8229 52.0521 37.1458 52.0833 36.625 52.125C33.25 47.6875 29.8958 43.4375 26.5625 39.375C23.25 35.3125 19.8125 31.375 16.25 27.5625Z" fill="url(#paint18_linear_311_1589)"/>
<defs>
<linearGradient id="paint0_linear_311_1589" x1="58.779" y1="0" x2="58.779" y2="55" gradientUnits="userSpaceOnUse">
<stop offset="0.326042" stop-color="#330099"/>
<stop offset="0.482292" stop-color="#0099FF"/>
<stop offset="0.628125" stop-color="#660088"/>
<stop offset="0.789583" stop-color="#330099"/>
</linearGradient>
<linearGradient id="paint1_linear_311_1589" x1="58.779" y1="0" x2="58.779" y2="55" gradientUnits="userSpaceOnUse">
<stop offset="0.326042" stop-color="#330099"/>
<stop offset="0.482292" stop-color="#0099FF"/>
<stop offset="0.628125" stop-color="#660088"/>
<stop offset="0.789583" stop-color="#330099"/>
</linearGradient>
<linearGradient id="paint2_linear_311_1589" x1="58.779" y1="0" x2="58.779" y2="55" gradientUnits="userSpaceOnUse">
<stop offset="0.326042" stop-color="#330099"/>
<stop offset="0.482292" stop-color="#0099FF"/>
<stop offset="0.628125" stop-color="#660088"/>
<stop offset="0.789583" stop-color="#330099"/>
</linearGradient>
<linearGradient id="paint3_linear_311_1589" x1="58.779" y1="0" x2="58.779" y2="55" gradientUnits="userSpaceOnUse">
<stop offset="0.326042" stop-color="#330099"/>
<stop offset="0.482292" stop-color="#0099FF"/>
<stop offset="0.628125" stop-color="#660088"/>
<stop offset="0.789583" stop-color="#330099"/>
</linearGradient>
<linearGradient id="paint4_linear_311_1589" x1="58.779" y1="0" x2="58.779" y2="55" gradientUnits="userSpaceOnUse">
<stop offset="0.326042" stop-color="#330099"/>
<stop offset="0.482292" stop-color="#0099FF"/>
<stop offset="0.628125" stop-color="#660088"/>
<stop offset="0.789583" stop-color="#330099"/>
</linearGradient>
<linearGradient id="paint5_linear_311_1589" x1="58.779" y1="0" x2="58.779" y2="55" gradientUnits="userSpaceOnUse">
<stop offset="0.326042" stop-color="#330099"/>
<stop offset="0.482292" stop-color="#0099FF"/>
<stop offset="0.628125" stop-color="#660088"/>
<stop offset="0.789583" stop-color="#330099"/>
</linearGradient>
<linearGradient id="paint6_linear_311_1589" x1="58.779" y1="0" x2="58.779" y2="55" gradientUnits="userSpaceOnUse">
<stop offset="0.326042" stop-color="#330099"/>
<stop offset="0.482292" stop-color="#0099FF"/>
<stop offset="0.628125" stop-color="#660088"/>
<stop offset="0.789583" stop-color="#330099"/>
</linearGradient>
<linearGradient id="paint7_linear_311_1589" x1="58.779" y1="0" x2="58.779" y2="55" gradientUnits="userSpaceOnUse">
<stop offset="0.326042" stop-color="#330099"/>
<stop offset="0.482292" stop-color="#0099FF"/>
<stop offset="0.628125" stop-color="#660088"/>
<stop offset="0.789583" stop-color="#330099"/>
</linearGradient>
<linearGradient id="paint8_linear_311_1589" x1="58.779" y1="0" x2="58.779" y2="55" gradientUnits="userSpaceOnUse">
<stop offset="0.326042" stop-color="#330099"/>
<stop offset="0.482292" stop-color="#0099FF"/>
<stop offset="0.628125" stop-color="#660088"/>
<stop offset="0.789583" stop-color="#330099"/>
</linearGradient>
<linearGradient id="paint9_linear_311_1589" x1="58.779" y1="0" x2="58.779" y2="55" gradientUnits="userSpaceOnUse">
<stop offset="0.326042" stop-color="#330099"/>
<stop offset="0.482292" stop-color="#0099FF"/>
<stop offset="0.628125" stop-color="#660088"/>
<stop offset="0.789583" stop-color="#330099"/>
</linearGradient>
<linearGradient id="paint10_linear_311_1589" x1="58.779" y1="0" x2="58.779" y2="55" gradientUnits="userSpaceOnUse">
<stop offset="0.326042" stop-color="#330099"/>
<stop offset="0.482292" stop-color="#0099FF"/>
<stop offset="0.628125" stop-color="#660088"/>
<stop offset="0.789583" stop-color="#330099"/>
</linearGradient>
<linearGradient id="paint11_linear_311_1589" x1="58.779" y1="0" x2="58.779" y2="55" gradientUnits="userSpaceOnUse">
<stop offset="0.326042" stop-color="#330099"/>
<stop offset="0.482292" stop-color="#0099FF"/>
<stop offset="0.628125" stop-color="#660088"/>
<stop offset="0.789583" stop-color="#330099"/>
</linearGradient>
<linearGradient id="paint12_linear_311_1589" x1="58.779" y1="0" x2="58.779" y2="55" gradientUnits="userSpaceOnUse">
<stop offset="0.326042" stop-color="#330099"/>
<stop offset="0.482292" stop-color="#0099FF"/>
<stop offset="0.628125" stop-color="#660088"/>
<stop offset="0.789583" stop-color="#330099"/>
</linearGradient>
<linearGradient id="paint13_linear_311_1589" x1="58.779" y1="0" x2="58.779" y2="55" gradientUnits="userSpaceOnUse">
<stop offset="0.326042" stop-color="#330099"/>
<stop offset="0.482292" stop-color="#0099FF"/>
<stop offset="0.628125" stop-color="#660088"/>
<stop offset="0.789583" stop-color="#330099"/>
</linearGradient>
<linearGradient id="paint14_linear_311_1589" x1="58.779" y1="0" x2="58.779" y2="55" gradientUnits="userSpaceOnUse">
<stop offset="0.326042" stop-color="#330099"/>
<stop offset="0.482292" stop-color="#0099FF"/>
<stop offset="0.628125" stop-color="#660088"/>
<stop offset="0.789583" stop-color="#330099"/>
</linearGradient>
<linearGradient id="paint15_linear_311_1589" x1="58.779" y1="0" x2="58.779" y2="55" gradientUnits="userSpaceOnUse">
<stop offset="0.326042" stop-color="#330099"/>
<stop offset="0.482292" stop-color="#0099FF"/>
<stop offset="0.628125" stop-color="#660088"/>
<stop offset="0.789583" stop-color="#330099"/>
</linearGradient>
<linearGradient id="paint16_linear_311_1589" x1="58.779" y1="0" x2="58.779" y2="55" gradientUnits="userSpaceOnUse">
<stop offset="0.326042" stop-color="#330099"/>
<stop offset="0.482292" stop-color="#0099FF"/>
<stop offset="0.628125" stop-color="#660088"/>
<stop offset="0.789583" stop-color="#330099"/>
</linearGradient>
<linearGradient id="paint17_linear_311_1589" x1="58.779" y1="0" x2="58.779" y2="55" gradientUnits="userSpaceOnUse">
<stop offset="0.326042" stop-color="#330099"/>
<stop offset="0.482292" stop-color="#0099FF"/>
<stop offset="0.628125" stop-color="#660088"/>
<stop offset="0.789583" stop-color="#330099"/>
</linearGradient>
<linearGradient id="paint18_linear_311_1589" x1="58.779" y1="0" x2="58.779" y2="55" gradientUnits="userSpaceOnUse">
<stop offset="0.326042" stop-color="#330099"/>
<stop offset="0.482292" stop-color="#0099FF"/>
<stop offset="0.628125" stop-color="#660088"/>
<stop offset="0.789583" stop-color="#330099"/>
</linearGradient>
</defs>
</svg>
