<svg width="86" height="40" viewBox="0 0 86 40" fill="none" xmlns="http://www.w3.org/2000/svg">
<path d="M61.9655 28.0829C65.26 30.6731 67.3946 31.6326 73.2436 29.8446C77.786 26.7494 77.8929 25.0667 77.7549 22.0726C70.1584 30.0756 67.3784 28.7142 61.9655 28.0829Z" fill="#52474E"/>
<path d="M56.1214 31.399C61.9655 33.9896 70.7829 33.2643 73.5512 32.4352C76.3195 31.6062 76.049 31.6728 76.9346 32.7461C75.1653 34.6991 74.0913 35.8056 74.0638 37.513C73.8462 39.7043 73.7327 40.2444 73.5512 39.4819C73.3697 38.7193 68.0147 38.342 62.4782 37.8238C56.9416 37.3057 55.0235 34.6699 56.1214 31.399Z" fill="#52474E"/>
<path d="M48.6368 15.1295C46.4556 17.8659 45.4499 19.3722 45.9711 21.7617C46.0943 21.1905 46.3902 21.404 46.9964 21.9689C48.7583 27.0599 51.1223 28.7158 56.8391 30.3627C59.2628 30.7195 61.587 30.6188 62.7857 30.6736C63.3951 30.06 62.977 29.6781 60.5301 28.9119C53.8166 25.6105 51.3693 23.465 49.5596 19.0674C49.6722 16.8863 49.0038 14.4766 48.6368 15.1295Z" fill="#52474E"/>
<path d="M77.7549 33.2643C79.3953 30.3627 83.804 32.9534 84.0091 35.4404C84.2141 37.9275 84.2599 37.9244 84.3167 40C82.601 39.1827 82.7787 39.4819 79.7029 39.4819C76.627 39.4819 75.2942 36.4767 76.9346 34.4041C77.9918 34.4479 78.9788 34.9559 81.2408 36.4767C80.5829 34.796 79.7236 34.1508 77.7549 33.2643Z" fill="#52474E"/>
<path d="M50.7899 29.2228C49.0469 26.0238 43.9205 28.2902 43.6129 31.6062C43.3054 34.9223 44.1819 36.5242 43.6129 37.6166C46.1109 37.2571 49.252 37.9275 50.7899 37.4093C52.3278 36.8912 54.9936 32.7461 51.3026 30.1554C50.3416 30.8569 49.8028 30.6975 48.8419 31.399L47.4065 33.057C48.1898 31.7759 47.6115 31.0881 50.7899 29.2228Z" fill="#52474E"/>
<path d="M78.165 19.8964C79.4978 21.3472 82.9008 23.7666 74.5765 31.0881C76.7979 31.6068 78.0366 31.5867 80.2155 30.1554C81.918 29.1045 82.8288 28.3709 84.0091 25.5959C84.2454 24.7205 85.441 24.4073 85.4795 25.285V24.5596C84.5134 20.807 85.2394 19.0674 84.3167 14.9223C83.0865 11.9675 81.7934 10.7355 78.37 9.32644C77.8673 10.3955 78.37 11.0881 78.37 11.0881C78.37 11.0881 79.9917 14.3261 79.3953 16.3731C78.3133 18.1763 77.9384 19.0227 78.165 19.8964Z" fill="#52474E"/>
<path d="M72.2534 21.8653C66.5814 23.5982 63.3498 24.3291 56.6691 21.3471C57.0148 23.9594 57.821 25.2552 61.898 26.8394C64.6608 27.3854 66.2097 27.2818 68.9725 26.8394C71.5602 24.8874 71.9528 23.8007 72.2534 21.8653Z" fill="#52474E"/>
<path d="M67.7421 15.1295C66.4093 14.715 65.0443 14.4642 63.9486 15.544C64.3426 14.1077 65.4319 13.2032 68.1523 13.3679C70.271 14.5334 70.9215 17.0461 70.6129 17.6166C70.3043 18.187 70.1696 18.2551 69.9978 17.9275C69.5582 16.5585 69.075 15.544 67.7421 15.1295Z" fill="#52474E"/>
<path d="M49.4921 10.7772C49.9219 16.4842 50.5526 19.3401 54.516 23.0052C54.516 23.4197 55.2368 22.1388 54.9261 20C54.0708 18.2902 53.9008 17.7294 53.9008 15.6568C53.3882 8.29015 59.95 3.73973 66.3067 3.73973C62.4107 2.59983 65.0764 1.34715 55.5413 1.34715C54.3359 0.971526 54.1413 0.655178 54.2084 0C50.3634 5.35569 49.2477 7.76313 49.4921 10.7772Z" fill="#52474E"/>
<path d="M59.95 15.6568C59.95 15.6568 61.3883 17.5989 63.0258 18.6528C62.6063 17.6854 62.1471 15.86 62.8208 14.3005C63.7389 12.1751 65.9452 12.5321 67.9472 11.399C66.8194 10.0518 62.4613 10.8105 60.9753 12.3316C59.057 13.9711 59.3969 14.5321 59.2323 15.9585C59.4373 15.4404 59.95 15.6568 59.95 15.6568Z" fill="#52474E"/>
<path d="M64.8713 16.4767C64.6265 17.0167 64.8053 17.1191 65.2815 17.2021C65.2815 17.2021 65.0764 16.7876 65.589 16.4767C66.1017 16.1658 66.5118 16.2694 67.0244 16.4767C67.5371 16.6839 67.9472 16.9948 68.3573 17.8238C68.7674 18.6528 68.5624 15.4404 67.0244 15.6568C65.4865 15.8732 65.5719 15.7265 64.8713 16.4767Z" fill="#52474E"/>
<path d="M66.5487 17.8238C66.4111 18.1838 65.9509 17.6304 65.9335 17.2021C65.7094 17.4778 65.7547 17.6292 65.6916 17.7202C65.6473 18.1508 65.9992 18.4456 66.5118 18.4456C67.0244 18.4456 67.2295 17.9275 67.6396 17.9275C68.0497 17.9275 66.6862 17.4639 66.5487 17.8238Z" fill="#52474E"/>
<path d="M66.3067 19.0674C65.384 18.9637 63.9191 18.1634 64.0511 17.2021C63.5745 17.6254 63.356 17.8808 63.5385 18.5492C63.8919 19.9227 64.7276 19.8438 65.9992 20.5181C67.5888 20.7952 68.3721 20.6897 69.6902 20.3109C70.3449 19.3989 69.4851 18.1347 69.4851 18.342C68.3385 18.9119 67.2295 19.171 66.3067 19.0674Z" fill="#52474E"/>
<path d="M71.7407 20.3109C71.8653 14.9547 70.2609 14.6393 68.3573 12.5389C67.881 12.2197 69.075 12.6425 69.4851 12.6425C69.8763 12.6425 71.0414 12.71 71.0327 12.6518C71.0295 12.6487 71.0263 12.6456 71.023 12.6425C71.0292 12.6459 71.0323 12.649 71.0327 12.6518C74.793 16.2733 73.1749 18.5507 71.7407 20.3109Z" fill="#52474E"/>
<path d="M58.4121 15.9585C57.8254 14.7906 58.8222 14.3005 58.4121 13.057C56.5062 14.6945 55.6678 15.683 55.7463 17.9275C57.3088 20.8326 64.7197 22.6643 67.127 21.1399C66.6039 21.3296 66.1671 21.3738 64.6663 21.1399C61.4247 19.9852 59.8465 19.0778 58.4121 15.9585Z" fill="#52474E"/>
<path d="M57.2842 12.3316C60.8727 0.72537 73.5862 5.59583 73.5862 5.59583C74.2014 5.80309 74.4065 5.18135 74.4065 5.18135C74.9362 6.68942 77.6874 10.3627 77.6874 16.9948C76.5493 20.7798 75.168 22.3404 72.3043 24.5688C80.7152 13.5639 68.1625 4.03149 57.2842 12.3316Z" fill="#52474E"/>
<path d="M66.3067 16.9948C66.9639 17.0451 67.0949 17.1313 66.8194 17.4093C67.3041 16.9858 67.3713 16.8266 66.3067 16.9948Z" fill="#52474E"/>
<path d="M65.9992 2.17616C66.6594 3.21182 67.4908 3.04704 68.5833 3.00517C77.2441 2.77801 78.6311 8.49741 78.6311 8.49741C78.6311 8.49741 81.4125 7.05168 79.1228 2.17616C73.3798 0.164037 70.5118 0.181323 65.9992 2.17616Z" fill="#52474E"/>
<path d="M11.1818 19.25V23.8409C11.1818 25.1439 11.1818 26.2879 11.1818 27.2727C11.197 28.2424 11.2045 29.0682 11.2045 29.75C11.2197 30.4318 11.2273 31.0227 11.2273 31.5227C11.2424 32.0076 11.2576 32.4318 11.2727 32.7955C11.2879 33.1591 11.303 33.5 11.3182 33.8182C11.3333 34.2424 11.3788 34.5833 11.4545 34.8409C11.5455 35.0833 11.7576 35.2879 12.0909 35.4545C12.4394 35.6061 12.9621 35.7273 13.6591 35.8182C14.3712 35.9091 15.3636 36 16.6364 36.0909L15.7273 38.1364C15.5606 38.1212 15.2273 38.0909 14.7273 38.0455C14.2424 38.0152 13.6515 37.9848 12.9545 37.9545C12.2576 37.9242 11.4924 37.8939 10.6591 37.8636C9.82576 37.8333 8.99242 37.8182 8.15909 37.8182C7.12879 37.8182 6.14394 37.8333 5.20455 37.8636C4.2803 37.9091 3.44697 37.9545 2.70455 38C1.97727 38.0455 1.38636 38.0909 0.931818 38.1364C0.462121 38.1667 0.181818 38.1818 0.0909091 38.1818C0.0909091 38.0455 0.113636 37.8561 0.159091 37.6136C0.219697 37.3561 0.401515 37.0909 0.704545 36.8182C1.00758 36.5455 1.49242 36.2955 2.15909 36.0682C2.82576 35.8409 3.77273 35.6818 5 35.5909C5.06061 34.9545 5.10606 34.1591 5.13636 33.2045C5.18182 32.2348 5.21212 31.197 5.22727 30.0909C5.25758 28.9697 5.27273 27.8182 5.27273 26.6364V16.9318C5.27273 15.2348 5.26515 13.8182 5.25 12.6818C5.25 11.5455 5.24242 10.6364 5.22727 9.95455C5.21212 9.25758 5.19697 8.68182 5.18182 8.22727C5.16667 7.75758 5.15152 7.34091 5.13636 6.97727C5.12121 6.62879 5.10606 6.21212 5.09091 5.72727C5.06061 5.30303 5.00758 4.9697 4.93182 4.72727C4.87121 4.48485 4.67424 4.29545 4.34091 4.15909C4.02273 4.02273 3.52273 3.91667 2.84091 3.84091C2.17424 3.75 1.22727 3.65152 0 3.54545L0.772727 1.54545C0.909091 1.57576 1.23485 1.60606 1.75 1.63636C2.2803 1.66667 2.90152 1.69697 3.61364 1.72727C4.34091 1.75758 5.12121 1.7803 5.95455 1.79545C6.78788 1.81061 7.57576 1.81818 8.31818 1.81818C9.51515 1.81818 10.6061 1.79545 11.5909 1.75C12.5758 1.70455 13.4167 1.65909 14.1136 1.61364C14.8106 1.56818 15.3561 1.52273 15.75 1.47727C16.1439 1.43182 16.3636 1.40909 16.4091 1.40909C16.4091 1.60606 16.3712 1.84091 16.2955 2.11364C16.2348 2.37121 16.0455 2.63636 15.7273 2.90909C15.4091 3.16667 14.9167 3.40909 14.25 3.63636C13.5833 3.86364 12.6515 4.0303 11.4545 4.13636C11.3939 5 11.3409 5.89394 11.2955 6.81818C11.2652 7.74242 11.2424 8.79545 11.2273 9.97727C11.2121 11.1439 11.197 12.4848 11.1818 14C11.1818 15.5 11.1818 17.25 11.1818 19.25ZM11.8182 20.0455C13.2879 18.8636 14.7348 17.6364 16.1591 16.3636C17.5833 15.0758 18.9545 13.8182 20.2727 12.5909C21.7121 11.2121 22.8864 10.0606 23.7955 9.13636C24.7197 8.19697 25.447 7.42424 25.9773 6.81818C26.5076 6.19697 26.8712 5.71212 27.0682 5.36364C27.2652 5.01515 27.3636 4.73485 27.3636 4.52273C27.3636 4.37121 27.3182 4.25 27.2273 4.15909C27.1364 4.06818 26.9697 4 26.7273 3.95455C26.5 3.89394 26.1818 3.84848 25.7727 3.81818C25.3636 3.78788 24.8485 3.75758 24.2273 3.72727L24.8182 1.63636C25.0303 1.65152 25.3258 1.67424 25.7045 1.70455C26.0985 1.7197 26.5379 1.73485 27.0227 1.75C27.5227 1.76515 28.0606 1.7803 28.6364 1.79545C29.2121 1.81061 29.7955 1.81818 30.3864 1.81818C31.8712 1.81818 33.2727 1.7803 34.5909 1.70455C35.9091 1.62879 37.0303 1.5303 37.9545 1.40909C37.9545 1.77273 37.8712 2.10606 37.7045 2.40909C37.5379 2.69697 37.2576 2.95455 36.8636 3.18182C36.4697 3.40909 35.947 3.59848 35.2955 3.75C34.6591 3.90152 33.8636 4.01515 32.9091 4.09091C32.3333 4.57576 31.6439 5.18182 30.8409 5.90909C30.0379 6.62121 29.1742 7.40909 28.25 8.27273C27.3409 9.12121 26.4015 10.0076 25.4318 10.9318C24.4621 11.8409 23.5227 12.7348 22.6136 13.6136C21.7197 14.4773 20.8788 15.303 20.0909 16.0909C19.303 16.8636 18.6364 17.5303 18.0909 18.0909C21.1818 21.7576 23.8258 24.9242 26.0227 27.5909C28.2045 30.2576 29.9697 32.2576 31.3182 33.5909C31.7879 34.0606 32.2197 34.4394 32.6136 34.7273C33.0227 35.0152 33.4848 35.25 34 35.4318C34.5152 35.5985 35.1212 35.7273 35.8182 35.8182C36.5303 35.9091 37.4242 35.9848 38.5 36.0455L37.5909 38.0909C37.4091 38.0758 37.0758 38.053 36.5909 38.0227C36.1061 37.9924 35.5152 37.9621 34.8182 37.9318C34.1212 37.9015 33.3485 37.8712 32.5 37.8409C31.6515 37.8258 30.7879 37.8182 29.9091 37.8182C29.3182 37.8182 28.7197 37.8258 28.1136 37.8409C27.5076 37.8561 27.0152 37.8788 26.6364 37.9091C24.1818 34.6818 21.7424 31.5909 19.3182 28.6364C16.9091 25.6818 14.4091 22.8182 11.8182 20.0455Z" fill="#52474E"/>
</svg>
