<svg width="360" height="40" viewBox="0 0 360 40" fill="none" xmlns="http://www.w3.org/2000/svg">
<rect width="360" height="40" fill="url(#paint0_linear_49_1452)"/>
<path d="M36.9258 24V15.4102H39.8848C40.5527 15.4102 41.0625 15.4512 41.4141 15.5332C41.9062 15.6465 42.3262 15.8516 42.6738 16.1484C43.127 16.5312 43.4648 17.0215 43.6875 17.6191C43.9141 18.2129 44.0273 18.8926 44.0273 19.6582C44.0273 20.3105 43.9512 20.8887 43.7988 21.3926C43.6465 21.8965 43.4512 22.3145 43.2129 22.6465C42.9746 22.9746 42.7129 23.2344 42.4277 23.4258C42.1465 23.6133 41.8047 23.7559 41.4023 23.8535C41.0039 23.9512 40.5449 24 40.0254 24H36.9258ZM38.0625 22.9863H39.8965C40.4629 22.9863 40.9062 22.9336 41.2266 22.8281C41.5508 22.7227 41.8086 22.5742 42 22.3828C42.2695 22.1133 42.4785 21.752 42.627 21.2988C42.7793 20.8418 42.8555 20.2891 42.8555 19.6406C42.8555 18.7422 42.707 18.0527 42.4102 17.5723C42.1172 17.0879 41.7598 16.7637 41.3379 16.5996C41.0332 16.4824 40.543 16.4238 39.8672 16.4238H38.0625V22.9863ZM49.7227 21.9961L50.8125 22.1309C50.6406 22.7676 50.3223 23.2617 49.8574 23.6133C49.3926 23.9648 48.7988 24.1406 48.0762 24.1406C47.166 24.1406 46.4434 23.8613 45.9082 23.3027C45.377 22.7402 45.1113 21.9531 45.1113 20.9414C45.1113 19.8945 45.3809 19.082 45.9199 18.5039C46.459 17.9258 47.1582 17.6367 48.0176 17.6367C48.8496 17.6367 49.5293 17.9199 50.0566 18.4863C50.584 19.0527 50.8477 19.8496 50.8477 20.877C50.8477 20.9395 50.8457 21.0332 50.8418 21.1582H46.2012C46.2402 21.8418 46.4336 22.3652 46.7812 22.7285C47.1289 23.0918 47.5625 23.2734 48.082 23.2734C48.4688 23.2734 48.7988 23.1719 49.0723 22.9688C49.3457 22.7656 49.5625 22.4414 49.7227 21.9961ZM46.2598 20.291H49.7344C49.6875 19.7676 49.5547 19.375 49.3359 19.1133C49 18.707 48.5645 18.5039 48.0293 18.5039C47.5449 18.5039 47.1367 18.666 46.8047 18.9902C46.4766 19.3145 46.2949 19.748 46.2598 20.291ZM52.1191 24V15.4102H53.1738V24H52.1191ZM54.8203 16.623V15.4102H55.875V16.623H54.8203ZM54.8203 24V17.7773H55.875V24H54.8203ZM59.2148 24L56.8477 17.7773H57.9609L59.2969 21.5039C59.4414 21.9062 59.5742 22.3242 59.6953 22.7578C59.7891 22.4297 59.9199 22.0352 60.0879 21.5742L61.4707 17.7773H62.5547L60.1992 24H59.2148ZM67.7461 21.9961L68.8359 22.1309C68.6641 22.7676 68.3457 23.2617 67.8809 23.6133C67.416 23.9648 66.8223 24.1406 66.0996 24.1406C65.1895 24.1406 64.4668 23.8613 63.9316 23.3027C63.4004 22.7402 63.1348 21.9531 63.1348 20.9414C63.1348 19.8945 63.4043 19.082 63.9434 18.5039C64.4824 17.9258 65.1816 17.6367 66.041 17.6367C66.873 17.6367 67.5527 17.9199 68.0801 18.4863C68.6074 19.0527 68.8711 19.8496 68.8711 20.877C68.8711 20.9395 68.8691 21.0332 68.8652 21.1582H64.2246C64.2637 21.8418 64.457 22.3652 64.8047 22.7285C65.1523 23.0918 65.5859 23.2734 66.1055 23.2734C66.4922 23.2734 66.8223 23.1719 67.0957 22.9688C67.3691 22.7656 67.5859 22.4414 67.7461 21.9961ZM64.2832 20.291H67.7578C67.7109 19.7676 67.5781 19.375 67.3594 19.1133C67.0234 18.707 66.5879 18.5039 66.0527 18.5039C65.5684 18.5039 65.1602 18.666 64.8281 18.9902C64.5 19.3145 64.3184 19.748 64.2832 20.291ZM70.1543 24V17.7773H71.1035V18.7207C71.3457 18.2793 71.5684 17.9883 71.7715 17.8477C71.9785 17.707 72.2051 17.6367 72.4512 17.6367C72.8066 17.6367 73.168 17.75 73.5352 17.9766L73.1719 18.9551C72.9141 18.8027 72.6562 18.7266 72.3984 18.7266C72.168 18.7266 71.9609 18.7969 71.7773 18.9375C71.5938 19.0742 71.4629 19.2656 71.3848 19.5117C71.2676 19.8867 71.209 20.2969 71.209 20.7422V24H70.1543ZM79.8047 23.0566L79.957 23.9883C79.6602 24.0508 79.3945 24.082 79.1602 24.082C78.7773 24.082 78.4805 24.0215 78.2695 23.9004C78.0586 23.7793 77.9102 23.6211 77.8242 23.4258C77.7383 23.2266 77.6953 22.8105 77.6953 22.1777V18.5977H76.9219V17.7773H77.6953V16.2363L78.7441 15.6035V17.7773H79.8047V18.5977H78.7441V22.2363C78.7441 22.5371 78.7617 22.7305 78.7969 22.8164C78.8359 22.9023 78.8965 22.9707 78.9785 23.0215C79.0645 23.0723 79.1855 23.0977 79.3418 23.0977C79.459 23.0977 79.6133 23.084 79.8047 23.0566ZM80.4492 20.8887C80.4492 19.7363 80.7695 18.8828 81.4102 18.3281C81.9453 17.8672 82.5977 17.6367 83.3672 17.6367C84.2227 17.6367 84.9219 17.918 85.4648 18.4805C86.0078 19.0391 86.2793 19.8125 86.2793 20.8008C86.2793 21.6016 86.1582 22.2324 85.916 22.6934C85.6777 23.1504 85.3281 23.5059 84.8672 23.7598C84.4102 24.0137 83.9102 24.1406 83.3672 24.1406C82.4961 24.1406 81.791 23.8613 81.252 23.3027C80.7168 22.7441 80.4492 21.9395 80.4492 20.8887ZM81.5332 20.8887C81.5332 21.6855 81.707 22.2832 82.0547 22.6816C82.4023 23.0762 82.8398 23.2734 83.3672 23.2734C83.8906 23.2734 84.3262 23.0742 84.6738 22.6758C85.0215 22.2773 85.1953 21.6699 85.1953 20.8535C85.1953 20.084 85.0195 19.502 84.668 19.1074C84.3203 18.709 83.8867 18.5098 83.3672 18.5098C82.8398 18.5098 82.4023 18.707 82.0547 19.1016C81.707 19.4961 81.5332 20.0918 81.5332 20.8887ZM90.9492 24V15.4102H94.1719C94.8281 15.4102 95.3535 15.498 95.748 15.6738C96.1465 15.8457 96.457 16.1133 96.6797 16.4766C96.9062 16.8359 97.0195 17.2129 97.0195 17.6074C97.0195 17.9746 96.9199 18.3203 96.7207 18.6445C96.5215 18.9688 96.2207 19.2305 95.8184 19.4297C96.3379 19.582 96.7363 19.8418 97.0137 20.209C97.2949 20.5762 97.4355 21.0098 97.4355 21.5098C97.4355 21.9121 97.3496 22.2871 97.1777 22.6348C97.0098 22.9785 96.8008 23.2441 96.5508 23.4316C96.3008 23.6191 95.9863 23.7617 95.6074 23.8594C95.2324 23.9531 94.7715 24 94.2246 24H90.9492ZM92.0859 19.0195H93.9434C94.4473 19.0195 94.8086 18.9863 95.0273 18.9199C95.3164 18.834 95.5332 18.6914 95.6777 18.4922C95.8262 18.293 95.9004 18.043 95.9004 17.7422C95.9004 17.457 95.832 17.207 95.6953 16.9922C95.5586 16.7734 95.3633 16.625 95.1094 16.5469C94.8555 16.4648 94.4199 16.4238 93.8027 16.4238H92.0859V19.0195ZM92.0859 22.9863H94.2246C94.5918 22.9863 94.8496 22.9727 94.998 22.9453C95.2598 22.8984 95.4785 22.8203 95.6543 22.7109C95.8301 22.6016 95.9746 22.4434 96.0879 22.2363C96.2012 22.0254 96.2578 21.7832 96.2578 21.5098C96.2578 21.1895 96.1758 20.9121 96.0117 20.6777C95.8477 20.4395 95.6191 20.2734 95.3262 20.1797C95.0371 20.082 94.6191 20.0332 94.0723 20.0332H92.0859V22.9863ZM98.4727 20.8887C98.4727 19.7363 98.793 18.8828 99.4336 18.3281C99.9688 17.8672 100.621 17.6367 101.391 17.6367C102.246 17.6367 102.945 17.918 103.488 18.4805C104.031 19.0391 104.303 19.8125 104.303 20.8008C104.303 21.6016 104.182 22.2324 103.939 22.6934C103.701 23.1504 103.352 23.5059 102.891 23.7598C102.434 24.0137 101.934 24.1406 101.391 24.1406C100.52 24.1406 99.8145 23.8613 99.2754 23.3027C98.7402 22.7441 98.4727 21.9395 98.4727 20.8887ZM99.5566 20.8887C99.5566 21.6855 99.7305 22.2832 100.078 22.6816C100.426 23.0762 100.863 23.2734 101.391 23.2734C101.914 23.2734 102.35 23.0742 102.697 22.6758C103.045 22.2773 103.219 21.6699 103.219 20.8535C103.219 20.084 103.043 19.502 102.691 19.1074C102.344 18.709 101.91 18.5098 101.391 18.5098C100.863 18.5098 100.426 18.707 100.078 19.1016C99.7305 19.4961 99.5566 20.0918 99.5566 20.8887ZM106.518 24H105.539V15.4102H106.594V18.4746C107.039 17.916 107.607 17.6367 108.299 17.6367C108.682 17.6367 109.043 17.7148 109.383 17.8711C109.727 18.0234 110.008 18.2402 110.227 18.5215C110.449 18.7988 110.623 19.1348 110.748 19.5293C110.873 19.9238 110.936 20.3457 110.936 20.7949C110.936 21.8613 110.672 22.6855 110.145 23.2676C109.617 23.8496 108.984 24.1406 108.246 24.1406C107.512 24.1406 106.936 23.834 106.518 23.2207V24ZM106.506 20.8418C106.506 21.5879 106.607 22.127 106.811 22.459C107.143 23.002 107.592 23.2734 108.158 23.2734C108.619 23.2734 109.018 23.0742 109.354 22.6758C109.689 22.2734 109.857 21.6758 109.857 20.8828C109.857 20.0703 109.695 19.4707 109.371 19.084C109.051 18.6973 108.662 18.5039 108.205 18.5039C107.744 18.5039 107.346 18.7051 107.01 19.1074C106.674 19.5059 106.506 20.084 106.506 20.8418ZM115.652 24V15.4102H118.875C119.531 15.4102 120.057 15.498 120.451 15.6738C120.85 15.8457 121.16 16.1133 121.383 16.4766C121.609 16.8359 121.723 17.2129 121.723 17.6074C121.723 17.9746 121.623 18.3203 121.424 18.6445C121.225 18.9688 120.924 19.2305 120.521 19.4297C121.041 19.582 121.439 19.8418 121.717 20.209C121.998 20.5762 122.139 21.0098 122.139 21.5098C122.139 21.9121 122.053 22.2871 121.881 22.6348C121.713 22.9785 121.504 23.2441 121.254 23.4316C121.004 23.6191 120.689 23.7617 120.311 23.8594C119.936 23.9531 119.475 24 118.928 24H115.652ZM116.789 19.0195H118.646C119.15 19.0195 119.512 18.9863 119.73 18.9199C120.02 18.834 120.236 18.6914 120.381 18.4922C120.529 18.293 120.604 18.043 120.604 17.7422C120.604 17.457 120.535 17.207 120.398 16.9922C120.262 16.7734 120.066 16.625 119.812 16.5469C119.559 16.4648 119.123 16.4238 118.506 16.4238H116.789V19.0195ZM116.789 22.9863H118.928C119.295 22.9863 119.553 22.9727 119.701 22.9453C119.963 22.8984 120.182 22.8203 120.357 22.7109C120.533 22.6016 120.678 22.4434 120.791 22.2363C120.904 22.0254 120.961 21.7832 120.961 21.5098C120.961 21.1895 120.879 20.9121 120.715 20.6777C120.551 20.4395 120.322 20.2734 120.029 20.1797C119.74 20.082 119.322 20.0332 118.775 20.0332H116.789V22.9863ZM123.176 20.8887C123.176 19.7363 123.496 18.8828 124.137 18.3281C124.672 17.8672 125.324 17.6367 126.094 17.6367C126.949 17.6367 127.648 17.918 128.191 18.4805C128.734 19.0391 129.006 19.8125 129.006 20.8008C129.006 21.6016 128.885 22.2324 128.643 22.6934C128.404 23.1504 128.055 23.5059 127.594 23.7598C127.137 24.0137 126.637 24.1406 126.094 24.1406C125.223 24.1406 124.518 23.8613 123.979 23.3027C123.443 22.7441 123.176 21.9395 123.176 20.8887ZM124.26 20.8887C124.26 21.6855 124.434 22.2832 124.781 22.6816C125.129 23.0762 125.566 23.2734 126.094 23.2734C126.617 23.2734 127.053 23.0742 127.4 22.6758C127.748 22.2773 127.922 21.6699 127.922 20.8535C127.922 20.084 127.746 19.502 127.395 19.1074C127.047 18.709 126.613 18.5098 126.094 18.5098C125.566 18.5098 125.129 18.707 124.781 19.1016C124.434 19.4961 124.26 20.0918 124.26 20.8887ZM131.221 24H130.242V15.4102H131.297V18.4746C131.742 17.916 132.311 17.6367 133.002 17.6367C133.385 17.6367 133.746 17.7148 134.086 17.8711C134.43 18.0234 134.711 18.2402 134.93 18.5215C135.152 18.7988 135.326 19.1348 135.451 19.5293C135.576 19.9238 135.639 20.3457 135.639 20.7949C135.639 21.8613 135.375 22.6855 134.848 23.2676C134.32 23.8496 133.688 24.1406 132.949 24.1406C132.215 24.1406 131.639 23.834 131.221 23.2207V24ZM131.209 20.8418C131.209 21.5879 131.311 22.127 131.514 22.459C131.846 23.002 132.295 23.2734 132.861 23.2734C133.322 23.2734 133.721 23.0742 134.057 22.6758C134.393 22.2734 134.561 21.6758 134.561 20.8828C134.561 20.0703 134.398 19.4707 134.074 19.084C133.754 18.6973 133.365 18.5039 132.908 18.5039C132.447 18.5039 132.049 18.7051 131.713 19.1074C131.377 19.5059 131.209 20.084 131.209 20.8418ZM136.506 22.1426L137.549 21.9785C137.607 22.3965 137.77 22.7168 138.035 22.9395C138.305 23.1621 138.68 23.2734 139.16 23.2734C139.645 23.2734 140.004 23.1758 140.238 22.9805C140.473 22.7812 140.59 22.5488 140.59 22.2832C140.59 22.0449 140.486 21.8574 140.279 21.7207C140.135 21.627 139.775 21.5078 139.201 21.3633C138.428 21.168 137.891 21 137.59 20.8594C137.293 20.7148 137.066 20.5176 136.91 20.2676C136.758 20.0137 136.682 19.7344 136.682 19.4297C136.682 19.1523 136.744 18.8965 136.869 18.6621C136.998 18.4238 137.172 18.2266 137.391 18.0703C137.555 17.9492 137.777 17.8477 138.059 17.7656C138.344 17.6797 138.648 17.6367 138.973 17.6367C139.461 17.6367 139.889 17.707 140.256 17.8477C140.627 17.9883 140.9 18.1797 141.076 18.4219C141.252 18.6602 141.373 18.9805 141.439 19.3828L140.408 19.5234C140.361 19.2031 140.225 18.9531 139.998 18.7734C139.775 18.5938 139.459 18.5039 139.049 18.5039C138.564 18.5039 138.219 18.584 138.012 18.7441C137.805 18.9043 137.701 19.0918 137.701 19.3066C137.701 19.4434 137.744 19.5664 137.83 19.6758C137.916 19.7891 138.051 19.8828 138.234 19.957C138.34 19.9961 138.65 20.0859 139.166 20.2266C139.912 20.4258 140.432 20.5898 140.725 20.7188C141.021 20.8438 141.254 21.0273 141.422 21.2695C141.59 21.5117 141.674 21.8125 141.674 22.1719C141.674 22.5234 141.57 22.8555 141.363 23.168C141.16 23.4766 140.865 23.7168 140.479 23.8887C140.092 24.0566 139.654 24.1406 139.166 24.1406C138.357 24.1406 137.74 23.9727 137.314 23.6367C136.893 23.3008 136.623 22.8027 136.506 22.1426ZM142.535 20.8887C142.535 19.7363 142.855 18.8828 143.496 18.3281C144.031 17.8672 144.684 17.6367 145.453 17.6367C146.309 17.6367 147.008 17.918 147.551 18.4805C148.094 19.0391 148.365 19.8125 148.365 20.8008C148.365 21.6016 148.244 22.2324 148.002 22.6934C147.764 23.1504 147.414 23.5059 146.953 23.7598C146.496 24.0137 145.996 24.1406 145.453 24.1406C144.582 24.1406 143.877 23.8613 143.338 23.3027C142.803 22.7441 142.535 21.9395 142.535 20.8887ZM143.619 20.8887C143.619 21.6855 143.793 22.2832 144.141 22.6816C144.488 23.0762 144.926 23.2734 145.453 23.2734C145.977 23.2734 146.412 23.0742 146.76 22.6758C147.107 22.2773 147.281 21.6699 147.281 20.8535C147.281 20.084 147.105 19.502 146.754 19.1074C146.406 18.709 145.973 18.5098 145.453 18.5098C144.926 18.5098 144.488 18.707 144.141 19.1016C143.793 19.4961 143.619 20.0918 143.619 20.8887ZM149.607 24V17.7773H150.557V18.6621C151.014 17.9785 151.674 17.6367 152.537 17.6367C152.912 17.6367 153.256 17.7051 153.568 17.8418C153.885 17.9746 154.121 18.1504 154.277 18.3691C154.434 18.5879 154.543 18.8477 154.605 19.1484C154.645 19.3438 154.664 19.6855 154.664 20.1738V24H153.609V20.2148C153.609 19.7852 153.568 19.4648 153.486 19.2539C153.404 19.0391 153.258 18.8691 153.047 18.7441C152.84 18.6152 152.596 18.5508 152.314 18.5508C151.865 18.5508 151.477 18.6934 151.148 18.9785C150.824 19.2637 150.662 19.8047 150.662 20.6016V24H149.607ZM159.217 21.4219V20.3613H162.457V21.4219H159.217ZM173.227 20.9883L174.363 21.2754C174.125 22.209 173.695 22.9219 173.074 23.4141C172.457 23.9023 171.701 24.1465 170.807 24.1465C169.881 24.1465 169.127 23.959 168.545 23.584C167.967 23.2051 167.525 22.6582 167.221 21.9434C166.92 21.2285 166.77 20.4609 166.77 19.6406C166.77 18.7461 166.939 17.9668 167.279 17.3027C167.623 16.6348 168.109 16.1289 168.738 15.7852C169.371 15.4375 170.066 15.2637 170.824 15.2637C171.684 15.2637 172.406 15.4824 172.992 15.9199C173.578 16.3574 173.986 16.9727 174.217 17.7656L173.098 18.0293C172.898 17.4043 172.609 16.9492 172.23 16.6641C171.852 16.3789 171.375 16.2363 170.801 16.2363C170.141 16.2363 169.588 16.3945 169.143 16.7109C168.701 17.0273 168.391 17.4531 168.211 17.9883C168.031 18.5195 167.941 19.0684 167.941 19.6348C167.941 20.3652 168.047 21.0039 168.258 21.5508C168.473 22.0938 168.805 22.5 169.254 22.7695C169.703 23.0391 170.189 23.1738 170.713 23.1738C171.35 23.1738 171.889 22.9902 172.33 22.623C172.771 22.2559 173.07 21.7109 173.227 20.9883ZM175.641 16.623V15.4102H176.695V16.623H175.641ZM175.641 24V17.7773H176.695V24H175.641ZM180.609 23.0566L180.762 23.9883C180.465 24.0508 180.199 24.082 179.965 24.082C179.582 24.082 179.285 24.0215 179.074 23.9004C178.863 23.7793 178.715 23.6211 178.629 23.4258C178.543 23.2266 178.5 22.8105 178.5 22.1777V18.5977H177.727V17.7773H178.5V16.2363L179.549 15.6035V17.7773H180.609V18.5977H179.549V22.2363C179.549 22.5371 179.566 22.7305 179.602 22.8164C179.641 22.9023 179.701 22.9707 179.783 23.0215C179.869 23.0723 179.99 23.0977 180.146 23.0977C180.264 23.0977 180.418 23.084 180.609 23.0566ZM181.6 26.3965L181.482 25.4062C181.713 25.4688 181.914 25.5 182.086 25.5C182.32 25.5 182.508 25.4609 182.648 25.3828C182.789 25.3047 182.904 25.1953 182.994 25.0547C183.061 24.9492 183.168 24.6875 183.316 24.2695C183.336 24.2109 183.367 24.125 183.41 24.0117L181.049 17.7773H182.186L183.48 21.3809C183.648 21.8379 183.799 22.3184 183.932 22.8223C184.053 22.3379 184.197 21.8652 184.365 21.4043L185.695 17.7773H186.75L184.383 24.1055C184.129 24.7891 183.932 25.2598 183.791 25.5176C183.604 25.8652 183.389 26.1191 183.146 26.2793C182.904 26.4434 182.615 26.5254 182.279 26.5254C182.076 26.5254 181.85 26.4824 181.6 26.3965ZM190.436 24V22.9453L194.836 17.4434C195.148 17.0527 195.445 16.7129 195.727 16.4238H190.934V15.4102H197.086V16.4238L192.264 22.3828L191.742 22.9863H197.227V24H190.436ZM198.328 16.623V15.4102H199.383V16.623H198.328ZM198.328 24V17.7773H199.383V24H198.328ZM200.994 26.3848V17.7773H201.955V18.5859C202.182 18.2695 202.438 18.0332 202.723 17.877C203.008 17.7168 203.354 17.6367 203.76 17.6367C204.291 17.6367 204.76 17.7734 205.166 18.0469C205.572 18.3203 205.879 18.707 206.086 19.207C206.293 19.7031 206.396 20.248 206.396 20.8418C206.396 21.4785 206.281 22.0527 206.051 22.5645C205.824 23.0723 205.492 23.4629 205.055 23.7363C204.621 24.0059 204.164 24.1406 203.684 24.1406C203.332 24.1406 203.016 24.0664 202.734 23.918C202.457 23.7695 202.229 23.582 202.049 23.3555V26.3848H200.994ZM201.949 20.9238C201.949 21.7246 202.111 22.3164 202.436 22.6992C202.76 23.082 203.152 23.2734 203.613 23.2734C204.082 23.2734 204.482 23.0762 204.814 22.6816C205.15 22.2832 205.318 21.668 205.318 20.8359C205.318 20.043 205.154 19.4492 204.826 19.0547C204.502 18.6602 204.113 18.4629 203.66 18.4629C203.211 18.4629 202.812 18.6738 202.465 19.0957C202.121 19.5137 201.949 20.123 201.949 20.9238Z" fill="black"/>
<path d="M24.7223 20.4068C24.9691 19.6315 25.018 19.2186 24.9949 18.5085C24.9949 14.9299 22.0914 12.0258 18.5 12.0002C14.9086 12.0258 12.0051 14.9299 12.0051 18.5085C11.982 19.2186 12.0309 19.6315 12.2777 20.4068C12.5236 21.1791 14.3987 24.7079 18.5 27.962C22.6013 24.7079 24.4764 21.1791 24.7223 20.4068Z" fill="black"/>
<path d="M18.4999 13.6553C15.7293 13.6751 13.4895 15.9115 13.4895 18.6675C13.4717 19.2143 13.5095 19.5323 13.6999 20.1294C13.8895 20.7241 15.336 23.4417 18.4999 25.9478C21.6637 23.4417 23.1103 20.7241 23.2999 20.1294C23.4903 19.5323 23.528 19.2143 23.5102 18.6675C23.5102 15.9115 21.2704 13.6751 18.4999 13.6553Z" fill="#B2EAF0"/>
<path d="M18.5369 13.6552C15.7493 13.6552 13.4895 15.8993 13.4895 18.6675C13.4717 19.2143 13.5095 19.5323 13.6999 20.1294C13.8902 20.7264 15.3473 23.4629 18.5369 25.977M18.4629 13.6552C21.2504 13.6552 23.5102 15.8993 23.5102 18.6675C23.528 19.2143 23.4903 19.5323 23.2999 20.1294C23.1095 20.7264 21.6525 23.4629 18.4629 25.977" stroke="black"/>
<path d="M21.7179 18.5287C21.7179 20.2327 20.2818 21.6221 18.5001 21.6221C16.7184 21.6221 15.2822 20.2327 15.2822 18.5287C15.2822 16.8247 16.7184 15.4353 18.5001 15.4353C20.2818 15.4353 21.7179 16.8247 21.7179 18.5287Z" fill="black" stroke="black" stroke-width="0.25"/>
<ellipse cx="18.5" cy="18.4368" rx="1.67143" ry="1.65517" fill="#BAE8EB"/>
<defs>
<linearGradient id="paint0_linear_49_1452" x1="156" y1="0" x2="225" y2="0" gradientUnits="userSpaceOnUse">
<stop stop-color="#B6E8EF"/>
<stop offset="1" stop-color="#CAF0E3"/>
</linearGradient>
</defs>
</svg>
