<svg width="99" height="63" viewBox="0 0 99 63" fill="none" xmlns="http://www.w3.org/2000/svg">
<rect x="12" y="13" width="75" height="50" rx="6" fill="#52474E"/>
<line x1="14.064" y1="61.2958" x2="37.2958" y2="41.936" stroke="white" stroke-linecap="round"/>
<line x1="61.7042" y1="41.936" x2="84.936" y2="61.2958" stroke="white" stroke-linecap="round"/>
<path d="M82.9162 21.8539L53.1617 48.4028L53.1152 48.4444C52.534 48.963 52.1898 49.2702 51.8382 49.484C50.4018 50.3576 48.5982 50.3576 47.1618 49.484C46.8102 49.2702 46.466 48.963 45.8848 48.4444L45.8383 48.4028L16.0838 21.8539L16.0753 21.8463C15.279 21.1357 14.6708 20.5931 14.2232 20.163C13.7809 19.738 13.4583 19.3888 13.2646 19.0661C11.7635 16.5655 13.0011 13.3196 15.7859 12.4532C16.1453 12.3413 16.6185 12.2956 17.2315 12.2729C17.8517 12.25 18.6667 12.25 19.7339 12.25H19.7455H79.2545H79.2661C80.3333 12.25 81.1483 12.25 81.7685 12.2729C82.3815 12.2956 82.8547 12.3413 83.2141 12.4532C85.9989 13.3196 87.2365 16.5655 85.7355 19.0661C85.5417 19.3888 85.2191 19.738 84.7768 20.163C84.3294 20.5929 83.7214 21.1354 82.9254 21.8457L82.9162 21.8539Z" fill="#52474E" stroke="white"/>
<path d="M49.8387 34.8499C52.5435 35.1387 54.0349 34.9261 56.5166 31.8861C57.8239 28.576 57.2698 27.6026 56.108 25.9854C54.9489 33.0935 52.9659 33.3083 49.8387 34.8499Z" fill="white"/>
<path d="M47.9148 38.7381C51.9848 38.1356 56.4418 34.6488 57.6226 33.2197C58.8034 31.7905 58.6828 31.9222 59.5469 32.2095C59.3092 33.9146 59.1363 34.9056 59.7419 35.865C60.4216 37.16 60.5571 37.5002 60.1829 37.1395C59.8086 36.7788 56.8046 38.4414 53.6523 40.0892C50.5 41.737 48.5154 40.9415 47.9148 38.7381Z" fill="white"/>
<path d="M37.9966 32.3052C37.823 34.5901 37.8319 35.7797 38.9791 36.9266C38.8376 36.5658 39.0735 36.5811 39.6033 36.6834C42.3963 38.8992 44.2636 38.9937 47.9225 37.9107C49.3497 37.2617 50.5574 36.3929 51.2191 36.0042C51.3224 35.4498 50.9598 35.3836 49.3714 35.813C44.5777 36.3241 42.488 35.9865 39.9213 34.173C39.1892 32.9204 37.9558 31.8137 37.9966 32.3052Z" fill="white"/>
<path d="M55.5369 24.6314C56.7776 24.9724 59.4784 25.1283 57.682 32.1118C59.0597 31.6235 59.7156 31.1792 60.3621 29.6211C60.8917 28.4412 61.1128 27.7147 60.7364 25.7583C60.5449 25.1887 61.0711 24.5964 61.4107 25.0711L61.1471 24.6676C59.2665 22.918 59.0231 21.6965 57.023 19.7134C55.2909 18.4999 54.151 18.2667 51.8063 18.68C51.9255 19.4505 52.4463 19.66 52.4463 19.66C52.4463 19.66 54.491 20.8941 54.9154 22.2413C54.9913 23.6228 55.0981 24.2246 55.5369 24.6314Z" fill="white"/>
<path d="M53.0874 27.7938C50.6804 30.7412 49.2159 32.2778 44.5558 32.9551C45.69 34.2873 46.5925 34.7262 49.3507 34.1818C51.0282 33.5195 51.8198 32.9202 53.1381 31.708C53.8143 29.7173 53.6296 28.9755 53.0874 27.7938Z" fill="white"/>
<path d="M48.2249 25.6245C47.3607 25.86 46.5388 26.1978 46.3446 27.1816C46.0336 26.2448 46.2882 25.3608 47.8044 24.5011C49.3622 24.4086 50.6234 25.5788 50.6654 26.004C50.7075 26.4293 50.6601 26.5142 50.4491 26.3921C49.7164 25.7843 49.0891 25.389 48.2249 25.6245Z" fill="white"/>
<path d="M36.8731 29.5851C39.1768 32.6094 40.5521 33.9775 44.0056 34.6303C44.1562 34.8609 44.0767 33.8963 43.1332 32.8153C42.0541 32.1632 41.7593 31.9107 41.0063 30.7578C38.0553 26.8393 39.915 22.0135 43.3182 19.7906C40.8182 20.5189 41.7902 18.89 36.6854 22.2242C35.9036 22.4368 35.6845 22.3288 35.4824 21.9409C35.3698 26.2646 35.6472 27.9939 36.8731 29.5851Z" fill="white"/>
<path d="M44.2448 28.6425C44.2448 28.6425 45.7205 29.2199 46.9801 29.2336C46.4039 28.8421 45.4949 27.9872 45.289 26.8842C45.0083 25.3809 46.3192 24.8079 46.9792 23.4776C45.886 23.1226 43.8285 25.0685 43.5856 26.4343C43.1543 28.0171 43.5401 28.2103 43.9702 29.0613C43.8918 28.7014 44.2448 28.6425 44.2448 28.6425Z" fill="white"/>
<path d="M47.1774 27.3777C47.2426 27.7637 47.3755 27.7581 47.6606 27.6378C47.6606 27.6378 47.4002 27.4789 47.5617 27.1267C47.7232 26.7745 47.9804 26.6888 48.3301 26.6248C48.6799 26.5608 49.0124 26.5903 49.5332 26.9081C50.0539 27.2258 48.777 25.5106 48.0323 26.1687C47.2875 26.8269 47.2799 26.7154 47.1774 27.3777Z" fill="white"/>
<path d="M48.5649 27.5405C48.622 27.7889 48.1746 27.6419 48.0096 27.4098C47.9898 27.6415 48.0691 27.7099 48.0684 27.7826C48.2011 28.0376 48.4966 28.0786 48.7711 27.8993C49.0455 27.72 48.967 27.3601 49.1866 27.2167C49.4061 27.0733 48.5077 27.2922 48.5649 27.5405Z" fill="white"/>
<path d="M48.8872 28.3169C48.3555 28.5819 47.2805 28.6489 47.0019 28.068C46.9005 28.4702 46.8763 28.6887 47.2169 28.9966C47.9052 29.6371 48.3239 29.301 49.2496 29.2314C50.2014 28.8297 50.5824 28.4971 51.1504 27.8255C51.1695 27.0892 50.2499 26.6866 50.3252 26.8019C49.9184 27.5199 49.4188 28.0518 48.8872 28.3169Z" fill="white"/>
<path d="M52.2482 27.1084C50.3688 24.0854 49.3953 24.471 47.613 23.9682C47.242 23.9572 48.0348 23.7749 48.2544 23.6315C48.4639 23.4947 49.1121 23.1248 49.0863 23.0955C49.0835 23.0949 49.0806 23.0943 49.0778 23.0937C49.0823 23.0935 49.0863 23.0955 49.0863 23.0955C52.4153 23.7952 52.3764 25.6278 52.2482 27.1084Z" fill="white"/>
<path d="M43.5311 29.3482C42.7927 28.9036 43.1483 28.2824 42.4769 27.7341C42.0515 29.3115 41.9618 30.1545 42.8193 31.3756C44.7114 32.4452 49.3444 30.8727 50.0793 29.1829C49.8682 29.4713 49.6504 29.6486 48.762 30.0434C46.607 30.5346 45.4324 30.5817 43.5311 29.3482Z" fill="white"/>
<path d="M41.6095 27.725C39.3137 20.0141 47.8897 18.2776 47.8897 18.2776C48.2943 18.1778 48.1783 17.7602 48.1783 17.7602C49.0098 18.4139 51.8173 19.4952 54.227 23.1844C54.9929 25.6878 54.8204 27.0389 54.0969 29.2799C54.6014 20.2171 44.4177 19.304 41.6095 27.725Z" fill="white"/>
<path d="M48.1342 27.164C48.5043 26.9622 48.6057 26.9643 48.5592 27.2153C48.6648 26.8102 48.6429 26.6981 48.1342 27.164Z" fill="white"/>
<path d="M42.5854 19.0284C43.3151 19.3737 43.7004 18.9913 44.2701 18.586C48.8242 15.4311 51.6448 18.1276 51.6448 18.1276C51.6448 18.1276 52.6086 16.3507 49.6113 14.4394C45.8057 15.3283 44.2765 16.3408 42.5854 19.0284Z" fill="white"/>
</svg>
