<svg width="360" height="32" viewBox="0 0 360 32" fill="none" xmlns="http://www.w3.org/2000/svg">
<g filter="url(#filter0_d_50_1844)">
<line x1="-2" y1="29.75" x2="362" y2="29.75" stroke="#E1E1E1" stroke-width="0.5"/>
</g>
<path d="M29.572 7.45215V15.6406H27.5916V6.13184H29.4387L29.572 7.45215ZM33.8567 9.48975V9.62305C33.8567 10.1224 33.7996 10.5858 33.6853 11.0132C33.571 11.4364 33.3997 11.8066 33.1711 12.124C32.9469 12.4414 32.6697 12.689 32.3396 12.8667C32.0095 13.0402 31.6265 13.127 31.1907 13.127C30.776 13.127 30.4163 13.0402 30.1116 12.8667C29.8111 12.689 29.5572 12.4435 29.3499 12.1304C29.1467 11.813 28.9817 11.4512 28.8547 11.0449C28.732 10.6344 28.6368 10.1965 28.5691 9.73096V9.4707C28.6368 8.97559 28.7341 8.51644 28.8611 8.09326C28.988 7.67008 29.1531 7.30404 29.3562 6.99512C29.5593 6.68197 29.8111 6.43864 30.1116 6.26514C30.412 6.09163 30.7696 6.00488 31.1843 6.00488C31.616 6.00488 31.9989 6.0874 32.3333 6.25244C32.6676 6.41748 32.9469 6.65446 33.1711 6.96338C33.3997 7.26807 33.571 7.63411 33.6853 8.06152C33.7996 8.48893 33.8567 8.96501 33.8567 9.48975ZM31.8699 9.62305V9.48975C31.8699 9.21045 31.8487 8.95443 31.8064 8.72168C31.7641 8.4847 31.6964 8.27946 31.6033 8.10596C31.5102 7.92822 31.3875 7.79069 31.2351 7.69336C31.0828 7.59603 30.8966 7.54736 30.6765 7.54736C30.4395 7.54736 30.2385 7.58545 30.0735 7.66162C29.9084 7.73779 29.7751 7.84993 29.6736 7.99805C29.572 8.14193 29.498 8.31966 29.4514 8.53125C29.4091 8.74284 29.3858 8.98405 29.3816 9.25488V9.95312C29.3858 10.2705 29.4303 10.554 29.5149 10.8037C29.6038 11.0492 29.7413 11.2417 29.9275 11.3813C30.1179 11.5168 30.3718 11.5845 30.6892 11.5845C30.9135 11.5845 31.0997 11.5358 31.2478 11.4385C31.4001 11.3369 31.5208 11.1951 31.6096 11.0132C31.7027 10.8312 31.7683 10.6217 31.8064 10.3848C31.8487 10.1478 31.8699 9.89388 31.8699 9.62305ZM36.8972 7.73145V13H34.9167V6.13184H36.7766L36.8972 7.73145ZM38.9475 6.08105L38.9158 7.92822C38.8311 7.91553 38.7211 7.90495 38.5857 7.89648C38.4503 7.88379 38.3339 7.87744 38.2366 7.87744C37.9827 7.87744 37.7626 7.90918 37.5764 7.97266C37.3944 8.0319 37.2421 8.12077 37.1194 8.23926C37.0009 8.35775 36.912 8.50586 36.8528 8.68359C36.7935 8.8571 36.7639 9.05811 36.7639 9.28662L36.3894 9.10254C36.3894 8.64974 36.4338 8.23503 36.5227 7.8584C36.6116 7.48177 36.7406 7.15592 36.9099 6.88086C37.0792 6.60156 37.2865 6.38574 37.532 6.2334C37.7774 6.08105 38.0567 6.00488 38.3699 6.00488C38.4714 6.00488 38.5751 6.01123 38.6809 6.02393C38.7867 6.03662 38.8756 6.05566 38.9475 6.08105ZM41.8484 6.13184V13H39.8616V6.13184H41.8484ZM39.741 4.35449C39.741 4.06673 39.8425 3.83187 40.0457 3.6499C40.2488 3.4637 40.5154 3.37061 40.8455 3.37061C41.1755 3.37061 41.4421 3.4637 41.6453 3.6499C41.8526 3.83187 41.9563 4.06673 41.9563 4.35449C41.9563 4.63802 41.8526 4.87288 41.6453 5.05908C41.4421 5.24105 41.1755 5.33203 40.8455 5.33203C40.5154 5.33203 40.2488 5.24105 40.0457 5.05908C39.8425 4.87288 39.741 4.63802 39.741 4.35449ZM45.2634 7.57275V13H43.283V6.13184H45.1428L45.2634 7.57275ZM45.0095 9.32471L44.5081 9.3374C44.5081 8.85498 44.5652 8.41276 44.6794 8.01074C44.7979 7.60449 44.9693 7.25114 45.1936 6.95068C45.4179 6.65023 45.6951 6.41748 46.0251 6.25244C46.3595 6.0874 46.7445 6.00488 47.1804 6.00488C47.4851 6.00488 47.7623 6.05143 48.012 6.14453C48.2616 6.2334 48.4753 6.37516 48.6531 6.56982C48.835 6.76025 48.9747 7.00993 49.072 7.31885C49.1694 7.62354 49.218 7.98958 49.218 8.41699V13H47.2375V8.6582C47.2375 8.35352 47.1995 8.12288 47.1233 7.96631C47.0514 7.8055 46.9456 7.69548 46.8059 7.63623C46.6663 7.57699 46.4991 7.54736 46.3044 7.54736C46.0929 7.54736 45.9045 7.59391 45.7395 7.68701C45.5787 7.77588 45.4433 7.90072 45.3333 8.06152C45.2232 8.22233 45.1407 8.41064 45.0857 8.62646C45.0349 8.84229 45.0095 9.07503 45.0095 9.32471ZM49.0149 9.22314L48.3865 9.27393C48.3865 8.80843 48.4415 8.37679 48.5515 7.979C48.6615 7.58122 48.8266 7.23633 49.0466 6.94434C49.2667 6.64811 49.5396 6.41748 49.8655 6.25244C50.1956 6.0874 50.5785 6.00488 51.0144 6.00488C51.336 6.00488 51.628 6.05143 51.8904 6.14453C52.157 6.23763 52.3855 6.38786 52.5759 6.59521C52.7706 6.80257 52.9208 7.07552 53.0266 7.41406C53.1324 7.74837 53.1853 8.15885 53.1853 8.64551V13H51.1921V8.64551C51.1921 8.34505 51.1541 8.11654 51.0779 7.95996C51.0059 7.80339 50.9001 7.69548 50.7605 7.63623C50.6251 7.57699 50.4622 7.54736 50.2717 7.54736C50.0601 7.54736 49.8761 7.5918 49.7195 7.68066C49.5629 7.7653 49.4317 7.88379 49.3259 8.03613C49.2201 8.18424 49.1418 8.35986 49.0911 8.56299C49.0403 8.76611 49.0149 8.98617 49.0149 9.22314ZM57.7493 13.127C57.2034 13.127 56.7146 13.0402 56.283 12.8667C55.8513 12.6932 55.4853 12.4541 55.1848 12.1494C54.8886 11.8405 54.6622 11.485 54.5056 11.083C54.349 10.681 54.2708 10.2515 54.2708 9.79443V9.55322C54.2708 9.04118 54.3427 8.56934 54.4866 8.1377C54.6305 7.70605 54.8399 7.33154 55.115 7.01416C55.3943 6.69255 55.7371 6.44499 56.1433 6.27148C56.5496 6.09375 57.0129 6.00488 57.5334 6.00488C58.0201 6.00488 58.4539 6.08529 58.8347 6.24609C59.2156 6.40267 59.5372 6.62907 59.7996 6.92529C60.0619 7.21729 60.2608 7.57064 60.3962 7.98535C60.5359 8.39583 60.6057 8.8571 60.6057 9.36914V10.1816H55.0706V8.90576H58.6633V8.75342C58.6633 8.51221 58.6189 8.30062 58.53 8.11865C58.4454 7.93669 58.3184 7.79704 58.1492 7.69971C57.9841 7.59814 57.7747 7.54736 57.5208 7.54736C57.2795 7.54736 57.0785 7.59814 56.9177 7.69971C56.7569 7.80127 56.6278 7.94515 56.5305 8.13135C56.4374 8.31331 56.3697 8.52702 56.3274 8.77246C56.2851 9.01367 56.2639 9.27393 56.2639 9.55322V9.79443C56.2639 10.061 56.2999 10.3044 56.3718 10.5244C56.4438 10.7445 56.5496 10.9328 56.6892 11.0894C56.8289 11.2459 56.9981 11.3687 57.197 11.4575C57.3959 11.5464 57.6223 11.5908 57.8762 11.5908C58.1894 11.5908 58.4877 11.5316 58.7712 11.4131C59.0548 11.2904 59.3002 11.0999 59.5076 10.8418L60.4343 11.9019C60.2947 12.105 60.0979 12.3018 59.844 12.4922C59.5943 12.6784 59.2939 12.8307 58.9426 12.9492C58.5914 13.0677 58.1936 13.127 57.7493 13.127Z" fill="#2795B3"/>
<path d="M19.9446 14.5L16.9529 10.5H18.9473L19.9446 12L22.9362 7H25.4293L19.9446 14.5Z" fill="#F39926" stroke="#FF9520" stroke-width="0.5"/>
<rect x="67.8114" y="2" width="25.9279" height="14" rx="7" fill="#DDDDDD"/>
<path d="M83.267 9C83.267 13.6957 79.4713 17.5 74.7919 17.5C70.1126 17.5 66.3169 13.6957 66.3169 9C66.3169 4.30427 70.1126 0.5 74.7919 0.5C79.4713 0.5 83.267 4.30427 83.267 9Z" fill="#FAFAFA" stroke="#C7C7C8"/>
<defs>
<filter id="filter0_d_50_1844" x="-3.5" y="28.5" width="367" height="3.5" filterUnits="userSpaceOnUse" color-interpolation-filters="sRGB">
<feFlood flood-opacity="0" result="BackgroundImageFix"/>
<feColorMatrix in="SourceAlpha" type="matrix" values="0 0 0 0 0 0 0 0 0 0 0 0 0 0 0 0 0 0 127 0" result="hardAlpha"/>
<feOffset dy="0.5"/>
<feGaussianBlur stdDeviation="0.75"/>
<feComposite in2="hardAlpha" operator="out"/>
<feColorMatrix type="matrix" values="0 0 0 0 0 0 0 0 0 0 0 0 0 0 0 0 0 0 0.3 0"/>
<feBlend mode="normal" in2="BackgroundImageFix" result="effect1_dropShadow_50_1844"/>
<feBlend mode="normal" in="SourceGraphic" in2="effect1_dropShadow_50_1844" result="shape"/>
</filter>
</defs>
</svg>
